<svg width="209" height="29" viewBox="0 0 209 29" fill="none" xmlns="http://www.w3.org/2000/svg">
<path d="M205.836 1.80996C205.836 0.989956 206.206 0.579956 206.946 0.579956C207.226 0.579956 207.466 0.679956 207.666 0.879956C207.886 1.05996 208.006 1.29996 208.026 1.59996C208.066 2.63996 208.046 3.73996 207.966 4.89996C207.906 6.05996 207.836 7.08996 207.756 7.98996C207.716 8.44996 207.676 9.10996 207.636 9.96996C207.616 10.81 207.586 11.72 207.546 12.7C207.526 13.68 207.506 14.65 207.486 15.61C207.466 16.55 207.456 17.35 207.456 18.01C207.456 18.37 207.396 18.7 207.276 19C207.156 19.28 206.916 19.44 206.556 19.48C206.156 19.48 205.856 19.36 205.656 19.12C205.456 18.86 205.336 18.5 205.296 18.04C205.256 17.42 205.236 16.63 205.236 15.67C205.236 14.71 205.246 13.73 205.266 12.73C205.286 11.71 205.316 10.75 205.356 9.84996C205.396 8.92996 205.446 8.20996 205.506 7.68996C205.546 7.26996 205.586 6.79996 205.626 6.27996C205.666 5.75996 205.696 5.23996 205.716 4.71996C205.756 4.17996 205.786 3.65996 205.806 3.15996C205.826 2.65996 205.836 2.20996 205.836 1.80996ZM204.396 23.35C204.336 22.77 204.506 22.27 204.906 21.85C205.306 21.41 205.826 21.19 206.466 21.19C206.706 21.19 206.946 21.24 207.186 21.34C207.446 21.44 207.676 21.58 207.876 21.76C208.076 21.92 208.236 22.11 208.356 22.33C208.496 22.57 208.566 22.82 208.566 23.08C208.566 23.34 208.516 23.59 208.416 23.83C208.316 24.09 208.176 24.32 207.996 24.52C207.836 24.72 207.636 24.88 207.396 25C207.176 25.14 206.936 25.21 206.676 25.21C206.096 25.23 205.586 25.07 205.146 24.73C204.706 24.39 204.456 23.93 204.396 23.35Z" fill="black"/>
<path d="M183.537 23.1999C183.537 22.8599 183.657 22.5999 183.897 22.4199C183.797 21.9599 183.677 21.5099 183.537 21.0699C183.417 20.6099 183.327 20.1299 183.267 19.6299C183.227 19.3899 183.187 19.1499 183.147 18.9099C183.127 18.6499 183.097 18.3999 183.057 18.1599C183.037 17.9199 183.017 17.7099 182.997 17.5299C182.977 17.3299 182.967 17.1799 182.967 17.0799C183.007 16.7599 183.107 16.4799 183.267 16.2399C183.447 15.9799 183.767 15.8299 184.227 15.7899C184.847 15.7299 185.667 15.6799 186.687 15.6399C187.707 15.5799 188.777 15.5399 189.897 15.5199C191.037 15.4799 192.157 15.4599 193.257 15.4599C194.377 15.4399 195.337 15.4399 196.137 15.4599C196.957 15.4999 197.367 15.9599 197.367 16.8399C197.367 17.1999 197.367 17.5999 197.367 18.0399C197.367 18.4599 197.357 18.8999 197.337 19.3599C197.337 19.7999 197.337 20.2299 197.337 20.6499C197.337 21.0699 197.337 21.4399 197.337 21.7599C197.337 22.1999 197.317 22.5499 197.277 22.8099C197.257 23.0699 197.177 23.2599 197.037 23.3799C196.917 23.5199 196.727 23.5999 196.467 23.6199C196.207 23.6599 195.847 23.6799 195.387 23.6799C193.687 23.7199 192.037 23.7699 190.437 23.8299C188.837 23.9099 187.437 24.0099 186.237 24.1299C185.997 24.1699 185.737 24.1999 185.457 24.2199C185.197 24.2599 184.957 24.2799 184.737 24.2799C184.337 24.2799 184.037 24.1799 183.837 23.9799C183.637 23.7799 183.537 23.5199 183.537 23.1999ZM189.657 2.25994C189.837 2.17994 190.047 2.12994 190.287 2.10994C190.547 2.08994 190.787 2.10994 191.007 2.16994C191.227 2.22994 191.417 2.33994 191.577 2.49994C191.737 2.65994 191.827 2.86994 191.847 3.12994C191.887 3.72994 191.617 4.07994 191.037 4.17994C190.797 4.21994 190.527 4.23994 190.227 4.23994C189.927 4.21994 189.667 4.18994 189.447 4.14994C189.347 4.12994 189.257 4.11994 189.177 4.11994C189.097 4.11994 189.037 4.11994 188.997 4.11994C188.857 4.11994 188.787 4.18994 188.787 4.32994C188.787 4.90994 188.777 5.48994 188.757 6.06994C188.737 6.64994 188.707 7.22994 188.667 7.80994C188.627 8.38994 188.587 9.04994 188.547 9.78994C188.527 10.5099 188.517 11.1599 188.517 11.7399C188.517 11.8399 188.597 11.9099 188.757 11.9499C188.937 11.9699 189.237 11.9899 189.657 12.0099C189.937 12.0299 190.237 12.0599 190.557 12.0999C190.877 12.1399 191.127 12.1899 191.307 12.2499C191.587 12.3499 191.817 12.5199 191.997 12.7599C192.197 12.9999 192.197 13.2899 191.997 13.6299C191.897 13.7699 191.767 13.8599 191.607 13.8999C191.467 13.9199 191.337 13.9299 191.217 13.9299H191.037C190.017 13.8099 188.927 13.7299 187.767 13.6899C186.607 13.6299 185.427 13.5999 184.227 13.5999C183.387 13.5999 182.577 13.6099 181.797 13.6299C181.017 13.6499 180.307 13.6699 179.667 13.6899C179.487 13.6899 179.307 13.6799 179.127 13.6599C178.947 13.6399 178.787 13.5899 178.647 13.5099C178.507 13.4299 178.397 13.3099 178.317 13.1499C178.237 12.9899 178.207 12.7699 178.227 12.4899C178.247 12.2699 178.347 12.0999 178.527 11.9799C178.707 11.8599 178.927 11.7999 179.187 11.7999C179.267 11.7999 179.357 11.7999 179.457 11.7999C179.557 11.7999 179.697 11.7899 179.877 11.7699C180.057 11.7699 180.277 11.7699 180.537 11.7699C180.797 11.7499 181.157 11.7299 181.617 11.7099L181.947 7.44994L182.187 4.32994C182.047 4.32994 181.917 4.33994 181.797 4.35994C181.677 4.35994 181.537 4.36994 181.377 4.38994C181.217 4.40994 181.047 4.42994 180.867 4.44994C180.707 4.46994 180.537 4.47994 180.357 4.47994C179.737 4.47994 179.317 4.36994 179.097 4.14994C178.937 3.94994 178.877 3.69994 178.917 3.39994C178.957 3.09994 179.077 2.86994 179.277 2.70994C179.457 2.58994 179.777 2.51994 180.237 2.49994C180.437 2.47994 180.677 2.46994 180.957 2.46994C181.257 2.46994 181.577 2.45994 181.917 2.43994C182.137 2.43994 182.387 2.43994 182.667 2.43994C182.947 2.41994 183.247 2.39994 183.567 2.37994C184.067 2.35994 184.607 2.33994 185.187 2.31994C185.767 2.29994 186.317 2.28994 186.837 2.28994C187.357 2.26994 187.817 2.25994 188.217 2.25994C188.617 2.25994 188.877 2.25994 188.997 2.25994H189.657ZM185.307 17.6499C185.367 18.4299 185.447 19.2099 185.547 19.9899C185.647 20.7499 185.767 21.5099 185.907 22.2699C186.447 22.2299 187.057 22.1799 187.737 22.1199C188.437 22.0799 189.157 22.0399 189.897 21.9999C190.657 21.9399 191.427 21.8999 192.207 21.8799C192.987 21.8399 193.757 21.8199 194.517 21.8199C194.897 21.8199 195.117 21.7899 195.177 21.7299C195.257 21.6699 195.297 21.4699 195.297 21.1299C195.297 20.9299 195.297 20.6899 195.297 20.4099C195.297 20.1299 195.297 19.8399 195.297 19.5399C195.317 19.2399 195.327 18.9599 195.327 18.6999C195.327 18.4199 195.327 18.1899 195.327 18.0099C195.327 17.7099 195.287 17.5299 195.207 17.4699C195.127 17.3899 194.927 17.3399 194.607 17.3199C193.167 17.2599 191.677 17.2699 190.137 17.3499C188.617 17.4299 187.007 17.5299 185.307 17.6499ZM200.487 8.25994C200.307 8.23994 200.047 8.23994 199.707 8.25994C199.387 8.25994 199.047 8.26994 198.687 8.28994C198.347 8.30994 198.017 8.32994 197.697 8.34994C197.377 8.36994 197.117 8.37994 196.917 8.37994C196.917 8.49994 196.917 8.67994 196.917 8.91994C196.917 9.15994 196.917 9.42994 196.917 9.72994C196.937 10.0299 196.947 10.3399 196.947 10.6599C196.947 10.9599 196.947 11.2299 196.947 11.4699C196.947 11.6499 196.957 11.8899 196.977 12.1899C197.017 12.4699 197.037 12.7199 197.037 12.9399C197.037 13.3399 196.937 13.6899 196.737 13.9899C196.537 14.2699 196.277 14.4099 195.957 14.4099C195.557 14.4099 195.247 14.3099 195.027 14.1099C194.827 13.9099 194.727 13.6799 194.727 13.4199C194.727 12.8799 194.717 12.1599 194.697 11.2599C194.677 10.3599 194.657 9.39994 194.637 8.37994C194.637 7.35994 194.627 6.34994 194.607 5.34994C194.587 4.34994 194.577 3.46994 194.577 2.70994C194.577 2.36994 194.697 2.11994 194.937 1.95994C195.177 1.77994 195.437 1.68994 195.717 1.68994C195.997 1.68994 196.237 1.77994 196.437 1.95994C196.657 2.11994 196.777 2.37994 196.797 2.73994C196.837 3.27994 196.857 3.81994 196.857 4.35994C196.857 4.87994 196.857 5.58994 196.857 6.48994C197.497 6.42994 198.167 6.35994 198.867 6.27994C199.587 6.19994 200.247 6.20994 200.847 6.30994C201.087 6.34994 201.267 6.47994 201.387 6.69994C201.527 6.91994 201.597 7.13994 201.597 7.35994C201.597 7.59994 201.497 7.82994 201.297 8.04994C201.117 8.24994 200.847 8.31994 200.487 8.25994ZM186.657 6.93994C186.657 6.05994 186.597 5.13994 186.477 4.17994C186.417 4.15994 186.317 4.14994 186.177 4.14994C186.037 4.12994 185.867 4.11994 185.667 4.11994C185.487 4.11994 185.287 4.12994 185.067 4.14994C184.847 4.16994 184.647 4.18994 184.467 4.20994C184.307 5.34994 184.167 6.53994 184.047 7.77994C183.927 9.01994 183.867 10.1499 183.867 11.1699C183.867 11.4699 183.897 11.6499 183.957 11.7099C184.037 11.7699 184.187 11.7999 184.407 11.7999H186.267C186.367 11.7199 186.417 11.6199 186.417 11.4999L186.507 10.3299C186.547 9.80994 186.577 9.24994 186.597 8.64994C186.637 8.02994 186.657 7.45994 186.657 6.93994Z" fill="black"/>
<path d="M157.186 4.09C157.646 3.77 158.166 3.55999 158.746 3.45999C159.326 3.34 159.896 3.34 160.456 3.45999C161.096 3.57999 161.696 3.80999 162.256 4.15C162.816 4.46999 163.316 4.85999 163.756 5.31999C164.216 5.77999 164.606 6.28999 164.926 6.85C165.246 7.41 165.496 7.98999 165.676 8.58999C165.896 9.41 165.956 10.32 165.856 11.32C165.856 11.46 165.846 11.62 165.826 11.8C165.826 11.98 165.816 12.17 165.796 12.37C165.796 12.47 165.776 12.58 165.736 12.7C165.716 12.82 165.706 12.94 165.706 13.06C165.646 14.24 165.486 15.36 165.226 16.42C164.986 17.48 164.606 18.43 164.086 19.27C163.586 20.11 162.926 20.8 162.106 21.34C161.306 21.88 160.316 22.21 159.136 22.33C158.156 22.41 157.236 22.21 156.376 21.73C155.536 21.23 154.806 20.55 154.186 19.69C153.586 18.81 153.116 17.79 152.776 16.63C152.456 15.47 152.326 14.26 152.386 13C152.426 12.62 152.456 12.26 152.476 11.92C152.496 11.56 152.556 11.2 152.656 10.84C152.896 9.74 153.186 8.73 153.526 7.81C153.886 6.88999 154.306 6.10999 154.786 5.47C155.046 5.08999 155.306 4.87999 155.566 4.83999C155.826 4.77999 156.076 4.79999 156.316 4.89999C156.436 4.71999 156.576 4.56999 156.736 4.44999C156.916 4.31 157.066 4.19 157.186 4.09ZM158.416 6.04C158.296 6.14 158.136 6.33 157.936 6.61C157.736 6.87 157.616 7.1 157.576 7.29999C157.436 7.53999 157.196 7.74 156.856 7.9C156.536 8.04 156.276 8.00999 156.076 7.81C155.836 8.23 155.616 8.73999 155.416 9.33999C155.236 9.93999 155.066 10.57 154.906 11.23C154.846 11.53 154.796 11.82 154.756 12.1C154.736 12.38 154.716 12.66 154.696 12.94C154.656 13.94 154.746 14.9 154.966 15.82C155.206 16.72 155.536 17.51 155.956 18.19C156.376 18.85 156.856 19.36 157.396 19.72C157.956 20.08 158.536 20.21 159.136 20.11C159.856 19.99 160.476 19.73 160.996 19.33C161.516 18.91 161.946 18.38 162.286 17.74C162.626 17.1 162.896 16.38 163.096 15.58C163.296 14.76 163.436 13.88 163.516 12.94C163.516 12.88 163.526 12.82 163.546 12.76C163.586 12.68 163.606 12.61 163.606 12.55C163.626 12.33 163.646 12.12 163.666 11.92C163.686 11.7 163.696 11.48 163.696 11.26C163.696 10.94 163.686 10.61 163.666 10.27C163.646 9.92999 163.586 9.60999 163.486 9.31C163.246 8.44999 162.826 7.69 162.226 7.03C161.626 6.34999 160.956 5.91999 160.216 5.73999C159.916 5.67999 159.596 5.67 159.256 5.70999C158.936 5.75 158.656 5.86 158.416 6.04ZM170.176 4.78C170.216 4.42 170.356 4.15 170.596 3.97C170.836 3.77 171.096 3.69 171.376 3.73C171.676 3.76999 171.936 3.91999 172.156 4.17999C172.376 4.43999 172.466 4.74 172.426 5.08C172.326 5.66 172.216 6.34999 172.096 7.14999C171.996 7.92999 171.906 8.83999 171.826 9.87999C172.066 9.87999 172.356 9.87999 172.696 9.87999C173.036 9.87999 173.396 9.88999 173.776 9.90999C174.176 9.90999 174.576 9.92999 174.976 9.97C175.376 9.99 175.756 10.03 176.116 10.09C176.456 10.13 176.686 10.26 176.806 10.48C176.926 10.7 176.976 10.92 176.956 11.14C176.936 11.3 176.816 11.5 176.596 11.74C176.376 11.98 175.986 12.1 175.426 12.1C174.746 12.1 174.126 12.11 173.566 12.13C173.026 12.15 172.406 12.18 171.706 12.22L171.406 20.68C171.846 20.88 172.036 21.23 171.976 21.73C171.916 22.47 171.356 22.84 170.296 22.84C169.976 22.84 169.696 22.73 169.456 22.51C169.236 22.31 169.126 22.04 169.126 21.7C169.126 18.88 169.196 16.08 169.336 13.3C169.476 10.52 169.756 7.68 170.176 4.78Z" fill="black"/>
<path d="M132.025 4.95998C133.105 4.79998 134.305 4.67998 135.625 4.59998C136.965 4.49998 138.205 4.43998 139.345 4.41998C139.925 4.39998 140.385 4.42998 140.725 4.50998C141.085 4.56998 141.285 4.81998 141.325 5.25998C141.345 5.49998 141.285 5.79998 141.145 6.15998C141.025 6.49998 140.795 6.86998 140.455 7.26998L137.695 10.54C137.875 10.64 138.125 10.84 138.445 11.14C138.765 11.44 139.315 11.97 140.095 12.73C140.635 13.27 141.055 13.67 141.355 13.93C141.655 14.17 141.875 14.35 142.015 14.47C142.155 14.59 142.235 14.69 142.255 14.77C142.275 14.85 142.285 14.99 142.285 15.19C142.285 15.47 142.185 15.72 141.985 15.94C141.785 16.14 141.515 16.24 141.175 16.24C141.035 16.24 140.865 16.2 140.665 16.12C140.465 16.02 140.185 15.84 139.825 15.58C139.485 15.32 139.055 14.96 138.535 14.5C138.035 14.02 137.395 13.4 136.615 12.64V12.67C136.475 12.55 136.355 12.45 136.255 12.37C136.175 12.29 136.135 12.24 136.135 12.22C135.915 12.44 135.655 12.72 135.355 13.06C135.055 13.4 134.745 13.75 134.425 14.11C134.125 14.45 133.835 14.78 133.555 15.1C133.295 15.42 133.085 15.67 132.925 15.85C132.645 16.17 132.345 16.37 132.025 16.45C131.705 16.51 131.415 16.43 131.155 16.21C130.655 15.79 130.755 15.2 131.455 14.44C131.955 13.88 132.535 13.23 133.195 12.49C133.855 11.75 134.525 11.01 135.205 10.27C135.885 9.50998 136.525 8.77998 137.125 8.07998C137.745 7.37998 138.265 6.77998 138.685 6.27998C138.325 6.29998 137.925 6.32998 137.485 6.36998C137.045 6.40998 136.585 6.45998 136.105 6.51998C135.645 6.55998 135.175 6.60998 134.695 6.66998C134.235 6.70998 133.805 6.74998 133.405 6.78998C133.245 6.88998 133.065 6.97998 132.865 7.05998C132.665 7.13998 132.445 7.18998 132.205 7.20998C131.805 7.24998 131.475 7.16998 131.215 6.96998C130.975 6.74998 130.835 6.46998 130.795 6.12998C130.755 5.80998 130.845 5.54998 131.065 5.34998C131.305 5.14998 131.625 5.01998 132.025 4.95998ZM135.355 19.18C135.335 18.88 135.415 18.65 135.595 18.49C135.775 18.31 136.015 18.2 136.315 18.16C136.675 18.1 137.145 18.05 137.725 18.01C138.325 17.97 139.175 17.91 140.275 17.83C141.115 17.77 141.965 17.72 142.825 17.68C143.685 17.64 144.405 17.63 144.985 17.65C145.225 17.65 145.425 17.72 145.585 17.86C145.745 18 145.845 18.18 145.885 18.4C145.925 18.6 145.905 18.84 145.825 19.12C145.745 19.38 145.595 19.64 145.375 19.9L143.665 22C143.805 22.06 143.925 22.14 144.025 22.24C144.125 22.34 144.215 22.43 144.295 22.51C144.475 22.71 144.735 22.97 145.075 23.29C145.415 23.61 145.775 23.95 146.155 24.31C146.555 24.67 146.945 25.02 147.325 25.36C147.705 25.7 148.025 25.99 148.285 26.23C148.625 26.53 148.725 26.93 148.585 27.43C148.545 27.65 148.415 27.82 148.195 27.94C147.975 28.08 147.745 28.12 147.505 28.06C147.125 27.96 146.775 27.75 146.455 27.43C146.195 27.23 145.915 27 145.615 26.74C145.315 26.48 145.015 26.21 144.715 25.93C144.435 25.67 144.165 25.41 143.905 25.15C143.645 24.91 143.425 24.7 143.245 24.52C143.085 24.42 142.915 24.31 142.735 24.19C142.575 24.07 142.445 23.93 142.345 23.77C142.345 23.75 142.335 23.74 142.315 23.74C141.795 24.4 141.295 25.04 140.815 25.66C140.355 26.28 139.965 26.8 139.645 27.22C139.505 27.4 139.355 27.58 139.195 27.76C139.035 27.96 138.865 28.12 138.685 28.24C138.525 28.38 138.345 28.47 138.145 28.51C137.965 28.57 137.765 28.55 137.545 28.45C137.305 28.33 137.145 28.18 137.065 28C136.985 27.82 136.955 27.63 136.975 27.43C137.015 27.23 137.085 27.03 137.185 26.83C137.285 26.63 137.405 26.45 137.545 26.29C137.885 25.89 138.285 25.4 138.745 24.82C139.205 24.26 139.675 23.67 140.155 23.05C140.655 22.43 141.135 21.83 141.595 21.25C142.055 20.65 142.455 20.12 142.795 19.66C142.155 19.72 141.565 19.78 141.025 19.84C140.505 19.88 139.895 19.92 139.195 19.96C138.575 20 137.985 20.04 137.425 20.08C136.865 20.12 136.515 20.14 136.375 20.14C135.755 20.12 135.415 19.8 135.355 19.18ZM144.535 4.20998C144.515 3.90998 144.605 3.62998 144.805 3.36998C145.005 3.10998 145.285 2.97998 145.645 2.97998C146.385 2.97998 146.755 3.41998 146.755 4.29998C146.755 4.53998 146.755 4.82998 146.755 5.16998C146.775 5.48998 146.795 5.84998 146.815 6.24998C146.835 6.62998 146.845 7.02998 146.845 7.44998C146.865 7.84998 146.875 8.22998 146.875 8.58998H148.345C148.665 8.58998 148.995 8.60998 149.335 8.64998C149.675 8.66998 149.975 8.72998 150.235 8.82998C150.515 8.92998 150.735 9.07998 150.895 9.27998C151.075 9.47998 151.165 9.74998 151.165 10.09C151.165 10.35 151.045 10.59 150.805 10.81C150.565 11.03 150.305 11.14 150.025 11.14C149.785 11.14 149.545 11.11 149.305 11.05C149.085 10.99 148.865 10.92 148.645 10.84C148.385 10.82 148.095 10.81 147.775 10.81C147.475 10.81 147.155 10.81 146.815 10.81C146.815 11.05 146.815 11.36 146.815 11.74C146.815 12.1 146.805 12.49 146.785 12.91C146.765 13.31 146.745 13.7 146.725 14.08C146.705 14.44 146.675 14.74 146.635 14.98C146.575 15.4 146.455 15.74 146.275 16C146.115 16.24 145.845 16.36 145.465 16.36C144.665 16.36 144.315 15.91 144.415 15.01C144.475 14.29 144.525 13.45 144.565 12.49C144.605 11.53 144.635 10.56 144.655 9.57998C144.675 8.57998 144.675 7.60998 144.655 6.66998C144.635 5.72998 144.595 4.90998 144.535 4.20998ZM134.155 1.11998C134.395 1.11998 134.775 1.10998 135.295 1.08998C135.835 1.06998 136.395 1.04998 136.975 1.02998C137.575 0.989983 138.125 0.949983 138.625 0.909984C139.145 0.869983 139.515 0.839983 139.735 0.819983C140.095 0.779984 140.415 0.839983 140.695 0.999983C140.995 1.15998 141.135 1.42998 141.115 1.80998C141.095 2.18998 140.965 2.45998 140.725 2.61998C140.505 2.75998 140.195 2.84998 139.795 2.88998C139.515 2.92998 139.055 2.95998 138.415 2.97998C137.775 2.99998 137.105 3.01998 136.405 3.03998C135.725 3.05998 135.075 3.07998 134.455 3.09998C133.855 3.09998 133.435 3.10998 133.195 3.12998C132.875 3.16998 132.555 3.21998 132.235 3.27998C131.935 3.33998 131.675 3.28998 131.455 3.12998C131.295 3.02998 131.175 2.88998 131.095 2.70998C131.035 2.50998 130.985 2.31998 130.945 2.13998C130.905 1.61998 131.255 1.31998 131.995 1.23998C132.335 1.19998 132.675 1.15998 133.015 1.11998C133.375 1.07998 133.755 1.07998 134.155 1.11998Z" fill="black"/>
<path d="M108.742 16.69C109.162 16.69 109.542 16.69 109.882 16.69C110.222 16.69 110.552 16.69 110.872 16.69C111.212 16.69 111.552 16.69 111.892 16.69C112.252 16.67 112.642 16.64 113.062 16.6C113.602 16.56 114.002 16.62 114.262 16.78C114.522 16.92 114.702 17.25 114.802 17.77C114.882 18.29 114.922 18.79 114.922 19.27C114.922 19.75 114.902 20.19 114.862 20.59C114.822 21.05 114.782 21.43 114.742 21.73C114.702 22.01 114.642 22.23 114.562 22.39C114.482 22.57 114.362 22.69 114.202 22.75C114.062 22.83 113.862 22.88 113.602 22.9H106.822C106.782 23.1 106.752 23.31 106.732 23.53C106.712 23.77 106.702 24.01 106.702 24.25C106.702 24.57 106.722 24.76 106.762 24.82C106.822 24.9 106.962 24.95 107.182 24.97C108.262 25.05 109.382 25.08 110.542 25.06C111.722 25.06 112.912 25.03 114.112 24.97C114.372 24.95 114.692 24.94 115.072 24.94C115.472 24.94 115.762 24.94 115.942 24.94C116.562 24.94 117.022 25.03 117.322 25.21C117.622 25.39 117.762 25.69 117.742 26.11C117.722 26.53 117.562 26.81 117.262 26.95C116.962 27.11 116.612 27.17 116.212 27.13C115.812 27.11 115.192 27.09 114.352 27.07C113.512 27.07 112.622 27.06 111.682 27.04C110.762 27.04 109.872 27.03 109.012 27.01C108.172 27.01 107.542 27 107.122 26.98C106.162 26.94 105.482 26.76 105.082 26.44C104.702 26.12 104.512 25.57 104.512 24.79C104.512 24.21 104.522 23.71 104.542 23.29C104.582 22.89 104.632 22.49 104.692 22.09C104.792 21.67 104.942 21.36 105.142 21.16C105.362 20.96 105.732 20.85 106.252 20.83C106.632 20.81 107.082 20.8 107.602 20.8C108.142 20.78 108.682 20.77 109.222 20.77C109.762 20.77 110.282 20.78 110.782 20.8C111.282 20.8 111.682 20.8 111.982 20.8C112.342 20.8 112.572 20.76 112.672 20.68C112.792 20.58 112.842 20.4 112.822 20.14C112.822 20 112.822 19.78 112.822 19.48C112.842 19.16 112.842 18.92 112.822 18.76C112.822 18.56 112.662 18.47 112.342 18.49C111.982 18.53 111.442 18.56 110.722 18.58C110.022 18.58 109.282 18.58 108.502 18.58C107.722 18.56 106.972 18.54 106.252 18.52C105.532 18.48 104.982 18.44 104.602 18.4C104.082 18.36 103.742 18.26 103.582 18.1C103.422 17.94 103.342 17.69 103.342 17.35C103.342 17.05 103.452 16.82 103.672 16.66C103.912 16.48 104.262 16.42 104.722 16.48C105.202 16.56 105.822 16.62 106.582 16.66C107.342 16.68 108.062 16.69 108.742 16.69ZM105.592 1.53996C106.532 1.51996 107.452 1.48996 108.352 1.44996C109.252 1.38996 110.292 1.31996 111.472 1.23996C111.812 1.19996 112.162 1.16996 112.522 1.14996C112.882 1.12996 113.152 1.10996 113.332 1.08996C113.772 1.06996 114.112 1.10996 114.352 1.20996C114.592 1.30996 114.762 1.57996 114.862 2.01996C114.902 2.23996 114.932 2.52996 114.952 2.88996C114.992 3.22996 115.012 3.59996 115.012 3.99996C115.032 4.37996 115.042 4.76996 115.042 5.16996C115.042 5.54996 115.032 5.88996 115.012 6.18996C114.992 6.62996 114.882 6.94996 114.682 7.14996C114.502 7.34996 114.182 7.46996 113.722 7.50996C113.602 7.52996 113.462 7.53996 113.302 7.53996C113.142 7.53996 112.952 7.53996 112.732 7.53996C112.192 7.53996 111.682 7.54996 111.202 7.56996C110.742 7.56996 110.282 7.57996 109.822 7.59996C109.362 7.59996 108.902 7.60996 108.442 7.62996C107.982 7.62996 107.482 7.62996 106.942 7.62996C106.862 7.84996 106.802 8.12996 106.762 8.46996C106.722 8.80996 106.692 9.09996 106.672 9.33996C106.652 9.61996 106.672 9.80996 106.732 9.90996C106.792 9.98996 106.962 10.04 107.242 10.06C107.462 10.08 107.722 10.1 108.022 10.12C108.322 10.12 108.602 10.12 108.862 10.12C109.342 10.12 109.732 10.12 110.032 10.12C110.332 10.12 110.602 10.13 110.842 10.15C111.082 10.15 111.322 10.15 111.562 10.15C111.802 10.15 112.092 10.15 112.432 10.15C113.032 10.15 113.542 10.16 113.962 10.18C114.382 10.18 114.792 10.21 115.192 10.27C116.252 10.37 116.772 10.74 116.752 11.38C116.712 11.78 116.562 12.04 116.302 12.16C116.062 12.28 115.762 12.34 115.402 12.34C115.102 12.34 114.822 12.32 114.562 12.28C114.322 12.22 114.142 12.18 114.022 12.16C113.762 12.14 113.452 12.12 113.092 12.1C112.732 12.08 112.342 12.07 111.922 12.07C111.502 12.07 111.062 12.07 110.602 12.07C110.162 12.07 109.732 12.07 109.312 12.07C108.792 12.07 108.262 12.07 107.722 12.07C107.182 12.05 106.712 12.03 106.312 12.01C105.672 11.97 105.212 11.82 104.932 11.56C104.652 11.3 104.522 10.82 104.542 10.12C104.562 9.55996 104.602 8.96996 104.662 8.34996C104.742 7.70996 104.842 7.13996 104.962 6.63996C105.042 6.23996 105.192 5.96996 105.412 5.82996C105.632 5.66996 105.972 5.57996 106.432 5.55996C107.392 5.53996 108.352 5.52996 109.312 5.52996C110.292 5.50996 111.332 5.47996 112.432 5.43996C112.812 5.43996 113.002 5.24996 113.002 4.86996C113.002 4.58996 112.992 4.33996 112.972 4.11996C112.952 3.87996 112.912 3.66996 112.852 3.48996C112.832 3.28996 112.712 3.18996 112.492 3.18996C112.072 3.22996 111.612 3.26996 111.112 3.30996C110.632 3.34996 110.172 3.38996 109.732 3.42996C109.092 3.46996 108.452 3.50996 107.812 3.54996C107.192 3.58996 106.522 3.58996 105.802 3.54996C105.342 3.54996 105.002 3.45996 104.782 3.27996C104.582 3.09996 104.452 2.85996 104.392 2.55996C104.372 2.27996 104.462 2.03996 104.662 1.83996C104.882 1.63996 105.192 1.53996 105.592 1.53996ZM111.082 13.15C111.522 13.15 112.092 13.17 112.792 13.21C113.512 13.23 114.242 13.26 114.982 13.3C115.742 13.32 116.462 13.35 117.142 13.39C117.822 13.43 118.352 13.46 118.732 13.48C119.032 13.52 119.282 13.63 119.482 13.81C119.702 13.99 119.812 14.23 119.812 14.53C119.812 15.11 119.422 15.38 118.642 15.34C118.462 15.34 118.142 15.33 117.682 15.31C117.242 15.29 116.732 15.27 116.152 15.25C115.592 15.21 114.992 15.17 114.352 15.13C113.712 15.09 113.102 15.06 112.522 15.04C111.882 15.02 111.202 15.01 110.482 15.01C109.762 14.99 109.052 14.98 108.352 14.98C107.672 14.98 107.032 14.99 106.432 15.01C105.852 15.01 105.372 15.03 104.992 15.07C104.772 15.09 104.532 15.13 104.272 15.19C104.032 15.25 103.782 15.28 103.522 15.28C103.242 15.28 102.932 15.2 102.592 15.04C102.272 14.86 102.122 14.58 102.142 14.2C102.142 13.86 102.262 13.62 102.502 13.48C102.762 13.34 103.102 13.25 103.522 13.21C103.882 13.19 104.412 13.18 105.112 13.18C105.812 13.16 106.542 13.15 107.302 13.15C108.062 13.15 108.792 13.15 109.492 13.15C110.192 13.15 110.722 13.15 111.082 13.15Z" fill="black"/>
<path d="M79.5593 11.23C79.7793 9.78996 80.1593 8.57996 80.6993 7.59996C81.2593 6.61996 81.9193 5.82996 82.6793 5.22996C83.4393 4.62996 84.2693 4.20996 85.1693 3.96996C86.0893 3.72996 87.0193 3.63996 87.9593 3.69996C88.3593 3.71996 88.7693 3.77996 89.1893 3.87996C89.6293 3.95996 90.0393 4.08996 90.4193 4.26996C90.7993 4.42996 91.1193 4.63996 91.3793 4.89996C91.6393 5.13996 91.8093 5.41996 91.8893 5.73995C92.5893 6.31996 93.1593 7.18996 93.5993 8.34996C94.0393 9.48996 94.2193 10.84 94.1393 12.4C93.9593 15.12 93.2793 17.26 92.0993 18.82C90.9193 20.36 89.1193 21.25 86.6993 21.49C85.7193 21.59 84.7793 21.52 83.8793 21.28C82.9993 21.04 82.2193 20.62 81.5393 20.02C80.8593 19.4 80.3193 18.59 79.9193 17.59C79.5193 16.59 79.3193 15.38 79.3193 13.96C79.3193 13.44 79.3393 13 79.3793 12.64C79.4193 12.28 79.4793 11.81 79.5593 11.23ZM81.7793 11.62C81.7393 11.9 81.7093 12.14 81.6893 12.34C81.6693 12.54 81.6493 12.73 81.6293 12.91C81.6093 13.09 81.5993 13.27 81.5993 13.45C81.5993 13.63 81.5993 13.83 81.5993 14.05C81.5993 15.01 81.7293 15.84 81.9893 16.54C82.2693 17.22 82.6393 17.78 83.0993 18.22C83.5593 18.64 84.0793 18.94 84.6593 19.12C85.2593 19.28 85.8893 19.32 86.5493 19.24C88.0293 19.08 89.2293 18.51 90.1493 17.53C91.0893 16.53 91.6393 14.95 91.7993 12.79C91.8993 11.11 91.7393 9.78996 91.3193 8.82996C90.9193 7.86996 90.2393 7.15996 89.2793 6.69996C89.1193 6.59996 88.9093 6.49996 88.6493 6.39996C88.3893 6.27996 88.1693 6.16996 87.9893 6.06996C87.2893 5.98996 86.5993 6.02996 85.9193 6.18996C85.2593 6.34996 84.6493 6.64996 84.0893 7.08996C83.5293 7.52996 83.0493 8.12996 82.6493 8.88996C82.2493 9.62996 81.9593 10.54 81.7793 11.62ZM98.3393 23.62C98.0393 23.66 97.7593 23.57 97.4993 23.35C97.2393 23.13 97.0993 22.74 97.0793 22.18C97.0593 21.2 97.0493 20.28 97.0493 19.42C97.0493 18.56 97.0493 17.62 97.0493 16.6C97.0493 15.46 97.0393 14.4 97.0193 13.42C97.0193 12.42 97.0093 11.44 96.9893 10.48C96.9893 9.49996 96.9793 8.50996 96.9593 7.50996C96.9393 6.50996 96.9193 5.42996 96.8993 4.26996C96.8993 3.92996 96.9793 3.61996 97.1393 3.33996C97.2993 3.03996 97.5493 2.85996 97.8893 2.79996C98.2893 2.73996 98.5993 2.83996 98.8193 3.09996C99.0593 3.35996 99.1893 3.66996 99.2093 4.02996C99.2493 4.92996 99.2793 5.78996 99.2993 6.60996C99.3193 7.42996 99.3393 8.24996 99.3593 9.06996C99.3793 9.88996 99.3893 10.73 99.3893 11.59C99.3893 12.43 99.3893 13.31 99.3893 14.23C99.3893 15.37 99.3793 16.48 99.3593 17.56C99.3593 18.64 99.3593 19.75 99.3593 20.89C99.3993 21.11 99.4393 21.37 99.4793 21.67C99.5393 21.97 99.5593 22.22 99.5393 22.42C99.5193 22.76 99.3893 23.03 99.1493 23.23C98.9293 23.43 98.6593 23.56 98.3393 23.62Z" fill="black"/>
<path d="M61.0746 20.59C61.1946 20.09 61.6646 19.64 62.4846 19.24C63.3246 18.84 64.1947 18.52 65.0947 18.28C65.9947 18.04 66.8647 17.9 67.7047 17.86V14.77C67.1247 14.81 66.5346 14.84 65.9346 14.86C65.3546 14.88 64.7746 14.9 64.1946 14.92C63.6346 14.94 63.1047 14.95 62.6047 14.95C62.1047 14.95 61.6646 14.95 61.2846 14.95C60.8046 14.95 60.3847 14.86 60.0247 14.68C59.6847 14.48 59.5146 14.17 59.5146 13.75C59.5146 13.45 59.6147 13.23 59.8147 13.09C60.0347 12.95 60.3146 12.88 60.6546 12.88C60.8146 12.88 61.0347 12.9 61.3147 12.94C61.6147 12.96 61.8846 12.97 62.1246 12.97C62.4846 12.97 62.8646 12.97 63.2646 12.97C63.6646 12.97 64.1046 12.97 64.5846 12.97C65.0846 12.95 65.6446 12.93 66.2646 12.91C66.8846 12.89 67.5946 12.86 68.3946 12.82C69.9546 12.76 71.1647 12.7 72.0247 12.64C72.9047 12.56 73.5546 12.48 73.9746 12.4C74.2346 12.36 74.4846 12.33 74.7246 12.31C74.9846 12.27 75.2647 12.25 75.5647 12.25C75.9047 12.25 76.1846 12.35 76.4046 12.55C76.6446 12.75 76.7646 12.99 76.7646 13.27C76.7646 14.05 76.2546 14.45 75.2346 14.47C75.0947 14.47 74.9146 14.47 74.6946 14.47C74.4746 14.45 74.2846 14.42 74.1246 14.38C73.4446 14.46 72.7546 14.52 72.0546 14.56C71.3746 14.6 70.6546 14.64 69.8946 14.68C69.9346 15.2 69.9447 15.74 69.9247 16.3C69.9047 16.84 69.8846 17.38 69.8646 17.92C70.5446 18 71.2246 18.14 71.9046 18.34C72.6046 18.54 73.2346 18.82 73.7946 19.18C74.3546 19.54 74.8147 19.98 75.1747 20.5C75.5547 21 75.7746 21.61 75.8346 22.33C75.8946 23.17 75.6546 23.88 75.1146 24.46C74.5746 25.06 73.8746 25.54 73.0146 25.9C72.1746 26.26 71.2446 26.51 70.2246 26.65C69.2246 26.81 68.2846 26.87 67.4046 26.83C66.2646 26.79 65.2646 26.52 64.4046 26.02C63.5646 25.54 62.9747 24.82 62.6347 23.86C62.5747 23.7 62.5346 23.49 62.5146 23.23C62.4946 22.99 62.4946 22.73 62.5146 22.45C62.5546 22.19 62.6046 21.94 62.6646 21.7C62.7446 21.44 62.8647 21.23 63.0247 21.07C62.8647 21.19 62.6546 21.32 62.3946 21.46C62.1546 21.58 61.8946 21.63 61.6146 21.61C61.3946 21.59 61.2347 21.47 61.1347 21.25C61.0547 21.03 61.0346 20.81 61.0746 20.59ZM71.0947 4.39001C70.0747 4.33001 68.9746 4.28001 67.7946 4.24001C66.6146 4.20001 65.4246 4.16001 64.2246 4.12001C64.2046 4.82001 64.1747 5.54001 64.1347 6.28001C64.1147 7.02001 64.1046 7.60001 64.1046 8.02001C64.1046 8.24001 64.1446 8.40001 64.2246 8.50001C64.3246 8.58001 64.5046 8.61001 64.7646 8.59001C65.9646 8.49001 67.1746 8.41001 68.3946 8.35001C69.6346 8.27001 70.6846 8.23001 71.5446 8.23001C72.0846 8.23001 72.5246 8.24001 72.8646 8.26001C73.2246 8.26001 73.5946 8.28001 73.9746 8.32001C74.3146 8.34001 74.5746 8.42001 74.7546 8.56001C74.9546 8.70001 75.0546 8.94001 75.0546 9.28001C75.0546 9.88001 74.6647 10.18 73.8847 10.18C73.5247 10.18 73.1946 10.18 72.8946 10.18C72.5946 10.18 72.3047 10.18 72.0247 10.18C71.7447 10.16 71.4546 10.15 71.1546 10.15C70.8546 10.15 70.5147 10.15 70.1347 10.15C69.2347 10.15 68.2247 10.21 67.1047 10.33C66.0047 10.43 64.9146 10.52 63.8346 10.6C63.0946 10.64 62.5846 10.53 62.3046 10.27C62.0446 9.99001 61.9146 9.53001 61.9146 8.89001C61.9146 8.59001 61.9146 8.25001 61.9146 7.87001C61.9347 7.49001 61.9546 7.08001 61.9746 6.64001C61.9946 6.20001 62.0146 5.76001 62.0346 5.32001C62.0746 4.88001 62.1046 4.45001 62.1246 4.03001L61.6747 4.00001C61.3347 3.96001 61.0347 3.88001 60.7747 3.76001C60.5347 3.62001 60.4246 3.37001 60.4446 3.01001C60.4846 2.63001 60.6046 2.38001 60.8046 2.26001C61.0246 2.12001 61.3646 2.07001 61.8246 2.11001C62.1446 2.13001 62.5746 2.15001 63.1146 2.17001C63.6746 2.19001 64.2846 2.22001 64.9446 2.26001C65.6246 2.28001 66.3246 2.31001 67.0446 2.35001C67.7846 2.37001 68.4846 2.40001 69.1446 2.44001C69.8246 2.46001 70.4346 2.48001 70.9746 2.50001C71.5346 2.52001 71.9746 2.54001 72.2946 2.56001C72.9346 2.60001 73.3646 2.74001 73.5846 2.98001C73.8246 3.22001 73.9347 3.46001 73.9146 3.70001C73.8947 4.00001 73.8046 4.21001 73.6446 4.33001C73.4846 4.45001 73.2447 4.55001 72.9247 4.63001C72.7447 4.67001 72.4746 4.66001 72.1146 4.60001C71.7746 4.52001 71.4347 4.45001 71.0947 4.39001ZM64.9146 23.44C65.1946 24.04 65.6247 24.45 66.2047 24.67C66.8047 24.89 67.4446 24.98 68.1246 24.94C68.8846 24.92 69.5946 24.84 70.2546 24.7C70.9146 24.56 71.4847 24.38 71.9647 24.16C72.4447 23.94 72.8247 23.68 73.1047 23.38C73.3847 23.1 73.5247 22.79 73.5247 22.45C73.5047 21.95 73.3147 21.54 72.9547 21.22C72.6147 20.88 72.1946 20.61 71.6946 20.41C71.1946 20.21 70.6546 20.07 70.0746 19.99C69.5146 19.89 69.0046 19.84 68.5446 19.84C68.1046 19.84 67.5846 19.89 66.9846 19.99C66.3846 20.07 65.8946 20.22 65.5146 20.44C64.6346 21.26 64.4346 22.26 64.9146 23.44Z" fill="black"/>
<path d="M40.2457 23.1999C40.2457 22.8599 40.3657 22.5999 40.6057 22.4199C40.5057 21.9599 40.3857 21.5099 40.2457 21.0699C40.1257 20.6099 40.0357 20.1299 39.9757 19.6299C39.9357 19.3899 39.8957 19.1499 39.8557 18.9099C39.8357 18.6499 39.8057 18.3999 39.7657 18.1599C39.7457 17.9199 39.7257 17.7099 39.7057 17.5299C39.6857 17.3299 39.6757 17.1799 39.6757 17.0799C39.7157 16.7599 39.8157 16.4799 39.9757 16.2399C40.1557 15.9799 40.4757 15.8299 40.9357 15.7899C41.5557 15.7299 42.3757 15.6799 43.3957 15.6399C44.4157 15.5799 45.4857 15.5399 46.6057 15.5199C47.7457 15.4799 48.8657 15.4599 49.9657 15.4599C51.0857 15.4399 52.0457 15.4399 52.8457 15.4599C53.6657 15.4999 54.0757 15.9599 54.0757 16.8399C54.0757 17.1999 54.0757 17.5999 54.0757 18.0399C54.0757 18.4599 54.0657 18.8999 54.0457 19.3599C54.0457 19.7999 54.0457 20.2299 54.0457 20.6499C54.0457 21.0699 54.0457 21.4399 54.0457 21.7599C54.0457 22.1999 54.0257 22.5499 53.9857 22.8099C53.9657 23.0699 53.8857 23.2599 53.7457 23.3799C53.6257 23.5199 53.4357 23.5999 53.1757 23.6199C52.9157 23.6599 52.5557 23.6799 52.0957 23.6799C50.3957 23.7199 48.7457 23.7699 47.1457 23.8299C45.5457 23.9099 44.1457 24.0099 42.9457 24.1299C42.7057 24.1699 42.4457 24.1999 42.1657 24.2199C41.9057 24.2599 41.6657 24.2799 41.4457 24.2799C41.0457 24.2799 40.7457 24.1799 40.5457 23.9799C40.3457 23.7799 40.2457 23.5199 40.2457 23.1999ZM46.3657 2.25994C46.5457 2.17994 46.7557 2.12994 46.9957 2.10994C47.2557 2.08994 47.4957 2.10994 47.7157 2.16994C47.9357 2.22994 48.1257 2.33994 48.2857 2.49994C48.4457 2.65994 48.5357 2.86994 48.5557 3.12994C48.5957 3.72994 48.3257 4.07994 47.7457 4.17994C47.5057 4.21994 47.2357 4.23994 46.9357 4.23994C46.6357 4.21994 46.3757 4.18994 46.1557 4.14994C46.0557 4.12994 45.9657 4.11994 45.8857 4.11994C45.8057 4.11994 45.7457 4.11994 45.7057 4.11994C45.5657 4.11994 45.4957 4.18994 45.4957 4.32994C45.4957 4.90994 45.4857 5.48994 45.4657 6.06994C45.4457 6.64994 45.4157 7.22994 45.3757 7.80994C45.3357 8.38994 45.2957 9.04994 45.2557 9.78994C45.2357 10.5099 45.2257 11.1599 45.2257 11.7399C45.2257 11.8399 45.3057 11.9099 45.4657 11.9499C45.6457 11.9699 45.9457 11.9899 46.3657 12.0099C46.6457 12.0299 46.9457 12.0599 47.2657 12.0999C47.5857 12.1399 47.8357 12.1899 48.0157 12.2499C48.2957 12.3499 48.5257 12.5199 48.7057 12.7599C48.9057 12.9999 48.9057 13.2899 48.7057 13.6299C48.6057 13.7699 48.4757 13.8599 48.3157 13.8999C48.1757 13.9199 48.0457 13.9299 47.9257 13.9299H47.7457C46.7257 13.8099 45.6357 13.7299 44.4757 13.6899C43.3157 13.6299 42.1357 13.5999 40.9357 13.5999C40.0957 13.5999 39.2857 13.6099 38.5057 13.6299C37.7257 13.6499 37.0157 13.6699 36.3757 13.6899C36.1957 13.6899 36.0157 13.6799 35.8357 13.6599C35.6557 13.6399 35.4957 13.5899 35.3557 13.5099C35.2157 13.4299 35.1057 13.3099 35.0257 13.1499C34.9457 12.9899 34.9157 12.7699 34.9357 12.4899C34.9557 12.2699 35.0557 12.0999 35.2357 11.9799C35.4157 11.8599 35.6357 11.7999 35.8957 11.7999C35.9757 11.7999 36.0657 11.7999 36.1657 11.7999C36.2657 11.7999 36.4057 11.7899 36.5857 11.7699C36.7657 11.7699 36.9857 11.7699 37.2457 11.7699C37.5057 11.7499 37.8657 11.7299 38.3257 11.7099L38.6557 7.44994L38.8957 4.32994C38.7557 4.32994 38.6257 4.33994 38.5057 4.35994C38.3857 4.35994 38.2457 4.36994 38.0857 4.38994C37.9257 4.40994 37.7557 4.42994 37.5757 4.44994C37.4157 4.46994 37.2457 4.47994 37.0657 4.47994C36.4457 4.47994 36.0257 4.36994 35.8057 4.14994C35.6457 3.94994 35.5857 3.69994 35.6257 3.39994C35.6657 3.09994 35.7857 2.86994 35.9857 2.70994C36.1657 2.58994 36.4857 2.51994 36.9457 2.49994C37.1457 2.47994 37.3857 2.46994 37.6657 2.46994C37.9657 2.46994 38.2857 2.45994 38.6257 2.43994C38.8457 2.43994 39.0957 2.43994 39.3757 2.43994C39.6557 2.41994 39.9557 2.39994 40.2757 2.37994C40.7757 2.35994 41.3157 2.33994 41.8957 2.31994C42.4757 2.29994 43.0257 2.28994 43.5457 2.28994C44.0657 2.26994 44.5257 2.25994 44.9257 2.25994C45.3257 2.25994 45.5857 2.25994 45.7057 2.25994H46.3657ZM42.0157 17.6499C42.0757 18.4299 42.1557 19.2099 42.2557 19.9899C42.3557 20.7499 42.4757 21.5099 42.6157 22.2699C43.1557 22.2299 43.7657 22.1799 44.4457 22.1199C45.1457 22.0799 45.8657 22.0399 46.6057 21.9999C47.3657 21.9399 48.1357 21.8999 48.9157 21.8799C49.6957 21.8399 50.4657 21.8199 51.2257 21.8199C51.6057 21.8199 51.8257 21.7899 51.8857 21.7299C51.9657 21.6699 52.0057 21.4699 52.0057 21.1299C52.0057 20.9299 52.0057 20.6899 52.0057 20.4099C52.0057 20.1299 52.0057 19.8399 52.0057 19.5399C52.0257 19.2399 52.0357 18.9599 52.0357 18.6999C52.0357 18.4199 52.0357 18.1899 52.0357 18.0099C52.0357 17.7099 51.9957 17.5299 51.9157 17.4699C51.8357 17.3899 51.6357 17.3399 51.3157 17.3199C49.8757 17.2599 48.3857 17.2699 46.8457 17.3499C45.3257 17.4299 43.7157 17.5299 42.0157 17.6499ZM57.1957 8.25994C57.0157 8.23994 56.7557 8.23994 56.4157 8.25994C56.0957 8.25994 55.7557 8.26994 55.3957 8.28994C55.0557 8.30994 54.7257 8.32994 54.4057 8.34994C54.0857 8.36994 53.8257 8.37994 53.6257 8.37994C53.6257 8.49994 53.6257 8.67994 53.6257 8.91994C53.6257 9.15994 53.6257 9.42994 53.6257 9.72994C53.6457 10.0299 53.6557 10.3399 53.6557 10.6599C53.6557 10.9599 53.6557 11.2299 53.6557 11.4699C53.6557 11.6499 53.6657 11.8899 53.6857 12.1899C53.7257 12.4699 53.7457 12.7199 53.7457 12.9399C53.7457 13.3399 53.6457 13.6899 53.4457 13.9899C53.2457 14.2699 52.9857 14.4099 52.6657 14.4099C52.2657 14.4099 51.9557 14.3099 51.7357 14.1099C51.5357 13.9099 51.4357 13.6799 51.4357 13.4199C51.4357 12.8799 51.4257 12.1599 51.4057 11.2599C51.3857 10.3599 51.3657 9.39994 51.3457 8.37994C51.3457 7.35994 51.3357 6.34994 51.3157 5.34994C51.2957 4.34994 51.2857 3.46994 51.2857 2.70994C51.2857 2.36994 51.4057 2.11994 51.6457 1.95994C51.8857 1.77994 52.1457 1.68994 52.4257 1.68994C52.7057 1.68994 52.9457 1.77994 53.1457 1.95994C53.3657 2.11994 53.4857 2.37994 53.5057 2.73994C53.5457 3.27994 53.5657 3.81994 53.5657 4.35994C53.5657 4.87994 53.5657 5.58994 53.5657 6.48994C54.2057 6.42994 54.8757 6.35994 55.5757 6.27994C56.2957 6.19994 56.9557 6.20994 57.5557 6.30994C57.7957 6.34994 57.9757 6.47994 58.0957 6.69994C58.2357 6.91994 58.3057 7.13994 58.3057 7.35994C58.3057 7.59994 58.2057 7.82994 58.0057 8.04994C57.8257 8.24994 57.5557 8.31994 57.1957 8.25994ZM43.3657 6.93994C43.3657 6.05994 43.3057 5.13994 43.1857 4.17994C43.1257 4.15994 43.0257 4.14994 42.8857 4.14994C42.7457 4.12994 42.5757 4.11994 42.3757 4.11994C42.1957 4.11994 41.9957 4.12994 41.7757 4.14994C41.5557 4.16994 41.3557 4.18994 41.1757 4.20994C41.0157 5.34994 40.8757 6.53994 40.7557 7.77994C40.6357 9.01994 40.5757 10.1499 40.5757 11.1699C40.5757 11.4699 40.6057 11.6499 40.6657 11.7099C40.7457 11.7699 40.8957 11.7999 41.1157 11.7999H42.9757C43.0757 11.7199 43.1257 11.6199 43.1257 11.4999L43.2157 10.3299C43.2557 9.80994 43.2857 9.24994 43.3057 8.64994C43.3457 8.02994 43.3657 7.45994 43.3657 6.93994Z" fill="black"/>
<path d="M17.5928 23.3499C17.5328 22.7699 17.7028 22.2699 18.1028 21.8499C18.5028 21.4099 19.0228 21.1899 19.6628 21.1899C19.9028 21.1899 20.1428 21.2399 20.3828 21.3399C20.6428 21.4399 20.8728 21.5799 21.0728 21.7599C21.2728 21.9199 21.4328 22.1099 21.5528 22.3299C21.6928 22.5699 21.7628 22.8199 21.7628 23.0799C21.7628 23.3399 21.7128 23.5899 21.6128 23.8299C21.5128 24.0899 21.3728 24.3199 21.1928 24.5199C21.0328 24.7199 20.8328 24.8799 20.5928 24.9999C20.3728 25.1399 20.1328 25.2099 19.8728 25.2099C19.2928 25.2299 18.7828 25.0699 18.3428 24.7299C17.9028 24.3899 17.6528 23.9299 17.5928 23.3499Z" fill="black"/>
<path d="M3.45594 5.13994C2.97594 5.15994 2.58594 5.09994 2.28594 4.95994C1.98594 4.79994 1.82594 4.54994 1.80594 4.20994C1.78594 3.84994 1.92594 3.57994 2.22594 3.39994C2.52594 3.19994 2.89594 3.08994 3.33594 3.06994C3.75594 3.04994 4.20594 3.05994 4.68594 3.09994C5.18594 3.11994 5.68594 3.17994 6.18594 3.27994C6.70594 3.37994 7.20594 3.51994 7.68594 3.69994C8.16594 3.85994 8.60594 4.05994 9.00594 4.29994C10.1059 4.93994 10.9559 5.80994 11.5559 6.90994C12.1559 7.98994 12.4359 9.24994 12.3959 10.6899C12.3559 12.0699 12.0659 13.2499 11.5259 14.2299C10.9859 15.2099 10.2359 16.1399 9.27594 17.0199C8.97594 17.2799 8.62594 17.5499 8.22594 17.8299C7.84594 18.0899 7.43594 18.3499 6.99594 18.6099C6.57594 18.8499 6.14594 19.0799 5.70594 19.2999C5.26594 19.4999 4.85594 19.6699 4.47594 19.8099C5.21594 19.6699 6.02594 19.5599 6.90594 19.4799C7.78594 19.3999 8.68594 19.3499 9.60594 19.3299C10.5459 19.3099 11.4659 19.3099 12.3659 19.3299C13.2859 19.3499 14.1359 19.3899 14.9159 19.4499C15.3959 19.4899 15.7559 19.5899 15.9959 19.7499C16.2359 19.8899 16.3559 20.1299 16.3559 20.4699C16.3559 21.1699 15.8859 21.5199 14.9459 21.5199C14.6059 21.5199 14.2759 21.4799 13.9559 21.3999C13.6559 21.3199 13.4159 21.2799 13.2359 21.2799C11.5559 21.2399 10.0959 21.2399 8.85594 21.2799C7.63594 21.3199 6.50594 21.3899 5.46594 21.4899C5.20594 21.5299 4.89594 21.5699 4.53594 21.6099C4.17594 21.6499 3.80594 21.6899 3.42594 21.7299C3.06594 21.7499 2.71594 21.7699 2.37594 21.7899C2.05594 21.8099 1.79594 21.8199 1.59594 21.8199C1.21594 21.8199 0.905937 21.7299 0.665937 21.5499C0.445937 21.3699 0.335938 21.1099 0.335938 20.7699C0.335938 20.0899 0.875937 19.5399 1.95594 19.1199C2.97594 18.7199 3.94594 18.2499 4.86594 17.7099C5.80594 17.1499 6.67594 16.5199 7.47594 15.8199C8.33594 15.0599 9.01594 14.2399 9.51594 13.3599C10.0159 12.4599 10.2459 11.4699 10.2059 10.3899C10.1659 9.36994 9.93594 8.50994 9.51594 7.80994C9.09594 7.10994 8.53594 6.55994 7.83594 6.15994C7.17594 5.77994 6.46594 5.50994 5.70594 5.34994C4.96594 5.18994 4.21594 5.11994 3.45594 5.13994Z" fill="black"/>
</svg>
