<svg width="264" height="28" viewBox="0 0 264 28" fill="none" xmlns="http://www.w3.org/2000/svg">
<path d="M260.597 1.81008C260.597 0.990078 260.967 0.580078 261.707 0.580078C261.987 0.580078 262.227 0.680078 262.427 0.880078C262.647 1.06008 262.767 1.30008 262.787 1.60008C262.827 2.64008 262.807 3.74008 262.727 4.90008C262.667 6.06008 262.597 7.09008 262.517 7.99008C262.477 8.45008 262.437 9.11008 262.397 9.97008C262.377 10.8101 262.347 11.7201 262.307 12.7001C262.287 13.6801 262.267 14.6501 262.247 15.6101C262.227 16.5501 262.217 17.3501 262.217 18.0101C262.217 18.3701 262.157 18.7001 262.037 19.0001C261.917 19.2801 261.677 19.4401 261.317 19.4801C260.917 19.4801 260.617 19.3601 260.417 19.1201C260.217 18.8601 260.097 18.5001 260.057 18.0401C260.017 17.4201 259.997 16.6301 259.997 15.6701C259.997 14.7101 260.007 13.7301 260.027 12.7301C260.047 11.7101 260.077 10.7501 260.117 9.85008C260.157 8.93008 260.207 8.21008 260.267 7.69008C260.307 7.27008 260.347 6.80008 260.387 6.28008C260.427 5.76008 260.457 5.24008 260.477 4.72008C260.517 4.18008 260.547 3.66008 260.567 3.16008C260.587 2.66008 260.597 2.21008 260.597 1.81008ZM259.157 23.3501C259.097 22.7701 259.267 22.2701 259.667 21.8501C260.067 21.4101 260.587 21.1901 261.227 21.1901C261.467 21.1901 261.707 21.2401 261.947 21.3401C262.207 21.4401 262.437 21.5801 262.637 21.7601C262.837 21.9201 262.997 22.1101 263.117 22.3301C263.257 22.5701 263.327 22.8201 263.327 23.0801C263.327 23.3401 263.277 23.5901 263.177 23.8301C263.077 24.0901 262.937 24.3201 262.757 24.5201C262.597 24.7201 262.397 24.8801 262.157 25.0001C261.937 25.1401 261.697 25.2101 261.437 25.2101C260.857 25.2301 260.347 25.0701 259.907 24.7301C259.467 24.3901 259.217 23.9301 259.157 23.3501Z" fill="black"/>
<path d="M238.297 23.2001C238.297 22.8601 238.417 22.6001 238.657 22.4201C238.557 21.9601 238.437 21.5101 238.297 21.0701C238.177 20.6101 238.087 20.1301 238.027 19.6301C237.987 19.3901 237.947 19.1501 237.907 18.9101C237.887 18.6501 237.857 18.4001 237.817 18.1601C237.797 17.9201 237.777 17.7101 237.757 17.5301C237.737 17.3301 237.727 17.1801 237.727 17.0801C237.767 16.7601 237.867 16.4801 238.027 16.2401C238.207 15.9801 238.527 15.8301 238.987 15.7901C239.607 15.7301 240.427 15.6801 241.447 15.6401C242.467 15.5801 243.537 15.5401 244.657 15.5201C245.797 15.4801 246.917 15.4601 248.017 15.4601C249.137 15.4401 250.097 15.4401 250.897 15.4601C251.717 15.5001 252.127 15.9601 252.127 16.8401C252.127 17.2001 252.127 17.6001 252.127 18.0401C252.127 18.4601 252.117 18.9001 252.097 19.3601C252.097 19.8001 252.097 20.2301 252.097 20.6501C252.097 21.0701 252.097 21.4401 252.097 21.7601C252.097 22.2001 252.077 22.5501 252.037 22.8101C252.017 23.0701 251.937 23.2601 251.797 23.3801C251.677 23.5201 251.487 23.6001 251.227 23.6201C250.967 23.6601 250.607 23.6801 250.147 23.6801C248.447 23.7201 246.797 23.7701 245.197 23.8301C243.597 23.9101 242.197 24.0101 240.997 24.1301C240.757 24.1701 240.497 24.2001 240.217 24.2201C239.957 24.2601 239.717 24.2801 239.497 24.2801C239.097 24.2801 238.797 24.1801 238.597 23.9801C238.397 23.7801 238.297 23.5201 238.297 23.2001ZM244.417 2.26006C244.597 2.18006 244.807 2.13006 245.047 2.11006C245.307 2.09006 245.547 2.11006 245.767 2.17006C245.987 2.23006 246.177 2.34006 246.337 2.50006C246.497 2.66006 246.587 2.87006 246.607 3.13006C246.647 3.73006 246.377 4.08006 245.797 4.18006C245.557 4.22006 245.287 4.24006 244.987 4.24006C244.687 4.22006 244.427 4.19006 244.207 4.15006C244.107 4.13006 244.017 4.12006 243.937 4.12006C243.857 4.12006 243.797 4.12006 243.757 4.12006C243.617 4.12006 243.547 4.19006 243.547 4.33006C243.547 4.91006 243.537 5.49006 243.517 6.07006C243.497 6.65006 243.467 7.23006 243.427 7.81006C243.387 8.39006 243.347 9.05006 243.307 9.79006C243.287 10.5101 243.277 11.1601 243.277 11.7401C243.277 11.8401 243.357 11.9101 243.517 11.9501C243.697 11.9701 243.997 11.9901 244.417 12.0101C244.697 12.0301 244.997 12.0601 245.317 12.1001C245.637 12.1401 245.887 12.1901 246.067 12.2501C246.347 12.3501 246.577 12.5201 246.757 12.7601C246.957 13.0001 246.957 13.2901 246.757 13.6301C246.657 13.7701 246.527 13.8601 246.367 13.9001C246.227 13.9201 246.097 13.9301 245.977 13.9301H245.797C244.777 13.8101 243.687 13.7301 242.527 13.6901C241.367 13.6301 240.187 13.6001 238.987 13.6001C238.147 13.6001 237.337 13.6101 236.557 13.6301C235.777 13.6501 235.067 13.6701 234.427 13.6901C234.247 13.6901 234.067 13.6801 233.887 13.6601C233.707 13.6401 233.547 13.5901 233.407 13.5101C233.267 13.4301 233.157 13.3101 233.077 13.1501C232.997 12.9901 232.967 12.7701 232.987 12.4901C233.007 12.2701 233.107 12.1001 233.287 11.9801C233.467 11.8601 233.687 11.8001 233.947 11.8001C234.027 11.8001 234.117 11.8001 234.217 11.8001C234.317 11.8001 234.457 11.7901 234.637 11.7701C234.817 11.7701 235.037 11.7701 235.297 11.7701C235.557 11.7501 235.917 11.7301 236.377 11.7101L236.707 7.45006L236.947 4.33006C236.807 4.33006 236.677 4.34006 236.557 4.36006C236.437 4.36006 236.297 4.37006 236.137 4.39006C235.977 4.41006 235.807 4.43006 235.627 4.45006C235.467 4.47006 235.297 4.48006 235.117 4.48006C234.497 4.48006 234.077 4.37006 233.857 4.15006C233.697 3.95006 233.637 3.70006 233.677 3.40006C233.717 3.10006 233.837 2.87006 234.037 2.71006C234.217 2.59006 234.537 2.52006 234.997 2.50006C235.197 2.48006 235.437 2.47006 235.717 2.47006C236.017 2.47006 236.337 2.46006 236.677 2.44006C236.897 2.44006 237.147 2.44006 237.427 2.44006C237.707 2.42006 238.007 2.40006 238.327 2.38006C238.827 2.36006 239.367 2.34006 239.947 2.32006C240.527 2.30006 241.077 2.29006 241.597 2.29006C242.117 2.27006 242.577 2.26006 242.977 2.26006C243.377 2.26006 243.637 2.26006 243.757 2.26006H244.417ZM240.067 17.6501C240.127 18.4301 240.207 19.2101 240.307 19.9901C240.407 20.7501 240.527 21.5101 240.667 22.2701C241.207 22.2301 241.817 22.1801 242.497 22.1201C243.197 22.0801 243.917 22.0401 244.657 22.0001C245.417 21.9401 246.187 21.9001 246.967 21.8801C247.747 21.8401 248.517 21.8201 249.277 21.8201C249.657 21.8201 249.877 21.7901 249.937 21.7301C250.017 21.6701 250.057 21.4701 250.057 21.1301C250.057 20.9301 250.057 20.6901 250.057 20.4101C250.057 20.1301 250.057 19.8401 250.057 19.5401C250.077 19.2401 250.087 18.9601 250.087 18.7001C250.087 18.4201 250.087 18.1901 250.087 18.0101C250.087 17.7101 250.047 17.5301 249.967 17.4701C249.887 17.3901 249.687 17.3401 249.367 17.3201C247.927 17.2601 246.437 17.2701 244.897 17.3501C243.377 17.4301 241.767 17.5301 240.067 17.6501ZM255.247 8.26006C255.067 8.24006 254.807 8.24006 254.467 8.26006C254.147 8.26006 253.807 8.27006 253.447 8.29006C253.107 8.31006 252.777 8.33006 252.457 8.35006C252.137 8.37006 251.877 8.38006 251.677 8.38006C251.677 8.50006 251.677 8.68006 251.677 8.92006C251.677 9.16006 251.677 9.43006 251.677 9.73006C251.697 10.0301 251.707 10.3401 251.707 10.6601C251.707 10.9601 251.707 11.2301 251.707 11.4701C251.707 11.6501 251.717 11.8901 251.737 12.1901C251.777 12.4701 251.797 12.7201 251.797 12.9401C251.797 13.3401 251.697 13.6901 251.497 13.9901C251.297 14.2701 251.037 14.4101 250.717 14.4101C250.317 14.4101 250.007 14.3101 249.787 14.1101C249.587 13.9101 249.487 13.6801 249.487 13.4201C249.487 12.8801 249.477 12.1601 249.457 11.2601C249.437 10.3601 249.417 9.40006 249.397 8.38006C249.397 7.36006 249.387 6.35006 249.367 5.35006C249.347 4.35006 249.337 3.47006 249.337 2.71006C249.337 2.37006 249.457 2.12006 249.697 1.96006C249.937 1.78006 250.197 1.69006 250.477 1.69006C250.757 1.69006 250.997 1.78006 251.197 1.96006C251.417 2.12006 251.537 2.38006 251.557 2.74006C251.597 3.28006 251.617 3.82006 251.617 4.36006C251.617 4.88006 251.617 5.59006 251.617 6.49006C252.257 6.43006 252.927 6.36006 253.627 6.28006C254.347 6.20006 255.007 6.21006 255.607 6.31006C255.847 6.35006 256.027 6.48006 256.147 6.70006C256.287 6.92006 256.357 7.14006 256.357 7.36006C256.357 7.60006 256.257 7.83006 256.057 8.05006C255.877 8.25006 255.607 8.32006 255.247 8.26006ZM241.417 6.94006C241.417 6.06006 241.357 5.14006 241.237 4.18006C241.177 4.16006 241.077 4.15006 240.937 4.15006C240.797 4.13006 240.627 4.12006 240.427 4.12006C240.247 4.12006 240.047 4.13006 239.827 4.15006C239.607 4.17006 239.407 4.19006 239.227 4.21006C239.067 5.35006 238.927 6.54006 238.807 7.78006C238.687 9.02006 238.627 10.1501 238.627 11.1701C238.627 11.4701 238.657 11.6501 238.717 11.7101C238.797 11.7701 238.947 11.8001 239.167 11.8001H241.027C241.127 11.7201 241.177 11.6201 241.177 11.5001L241.267 10.3301C241.307 9.81006 241.337 9.25006 241.357 8.65006C241.397 8.03006 241.417 7.46006 241.417 6.94006Z" fill="black"/>
<path d="M207.733 15.91C207.853 15.25 208.093 14.64 208.453 14.08C208.813 13.52 209.263 13.02 209.803 12.58C210.363 12.12 210.993 11.74 211.693 11.44C212.393 11.12 213.143 10.89 213.943 10.75C213.943 10.57 214.083 10.43 214.363 10.33C214.643 10.21 214.933 10.14 215.233 10.12C215.713 10.08 216.203 10.13 216.703 10.27C217.223 10.41 217.713 10.59 218.173 10.81C219.093 11.23 219.823 11.86 220.363 12.7C220.903 13.52 221.153 14.47 221.113 15.55C221.053 16.83 220.783 17.89 220.303 18.73C219.823 19.55 219.213 20.21 218.473 20.71C217.753 21.19 216.943 21.53 216.043 21.73C215.143 21.93 214.243 22.04 213.343 22.06C212.503 22.1 211.733 22.01 211.033 21.79C210.353 21.57 209.753 21.25 209.233 20.83C208.733 20.39 208.343 19.86 208.063 19.24C207.783 18.62 207.643 17.92 207.643 17.14C207.643 16.72 207.673 16.31 207.733 15.91ZM227.983 20.83C227.983 19.51 227.993 18.2 228.013 16.9C228.033 15.6 228.053 14.23 228.073 12.79C227.493 12.73 226.923 12.71 226.363 12.73C225.803 12.75 225.233 12.79 224.653 12.85C224.633 13.05 224.613 13.25 224.593 13.45C224.593 13.63 224.593 13.79 224.593 13.93C224.533 14.83 224.483 15.72 224.443 16.6C224.403 17.46 224.383 18.34 224.383 19.24C224.483 19.44 224.563 19.67 224.623 19.93C224.683 20.17 224.693 20.42 224.653 20.68C224.573 21.02 224.393 21.29 224.113 21.49C223.853 21.67 223.523 21.74 223.123 21.7C222.603 21.7 222.293 21.56 222.193 21.28C222.093 20.98 222.063 20.65 222.103 20.29L222.253 18.67C222.313 18.03 222.343 17.22 222.343 16.24C222.363 15.26 222.393 14.3 222.433 13.36C222.473 12.26 222.553 11.09 222.673 9.85004C222.813 8.61004 222.843 7.21004 222.763 5.65004C222.723 5.13004 222.833 4.81004 223.093 4.69004C223.353 4.55004 223.603 4.48004 223.843 4.48004C224.123 4.48004 224.373 4.58004 224.593 4.78004C224.813 4.96004 224.943 5.28004 224.983 5.74004C225.003 6.00004 225.013 6.32004 225.013 6.70004C225.013 7.08004 225.003 7.50004 224.983 7.96004C224.963 8.40004 224.933 8.86004 224.893 9.34004C224.873 9.82004 224.853 10.3 224.833 10.78C225.373 10.72 225.913 10.69 226.453 10.69C226.733 10.69 227.013 10.7 227.293 10.72C227.573 10.72 227.843 10.73 228.103 10.75C228.103 9.85004 228.093 8.90004 228.073 7.90004C228.073 6.90004 228.063 6.03004 228.043 5.29004C228.023 4.89004 228.123 4.58004 228.343 4.36004C228.583 4.14004 228.893 4.03004 229.273 4.03004C229.993 4.03004 230.353 4.42004 230.353 5.20004C230.373 7.06004 230.383 8.70004 230.383 10.12C230.383 11.54 230.373 12.84 230.353 14.02C230.333 15.18 230.303 16.27 230.263 17.29C230.243 18.31 230.213 19.35 230.173 20.41C230.193 20.69 230.203 20.96 230.203 21.22C230.223 21.48 230.213 21.75 230.173 22.03C230.153 22.21 230.133 22.38 230.113 22.54C230.093 22.72 230.043 22.87 229.963 22.99C229.903 23.13 229.803 23.23 229.663 23.29C229.523 23.37 229.323 23.4 229.063 23.38C228.203 23.34 227.713 22.96 227.593 22.24C227.593 21.98 227.633 21.74 227.713 21.52C227.793 21.28 227.883 21.05 227.983 20.83ZM209.863 16.39C209.743 16.97 209.743 17.49 209.863 17.95C210.003 18.41 210.233 18.8 210.553 19.12C210.893 19.44 211.313 19.68 211.813 19.84C212.313 20 212.863 20.07 213.463 20.05C214.103 20.03 214.743 19.95 215.383 19.81C216.023 19.65 216.603 19.4 217.123 19.06C217.643 18.7 218.073 18.23 218.413 17.65C218.753 17.07 218.943 16.34 218.983 15.46C219.003 15.14 218.943 14.82 218.803 14.5C218.683 14.18 218.513 13.89 218.293 13.63C218.073 13.37 217.813 13.15 217.513 12.97C217.213 12.79 216.903 12.67 216.583 12.61C216.483 12.77 216.313 12.87 216.073 12.91C215.833 12.95 215.563 12.97 215.263 12.97C214.983 12.97 214.703 12.96 214.423 12.94C214.143 12.92 213.913 12.93 213.733 12.97C212.553 13.25 211.653 13.71 211.033 14.35C210.413 14.99 210.023 15.67 209.863 16.39ZM207.523 8.38004C207.183 8.36004 206.923 8.24004 206.743 8.02004C206.563 7.80004 206.473 7.55004 206.473 7.27004C206.493 6.99004 206.593 6.77004 206.773 6.61004C206.953 6.45004 207.223 6.39004 207.583 6.43004C209.083 6.35004 210.683 6.37004 212.383 6.49004C214.083 6.59004 215.693 6.74004 217.213 6.94004C217.713 7.00004 218.103 7.14004 218.383 7.36004C218.663 7.58004 218.793 7.87004 218.773 8.23004C218.733 8.45004 218.603 8.68004 218.383 8.92004C218.183 9.14004 217.913 9.24004 217.573 9.22004C217.393 9.20004 217.213 9.19004 217.033 9.19004C216.853 9.19004 216.683 9.17004 216.523 9.13004C215.823 8.95004 215.093 8.82004 214.333 8.74004C213.593 8.64004 212.833 8.57004 212.053 8.53004C211.293 8.47004 210.523 8.44004 209.743 8.44004C208.983 8.42004 208.243 8.40004 207.523 8.38004ZM208.693 4.24004C208.353 4.22004 208.083 4.10004 207.883 3.88004C207.683 3.66004 207.583 3.41004 207.583 3.13004C207.583 2.85004 207.673 2.62004 207.853 2.44004C208.033 2.26004 208.323 2.17004 208.723 2.17004C208.843 2.17004 208.963 2.19004 209.083 2.23004C209.203 2.27004 209.333 2.29004 209.473 2.29004C210.233 2.29004 211.053 2.28004 211.933 2.26004C212.833 2.24004 213.663 2.25004 214.423 2.29004C214.543 2.29004 214.693 2.30004 214.873 2.32004C215.053 2.34004 215.213 2.35004 215.353 2.35004C215.473 2.35004 215.613 2.35004 215.773 2.35004C215.953 2.35004 216.113 2.35004 216.253 2.35004C216.413 2.35004 216.533 2.35004 216.613 2.35004C216.713 2.33004 216.763 2.32004 216.763 2.32004C217.203 2.36004 217.513 2.51004 217.693 2.77004C217.873 3.01004 217.943 3.30004 217.903 3.64004C217.803 4.46004 217.333 4.85004 216.493 4.81004C216.333 4.81004 216.133 4.77004 215.893 4.69004C215.653 4.59004 215.413 4.48004 215.173 4.36004C214.893 4.34004 214.553 4.32004 214.153 4.30004C213.773 4.28004 213.363 4.27004 212.923 4.27004C212.503 4.25004 212.073 4.24004 211.633 4.24004C211.213 4.24004 210.823 4.24004 210.463 4.24004H208.693Z" fill="black"/>
<path d="M190.188 1.54008C191.128 1.52008 192.048 1.49008 192.948 1.45008C193.848 1.39008 194.888 1.32008 196.068 1.24008C196.408 1.20008 196.758 1.17008 197.118 1.15008C197.478 1.13008 197.748 1.11008 197.928 1.09008C198.368 1.07008 198.708 1.11008 198.948 1.21008C199.188 1.31008 199.358 1.58008 199.458 2.02008C199.498 2.24008 199.528 2.53008 199.548 2.89008C199.588 3.23008 199.608 3.60008 199.608 4.00008C199.628 4.38008 199.638 4.77008 199.638 5.17008C199.638 5.55008 199.628 5.89008 199.608 6.19008C199.588 6.63008 199.478 6.95008 199.278 7.15008C199.098 7.35008 198.778 7.47008 198.318 7.51008C198.198 7.53008 198.058 7.54008 197.898 7.54008C197.738 7.54008 197.548 7.54008 197.328 7.54008C196.788 7.54008 196.278 7.55008 195.798 7.57008C195.338 7.57008 194.878 7.58008 194.418 7.60008C193.958 7.60008 193.498 7.61008 193.038 7.63008C192.578 7.63008 192.078 7.63008 191.538 7.63008C191.458 7.85008 191.398 8.13008 191.358 8.47008C191.318 8.81008 191.288 9.10008 191.268 9.34008C191.248 9.62008 191.268 9.81008 191.328 9.91008C191.388 9.99008 191.558 10.0401 191.838 10.0601C192.058 10.0801 192.318 10.1001 192.618 10.1201C192.918 10.1201 193.198 10.1201 193.458 10.1201C193.938 10.1201 194.328 10.1201 194.628 10.1201C194.928 10.1201 195.198 10.1301 195.438 10.1501C195.678 10.1501 195.918 10.1501 196.158 10.1501C196.398 10.1501 196.688 10.1501 197.028 10.1501C197.628 10.1501 198.138 10.1601 198.558 10.1801C198.978 10.1801 199.388 10.2101 199.788 10.2701C200.848 10.3701 201.368 10.7401 201.348 11.3801C201.308 11.7801 201.158 12.0401 200.898 12.1601C200.658 12.2801 200.358 12.3401 199.998 12.3401C199.698 12.3401 199.418 12.3201 199.158 12.2801C198.918 12.2201 198.738 12.1801 198.618 12.1601C198.298 12.1201 197.898 12.1001 197.418 12.1001C196.958 12.0801 196.468 12.0701 195.948 12.0701C195.988 12.4701 196.018 12.9201 196.038 13.4201C196.078 13.9001 196.108 14.3401 196.128 14.7401C196.628 14.7401 197.188 14.7501 197.808 14.7701C198.448 14.7701 199.068 14.7901 199.668 14.8301C200.288 14.8501 200.868 14.8801 201.408 14.9201C201.948 14.9401 202.388 14.9701 202.728 15.0101C203.528 15.0701 203.928 15.4201 203.928 16.0601C203.928 16.6601 203.498 16.9501 202.638 16.9301C202.458 16.9301 202.148 16.9201 201.708 16.9001C201.288 16.8601 200.798 16.8201 200.238 16.7801C199.678 16.7401 199.078 16.7001 198.438 16.6601C197.798 16.6201 197.178 16.5901 196.578 16.5701C195.918 16.5501 195.238 16.5401 194.538 16.5401C193.838 16.5201 193.168 16.5101 192.528 16.5101C191.888 16.5101 191.288 16.5201 190.728 16.5401C190.168 16.5401 189.698 16.5601 189.318 16.6001C189.078 16.6201 188.828 16.6701 188.568 16.7501C188.308 16.8301 188.038 16.8701 187.758 16.8701C187.438 16.8701 187.108 16.7901 186.768 16.6301C186.448 16.4501 186.288 16.1601 186.288 15.7601C186.288 15.4001 186.418 15.1401 186.678 14.9801C186.938 14.8201 187.298 14.7201 187.758 14.6801C188.058 14.6601 188.468 14.6501 188.988 14.6501C189.508 14.6501 190.058 14.6501 190.638 14.6501C191.238 14.6501 191.838 14.6601 192.438 14.6801C193.038 14.6801 193.588 14.6801 194.088 14.6801C194.068 14.3001 194.038 13.8801 193.998 13.4201C193.978 12.9601 193.968 12.5101 193.968 12.0701H193.908C193.388 12.0701 192.858 12.0701 192.318 12.0701C191.778 12.0501 191.308 12.0301 190.908 12.0101C190.268 11.9701 189.808 11.8201 189.528 11.5601C189.248 11.3001 189.118 10.8201 189.138 10.1201C189.158 9.56008 189.198 8.97008 189.258 8.35008C189.338 7.71008 189.438 7.14008 189.558 6.64008C189.638 6.24008 189.788 5.97008 190.008 5.83008C190.228 5.67008 190.568 5.58008 191.028 5.56008C191.988 5.54008 192.948 5.53008 193.908 5.53008C194.888 5.51008 195.928 5.48008 197.028 5.44008C197.408 5.44008 197.598 5.25008 197.598 4.87008C197.598 4.59008 197.588 4.34008 197.568 4.12008C197.548 3.88008 197.508 3.67008 197.448 3.49008C197.428 3.29008 197.308 3.19008 197.088 3.19008C196.668 3.23008 196.208 3.27008 195.708 3.31008C195.228 3.35008 194.768 3.39008 194.328 3.43008C193.688 3.47008 193.048 3.51008 192.408 3.55008C191.788 3.59008 191.118 3.59008 190.398 3.55008C189.938 3.55008 189.598 3.46008 189.378 3.28008C189.178 3.10008 189.048 2.86008 188.988 2.56008C188.968 2.28008 189.058 2.04008 189.258 1.84008C189.478 1.64008 189.788 1.54008 190.188 1.54008ZM200.298 24.3401C200.298 24.6801 200.328 24.9701 200.388 25.2101C200.448 25.4701 200.478 25.7401 200.478 26.0201C200.478 26.4401 200.398 26.7801 200.238 27.0401C200.098 27.3001 199.848 27.4401 199.488 27.4601C198.688 27.4801 198.258 26.9301 198.198 25.8101C198.178 25.4701 198.168 25.1301 198.168 24.7901C198.168 24.4501 198.168 23.9801 198.168 23.3801C198.168 23.1001 198.168 22.7501 198.168 22.3301C198.188 21.9301 198.198 21.5701 198.198 21.2501C198.198 21.0101 198.048 20.8901 197.748 20.8901H195.018C194.438 20.8901 193.728 20.8801 192.888 20.8601C192.048 20.8401 191.248 20.8001 190.488 20.7401C190.068 20.7001 189.758 20.5801 189.558 20.3801C189.358 20.1601 189.258 19.9101 189.258 19.6301C189.258 19.0301 189.658 18.7401 190.458 18.7601C191.418 18.8001 192.418 18.8301 193.458 18.8501C194.518 18.8701 195.678 18.8801 196.938 18.8801H198.798C199.258 18.8801 199.608 18.9401 199.848 19.0601C200.088 19.1801 200.238 19.4501 200.298 19.8701C200.318 20.1101 200.328 20.4301 200.328 20.8301C200.328 21.2101 200.328 21.6101 200.328 22.0301C200.328 22.4701 200.318 22.8901 200.298 23.2901C200.298 23.7101 200.298 24.0601 200.298 24.3401Z" fill="black"/>
<path d="M166.923 18.0701C167.403 17.4101 167.943 16.6401 168.543 15.7601C169.163 14.8801 169.793 13.9701 170.433 13.0301C171.093 12.0701 171.753 11.1201 172.413 10.1801C173.073 9.22006 173.693 8.34006 174.273 7.54006C173.133 7.48006 171.843 7.43006 170.403 7.39006C168.963 7.33006 167.363 7.22006 165.603 7.06006C165.103 7.02006 164.763 6.84006 164.583 6.52006C164.423 6.18006 164.393 5.84006 164.493 5.50006C164.573 5.28006 164.713 5.09006 164.913 4.93007C165.133 4.75007 165.413 4.68006 165.753 4.72006C165.993 4.74006 166.213 4.78006 166.413 4.84006C166.633 4.90006 166.863 4.94006 167.103 4.96006C168.483 5.10006 169.823 5.21006 171.123 5.29006C172.443 5.35006 173.743 5.40006 175.023 5.44006C175.503 5.44006 175.883 5.53006 176.163 5.71006C176.443 5.87006 176.633 6.10006 176.733 6.40006C176.853 6.68006 176.873 7.00006 176.793 7.36006C176.733 7.72006 176.583 8.08006 176.343 8.44006C175.743 9.40006 175.123 10.3601 174.483 11.3201C173.843 12.2601 173.223 13.1801 172.623 14.0801C172.023 14.9601 171.453 15.7901 170.913 16.5701C170.373 17.3301 169.883 18.0101 169.443 18.6101C169.383 18.8301 169.303 19.0701 169.203 19.3301C169.123 19.5901 168.973 19.8601 168.753 20.1401C168.393 20.5801 168.003 20.8401 167.583 20.9201C167.163 20.9801 166.783 20.8701 166.443 20.5901C166.083 20.2501 165.953 19.8601 166.053 19.4201C166.173 18.9601 166.463 18.5101 166.923 18.0701ZM183.723 21.6401C183.723 21.9801 183.643 22.2301 183.483 22.3901C183.323 22.5501 183.073 22.6701 182.733 22.7501C182.313 22.7901 181.983 22.7001 181.743 22.4801C181.523 22.2801 181.403 22.0101 181.383 21.6701C181.343 21.3901 181.333 21.1501 181.353 20.9501C181.373 20.7501 181.383 20.5401 181.383 20.3201C181.383 19.9201 181.373 19.3701 181.353 18.6701C181.333 17.9501 181.303 17.1601 181.263 16.3001C181.223 15.4401 181.173 14.5501 181.113 13.6301C181.073 12.6901 181.033 11.8001 180.993 10.9601C180.953 10.1201 180.913 9.36006 180.873 8.68006C180.833 7.98006 180.803 7.44006 180.783 7.06006C180.743 6.74006 180.703 6.42006 180.663 6.10006C180.623 5.78006 180.583 5.48006 180.543 5.20006C180.483 4.92006 180.523 4.65006 180.663 4.39006C180.803 4.13006 181.073 3.98006 181.473 3.94006C182.253 3.84006 182.713 4.22006 182.853 5.08006L183.093 6.58006C183.133 6.98006 183.173 7.54006 183.213 8.26006C183.253 8.96006 183.283 9.75006 183.303 10.6301C183.343 11.4901 183.383 12.4001 183.423 13.3601C183.463 14.3001 183.493 15.2101 183.513 16.0901C183.533 16.9701 183.543 17.7801 183.543 18.5201C183.563 19.2601 183.573 19.8601 183.573 20.3201C183.593 20.4801 183.613 20.7001 183.633 20.9801C183.653 21.2601 183.683 21.4801 183.723 21.6401Z" fill="black"/>
<path d="M142.38 16.6901C142.8 16.6901 143.18 16.6901 143.52 16.6901C143.86 16.6901 144.19 16.6901 144.51 16.6901C144.85 16.6901 145.19 16.6901 145.53 16.6901C145.89 16.6701 146.28 16.6401 146.7 16.6001C147.24 16.5601 147.64 16.6201 147.9 16.7801C148.16 16.9201 148.34 17.2501 148.44 17.7701C148.52 18.2901 148.56 18.7901 148.56 19.2701C148.56 19.7501 148.54 20.1901 148.5 20.5901C148.46 21.0501 148.42 21.4301 148.38 21.7301C148.34 22.0101 148.28 22.2301 148.2 22.3901C148.12 22.5701 148 22.6901 147.84 22.7501C147.7 22.8301 147.5 22.8801 147.24 22.9001H140.46C140.42 23.1001 140.39 23.3101 140.37 23.5301C140.35 23.7701 140.34 24.0101 140.34 24.2501C140.34 24.5701 140.36 24.7601 140.4 24.8201C140.46 24.9001 140.6 24.9501 140.82 24.9701C141.9 25.0501 143.02 25.0801 144.18 25.0601C145.36 25.0601 146.55 25.0301 147.75 24.9701C148.01 24.9501 148.33 24.9401 148.71 24.9401C149.11 24.9401 149.4 24.9401 149.58 24.9401C150.2 24.9401 150.66 25.0301 150.96 25.2101C151.26 25.3901 151.4 25.6901 151.38 26.1101C151.36 26.5301 151.2 26.8101 150.9 26.9501C150.6 27.1101 150.25 27.1701 149.85 27.1301C149.45 27.1101 148.83 27.0901 147.99 27.0701C147.15 27.0701 146.26 27.0601 145.32 27.0401C144.4 27.0401 143.51 27.0301 142.65 27.0101C141.81 27.0101 141.18 27.0001 140.76 26.9801C139.8 26.9401 139.12 26.7601 138.72 26.4401C138.34 26.1201 138.15 25.5701 138.15 24.7901C138.15 24.2101 138.16 23.7101 138.18 23.2901C138.22 22.8901 138.27 22.4901 138.33 22.0901C138.43 21.6701 138.58 21.3601 138.78 21.1601C139 20.9601 139.37 20.8501 139.89 20.8301C140.27 20.8101 140.72 20.8001 141.24 20.8001C141.78 20.7801 142.32 20.7701 142.86 20.7701C143.4 20.7701 143.92 20.7801 144.42 20.8001C144.92 20.8001 145.32 20.8001 145.62 20.8001C145.98 20.8001 146.21 20.7601 146.31 20.6801C146.43 20.5801 146.48 20.4001 146.46 20.1401C146.46 20.0001 146.46 19.7801 146.46 19.4801C146.48 19.1601 146.48 18.9201 146.46 18.7601C146.46 18.5601 146.3 18.4701 145.98 18.4901C145.62 18.5301 145.08 18.5601 144.36 18.5801C143.66 18.5801 142.92 18.5801 142.14 18.5801C141.36 18.5601 140.61 18.5401 139.89 18.5201C139.17 18.4801 138.62 18.4401 138.24 18.4001C137.72 18.3601 137.38 18.2601 137.22 18.1001C137.06 17.9401 136.98 17.6901 136.98 17.3501C136.98 17.0501 137.09 16.8201 137.31 16.6601C137.55 16.4801 137.9 16.4201 138.36 16.4801C138.84 16.5601 139.46 16.6201 140.22 16.6601C140.98 16.6801 141.7 16.6901 142.38 16.6901ZM139.23 1.54008C140.17 1.52008 141.09 1.49008 141.99 1.45008C142.89 1.39008 143.93 1.32008 145.11 1.24008C145.45 1.20008 145.8 1.17008 146.16 1.15008C146.52 1.13008 146.79 1.11008 146.97 1.09008C147.41 1.07008 147.75 1.11008 147.99 1.21008C148.23 1.31008 148.4 1.58008 148.5 2.02008C148.54 2.24008 148.57 2.53008 148.59 2.89008C148.63 3.23008 148.65 3.60008 148.65 4.00008C148.67 4.38008 148.68 4.77008 148.68 5.17008C148.68 5.55008 148.67 5.89008 148.65 6.19008C148.63 6.63008 148.52 6.95008 148.32 7.15008C148.14 7.35008 147.82 7.47008 147.36 7.51008C147.24 7.53008 147.1 7.54008 146.94 7.54008C146.78 7.54008 146.59 7.54008 146.37 7.54008C145.83 7.54008 145.32 7.55008 144.84 7.57008C144.38 7.57008 143.92 7.58008 143.46 7.60008C143 7.60008 142.54 7.61008 142.08 7.63008C141.62 7.63008 141.12 7.63008 140.58 7.63008C140.5 7.85008 140.44 8.13008 140.4 8.47008C140.36 8.81008 140.33 9.10008 140.31 9.34008C140.29 9.62008 140.31 9.81008 140.37 9.91008C140.43 9.99008 140.6 10.0401 140.88 10.0601C141.1 10.0801 141.36 10.1001 141.66 10.1201C141.96 10.1201 142.24 10.1201 142.5 10.1201C142.98 10.1201 143.37 10.1201 143.67 10.1201C143.97 10.1201 144.24 10.1301 144.48 10.1501C144.72 10.1501 144.96 10.1501 145.2 10.1501C145.44 10.1501 145.73 10.1501 146.07 10.1501C146.67 10.1501 147.18 10.1601 147.6 10.1801C148.02 10.1801 148.43 10.2101 148.83 10.2701C149.89 10.3701 150.41 10.7401 150.39 11.3801C150.35 11.7801 150.2 12.0401 149.94 12.1601C149.7 12.2801 149.4 12.3401 149.04 12.3401C148.74 12.3401 148.46 12.3201 148.2 12.2801C147.96 12.2201 147.78 12.1801 147.66 12.1601C147.4 12.1401 147.09 12.1201 146.73 12.1001C146.37 12.0801 145.98 12.0701 145.56 12.0701C145.14 12.0701 144.7 12.0701 144.24 12.0701C143.8 12.0701 143.37 12.0701 142.95 12.0701C142.43 12.0701 141.9 12.0701 141.36 12.0701C140.82 12.0501 140.35 12.0301 139.95 12.0101C139.31 11.9701 138.85 11.8201 138.57 11.5601C138.29 11.3001 138.16 10.8201 138.18 10.1201C138.2 9.56008 138.24 8.97008 138.3 8.35008C138.38 7.71008 138.48 7.14008 138.6 6.64008C138.68 6.24008 138.83 5.97008 139.05 5.83008C139.27 5.67008 139.61 5.58008 140.07 5.56008C141.03 5.54008 141.99 5.53008 142.95 5.53008C143.93 5.51008 144.97 5.48008 146.07 5.44008C146.45 5.44008 146.64 5.25008 146.64 4.87008C146.64 4.59008 146.63 4.34008 146.61 4.12008C146.59 3.88008 146.55 3.67008 146.49 3.49008C146.47 3.29008 146.35 3.19008 146.13 3.19008C145.71 3.23008 145.25 3.27008 144.75 3.31008C144.27 3.35008 143.81 3.39008 143.37 3.43008C142.73 3.47008 142.09 3.51008 141.45 3.55008C140.83 3.59008 140.16 3.59008 139.44 3.55008C138.98 3.55008 138.64 3.46008 138.42 3.28008C138.22 3.10008 138.09 2.86008 138.03 2.56008C138.01 2.28008 138.1 2.04008 138.3 1.84008C138.52 1.64008 138.83 1.54008 139.23 1.54008ZM144.72 13.1501C145.16 13.1501 145.73 13.1701 146.43 13.2101C147.15 13.2301 147.88 13.2601 148.62 13.3001C149.38 13.3201 150.1 13.3501 150.78 13.3901C151.46 13.4301 151.99 13.4601 152.37 13.4801C152.67 13.5201 152.92 13.6301 153.12 13.8101C153.34 13.9901 153.45 14.2301 153.45 14.5301C153.45 15.1101 153.06 15.3801 152.28 15.3401C152.1 15.3401 151.78 15.3301 151.32 15.3101C150.88 15.2901 150.37 15.2701 149.79 15.2501C149.23 15.2101 148.63 15.1701 147.99 15.1301C147.35 15.0901 146.74 15.0601 146.16 15.0401C145.52 15.0201 144.84 15.0101 144.12 15.0101C143.4 14.9901 142.69 14.9801 141.99 14.9801C141.31 14.9801 140.67 14.9901 140.07 15.0101C139.49 15.0101 139.01 15.0301 138.63 15.0701C138.41 15.0901 138.17 15.1301 137.91 15.1901C137.67 15.2501 137.42 15.2801 137.16 15.2801C136.88 15.2801 136.57 15.2001 136.23 15.0401C135.91 14.8601 135.76 14.5801 135.78 14.2001C135.78 13.8601 135.9 13.6201 136.14 13.4801C136.4 13.3401 136.74 13.2501 137.16 13.2101C137.52 13.1901 138.05 13.1801 138.75 13.1801C139.45 13.1601 140.18 13.1501 140.94 13.1501C141.7 13.1501 142.43 13.1501 143.13 13.1501C143.83 13.1501 144.36 13.1501 144.72 13.1501Z" fill="black"/>
<path d="M120.369 13.3001C119.869 14.4601 119.419 15.5401 119.019 16.5401C118.639 17.5201 118.269 18.3701 117.909 19.0901C117.869 19.3501 117.829 19.6201 117.789 19.9001C117.749 20.1601 117.639 20.4401 117.459 20.7401C117.159 21.2601 116.789 21.5901 116.349 21.7301C115.929 21.8701 115.529 21.8201 115.149 21.5801C114.449 21.1201 114.439 20.3401 115.119 19.2401C115.299 18.9001 115.489 18.5001 115.689 18.0401C115.889 17.5601 116.099 17.0701 116.319 16.5701C116.539 16.0501 116.759 15.5301 116.979 15.0101C117.199 14.4901 117.419 14.0001 117.639 13.5401C117.499 13.5601 117.359 13.5701 117.219 13.5701C117.099 13.5701 116.979 13.5701 116.859 13.5701C115.959 13.6101 115.179 13.6201 114.519 13.6001C113.879 13.5601 113.429 13.5201 113.169 13.4801C112.329 13.3801 111.939 12.9701 111.999 12.2501C112.039 11.8901 112.189 11.6401 112.449 11.5001C112.729 11.3601 113.079 11.3101 113.499 11.3501C113.839 11.3901 114.309 11.4201 114.909 11.4401C115.509 11.4401 116.229 11.4301 117.069 11.4101C117.249 11.4101 117.459 11.4101 117.699 11.4101C117.959 11.3901 118.229 11.3701 118.509 11.3501C118.729 10.8501 118.949 10.3301 119.169 9.79008C119.389 9.23008 119.589 8.72008 119.769 8.26008C120.009 7.68008 120.099 7.32008 120.039 7.18008C119.979 7.02008 119.679 6.93008 119.139 6.91008C118.179 6.87008 117.099 6.89008 115.899 6.97008C114.699 7.03008 113.429 7.15008 112.089 7.33008C111.649 7.39008 111.269 7.35008 110.949 7.21008C110.649 7.07008 110.479 6.81008 110.439 6.43008C110.399 6.05008 110.469 5.74008 110.649 5.50008C110.829 5.24008 111.129 5.07008 111.549 4.99008C111.769 4.95008 111.979 4.95008 112.179 4.99008C112.399 5.01008 112.639 5.00008 112.899 4.96008C114.299 4.76008 115.709 4.66008 117.129 4.66008C118.549 4.64008 119.919 4.68008 121.239 4.78008C122.079 4.86008 122.609 5.17008 122.829 5.71008C123.069 6.23008 122.989 6.95008 122.589 7.87008C122.349 8.43008 122.029 9.21008 121.629 10.2101C121.249 11.1901 120.829 12.2201 120.369 13.3001ZM133.329 12.7001C132.609 12.7401 131.869 12.7601 131.109 12.7601C130.349 12.7601 129.659 12.7401 129.039 12.7001C129.039 13.5201 129.029 14.5301 129.009 15.7301C129.009 16.9101 129.009 18.0701 129.009 19.2101C129.009 19.7501 129.019 20.2701 129.039 20.7701C129.079 21.2501 129.089 21.7801 129.069 22.3601C129.049 22.8601 128.919 23.2301 128.679 23.4701C128.439 23.7101 128.119 23.8301 127.719 23.8301C127.339 23.8301 127.039 23.7301 126.819 23.5301C126.599 23.3501 126.479 23.1201 126.459 22.8401C126.439 22.4001 126.499 21.9601 126.639 21.5201C126.639 21.0601 126.639 20.4601 126.639 19.7201C126.639 18.9801 126.629 18.2201 126.609 17.4401C126.609 16.6401 126.609 15.8801 126.609 15.1601C126.609 14.4201 126.609 13.8201 126.609 13.3601V4.78008C126.609 4.34008 126.729 4.01008 126.969 3.79008C127.209 3.57008 127.479 3.46008 127.779 3.46008C128.059 3.46008 128.319 3.58008 128.559 3.82008C128.819 4.04008 128.949 4.37008 128.949 4.81008C128.949 5.71008 128.929 6.65008 128.889 7.63008C128.869 8.59008 128.879 9.55008 128.919 10.5101C129.619 10.5301 130.329 10.5401 131.049 10.5401C131.789 10.5401 132.549 10.5201 133.329 10.4801C133.689 10.4601 133.979 10.5501 134.199 10.7501C134.439 10.9301 134.559 11.1901 134.559 11.5301C134.559 11.8301 134.459 12.0901 134.259 12.3101C134.059 12.5301 133.749 12.6601 133.329 12.7001Z" fill="black"/>
<path d="M87.7362 4.06003C88.0962 4.06003 88.6162 4.06003 89.2962 4.06003C89.9962 4.04003 90.7462 4.03003 91.5462 4.03003C92.3462 4.01003 93.1462 3.99003 93.9462 3.97003C94.7662 3.95003 95.4762 3.93003 96.0762 3.91003C96.6162 3.89003 97.0162 3.96003 97.2762 4.12003C97.5362 4.28003 97.7162 4.62003 97.8162 5.14003C97.8562 5.40003 97.8762 5.76003 97.8762 6.22003C97.8962 6.68003 97.9062 7.18003 97.9062 7.72003C97.9062 8.26003 97.9062 8.80003 97.9062 9.34003C97.9062 9.88003 97.9062 10.36 97.9062 10.78C97.9062 11.72 97.7662 12.35 97.4862 12.67C97.2062 12.97 96.8262 13.12 96.3462 13.12C96.2062 13.12 96.0462 13.11 95.8662 13.09C95.7062 13.07 95.5162 13.06 95.2962 13.06C94.5162 13.06 93.6962 13.05 92.8362 13.03C91.9962 13.01 91.1162 12.99 90.1962 12.97C89.9962 13.81 89.8562 14.68 89.7762 15.58C89.6962 16.48 89.6562 17.44 89.6562 18.46C89.6562 18.78 89.7262 18.99 89.8662 19.09C90.0062 19.19 90.1862 19.25 90.4062 19.27C90.6062 19.27 90.9862 19.28 91.5462 19.3C92.1262 19.3 92.7462 19.3 93.4062 19.3C94.0662 19.3 94.7062 19.3 95.3262 19.3C95.9462 19.28 96.4062 19.26 96.7062 19.24C97.3462 19.2 97.8162 19.26 98.1162 19.42C98.4362 19.56 98.5762 19.85 98.5362 20.29C98.5162 20.75 98.3762 21.06 98.1162 21.22C97.8562 21.38 97.5262 21.46 97.1262 21.46C96.7862 21.46 96.4862 21.44 96.2262 21.4C95.9862 21.36 95.7862 21.34 95.6262 21.34C95.4062 21.34 95.0162 21.34 94.4562 21.34C93.9162 21.34 93.3362 21.35 92.7162 21.37C92.0962 21.37 91.5062 21.37 90.9462 21.37C90.4062 21.37 90.0162 21.37 89.7762 21.37C88.8162 21.33 88.1362 21.14 87.7362 20.8C87.3362 20.44 87.1362 19.88 87.1362 19.12C87.1362 18.56 87.1462 17.97 87.1662 17.35C87.2062 16.71 87.2562 16.08 87.3162 15.46C87.3762 14.84 87.4462 14.25 87.5262 13.69C87.6062 13.11 87.6962 12.59 87.7962 12.13C87.8762 11.69 88.0262 11.35 88.2462 11.11C88.4862 10.87 88.8562 10.75 89.3562 10.75C89.5962 10.75 89.9562 10.76 90.4362 10.78C90.9162 10.78 91.4262 10.79 91.9662 10.81C92.5062 10.81 93.0162 10.82 93.4962 10.84C93.9962 10.84 94.3562 10.84 94.5762 10.84C94.9362 10.86 95.1762 10.85 95.2962 10.81C95.4362 10.77 95.5062 10.65 95.5062 10.45C95.5062 10.21 95.5062 9.89003 95.5062 9.49003C95.5262 9.07003 95.5362 8.65003 95.5362 8.23003C95.5362 7.81003 95.5262 7.42003 95.5062 7.06003C95.5062 6.70003 95.4962 6.45003 95.4762 6.31003C95.4362 6.13003 95.2862 6.04003 95.0262 6.04003C94.5462 6.06003 94.0062 6.09003 93.4062 6.13003C92.8262 6.15003 92.2162 6.18003 91.5762 6.22003C90.9362 6.24003 90.2862 6.26003 89.6262 6.28003C88.9862 6.28003 88.3762 6.27003 87.7962 6.25003C87.2762 6.23003 86.8962 6.12003 86.6562 5.92003C86.4362 5.70003 86.3262 5.42003 86.3262 5.08003C86.3262 4.76003 86.4462 4.51003 86.6862 4.33003C86.9462 4.13003 87.2962 4.04003 87.7362 4.06003ZM104.296 5.71003C104.316 6.19003 104.326 6.60003 104.326 6.94003C104.326 7.28003 104.326 7.61003 104.326 7.93003C104.326 8.23003 104.316 8.56003 104.296 8.92003C104.296 9.28003 104.296 9.71003 104.296 10.21C104.936 10.17 105.576 10.14 106.216 10.12C106.876 10.08 107.446 10.06 107.926 10.06C108.326 10.06 108.626 10.14 108.826 10.3C109.026 10.44 109.146 10.69 109.186 11.05C109.206 11.43 109.096 11.72 108.856 11.92C108.636 12.1 108.316 12.19 107.896 12.19C107.256 12.19 106.656 12.2 106.096 12.22C105.536 12.24 104.936 12.26 104.296 12.28C104.296 12.62 104.296 13.02 104.296 13.48C104.296 13.94 104.296 14.41 104.296 14.89C104.316 15.35 104.326 15.81 104.326 16.27C104.326 16.73 104.326 17.13 104.326 17.47C104.326 18.07 104.326 18.57 104.326 18.97C104.326 19.35 104.316 19.7 104.296 20.02C104.296 20.32 104.296 20.61 104.296 20.89C104.296 21.17 104.296 21.5 104.296 21.88C104.276 22.38 104.166 22.79 103.966 23.11C103.786 23.45 103.506 23.62 103.126 23.62C102.846 23.62 102.626 23.56 102.466 23.44C102.306 23.34 102.176 23.2 102.076 23.02C101.996 22.86 101.936 22.68 101.896 22.48C101.876 22.28 101.866 22.08 101.866 21.88V18.34C101.866 17.38 101.856 16.48 101.836 15.64C101.836 14.78 101.836 13.87 101.836 12.91C101.876 11.47 101.896 10.07 101.896 8.71003C101.916 7.33003 101.916 5.95003 101.896 4.57003C101.896 4.11003 102.016 3.76003 102.256 3.52003C102.516 3.28003 102.816 3.16003 103.156 3.16003C103.436 3.16003 103.696 3.29003 103.936 3.55003C104.196 3.79003 104.326 4.14003 104.326 4.60003C104.326 4.92003 104.316 5.16003 104.296 5.32003C104.296 5.46003 104.296 5.59003 104.296 5.71003Z" fill="black"/>
<path d="M70.9448 13.3001C70.4448 14.4601 69.9948 15.5401 69.5948 16.5401C69.2148 17.5201 68.8448 18.3701 68.4848 19.0901C68.4448 19.3501 68.4048 19.6201 68.3648 19.9001C68.3248 20.1601 68.2148 20.4401 68.0348 20.7401C67.7348 21.2601 67.3648 21.5901 66.9248 21.7301C66.5048 21.8701 66.1048 21.8201 65.7248 21.5801C65.0248 21.1201 65.0148 20.3401 65.6948 19.2401C65.8748 18.9001 66.0648 18.5001 66.2648 18.0401C66.4648 17.5601 66.6748 17.0701 66.8948 16.5701C67.1148 16.0501 67.3348 15.5301 67.5548 15.0101C67.7748 14.4901 67.9948 14.0001 68.2148 13.5401C68.0748 13.5601 67.9348 13.5701 67.7948 13.5701C67.6748 13.5701 67.5548 13.5701 67.4348 13.5701C66.5348 13.6101 65.7548 13.6201 65.0948 13.6001C64.4548 13.5601 64.0048 13.5201 63.7448 13.4801C62.9048 13.3801 62.5148 12.9701 62.5748 12.2501C62.6148 11.8901 62.7648 11.6401 63.0248 11.5001C63.3048 11.3601 63.6548 11.3101 64.0748 11.3501C64.4148 11.3901 64.8848 11.4201 65.4848 11.4401C66.0848 11.4401 66.8048 11.4301 67.6448 11.4101C67.8248 11.4101 68.0348 11.4101 68.2748 11.4101C68.5348 11.3901 68.8048 11.3701 69.0848 11.3501C69.3048 10.8501 69.5248 10.3301 69.7448 9.79008C69.9648 9.23008 70.1648 8.72008 70.3448 8.26008C70.5848 7.68008 70.6748 7.32008 70.6148 7.18008C70.5548 7.02008 70.2548 6.93008 69.7148 6.91008C68.7548 6.87008 67.6748 6.89008 66.4748 6.97008C65.2748 7.03008 64.0048 7.15008 62.6648 7.33008C62.2248 7.39008 61.8448 7.35008 61.5248 7.21008C61.2248 7.07008 61.0548 6.81008 61.0148 6.43008C60.9748 6.05008 61.0448 5.74008 61.2248 5.50008C61.4048 5.24008 61.7048 5.07008 62.1248 4.99008C62.3448 4.95008 62.5548 4.95008 62.7548 4.99008C62.9748 5.01008 63.2148 5.00008 63.4748 4.96008C64.8748 4.76008 66.2848 4.66008 67.7048 4.66008C69.1248 4.64008 70.4948 4.68008 71.8148 4.78008C72.6548 4.86008 73.1848 5.17008 73.4048 5.71008C73.6448 6.23008 73.5648 6.95008 73.1648 7.87008C72.9248 8.43008 72.6048 9.21008 72.2048 10.2101C71.8248 11.1901 71.4048 12.2201 70.9448 13.3001ZM83.9048 12.7001C83.1848 12.7401 82.4448 12.7601 81.6848 12.7601C80.9248 12.7601 80.2348 12.7401 79.6148 12.7001C79.6148 13.5201 79.6048 14.5301 79.5848 15.7301C79.5848 16.9101 79.5848 18.0701 79.5848 19.2101C79.5848 19.7501 79.5948 20.2701 79.6148 20.7701C79.6548 21.2501 79.6648 21.7801 79.6448 22.3601C79.6248 22.8601 79.4948 23.2301 79.2548 23.4701C79.0148 23.7101 78.6948 23.8301 78.2948 23.8301C77.9148 23.8301 77.6148 23.7301 77.3948 23.5301C77.1748 23.3501 77.0548 23.1201 77.0348 22.8401C77.0148 22.4001 77.0748 21.9601 77.2148 21.5201C77.2148 21.0601 77.2148 20.4601 77.2148 19.7201C77.2148 18.9801 77.2048 18.2201 77.1848 17.4401C77.1848 16.6401 77.1848 15.8801 77.1848 15.1601C77.1848 14.4201 77.1848 13.8201 77.1848 13.3601V4.78008C77.1848 4.34008 77.3048 4.01008 77.5448 3.79008C77.7848 3.57008 78.0548 3.46008 78.3548 3.46008C78.6348 3.46008 78.8948 3.58008 79.1348 3.82008C79.3948 4.04008 79.5248 4.37008 79.5248 4.81008C79.5248 5.71008 79.5048 6.65008 79.4648 7.63008C79.4448 8.59008 79.4548 9.55008 79.4948 10.5101C80.1948 10.5301 80.9048 10.5401 81.6248 10.5401C82.3648 10.5401 83.1248 10.5201 83.9048 10.4801C84.2648 10.4601 84.5548 10.5501 84.7748 10.7501C85.0148 10.9301 85.1348 11.1901 85.1348 11.5301C85.1348 11.8301 85.0348 12.0901 84.8348 12.3101C84.6348 12.5301 84.3248 12.6601 83.9048 12.7001Z" fill="black"/>
<path d="M39.9749 4.09012C40.4349 3.77012 40.9549 3.56012 41.5349 3.46012C42.1149 3.34012 42.6849 3.34012 43.2449 3.46012C43.8849 3.58012 44.4849 3.81012 45.0449 4.15012C45.6049 4.47012 46.1049 4.86012 46.5449 5.32012C47.0049 5.78012 47.3949 6.29012 47.7149 6.85012C48.0349 7.41012 48.2849 7.99012 48.4649 8.59012C48.6849 9.41012 48.7449 10.3201 48.6449 11.3201C48.6449 11.4601 48.6349 11.6201 48.6149 11.8001C48.6149 11.9801 48.6049 12.1701 48.5849 12.3701C48.5849 12.4701 48.5649 12.5801 48.5249 12.7001C48.5049 12.8201 48.4949 12.9401 48.4949 13.0601C48.4349 14.2401 48.2749 15.3601 48.0149 16.4201C47.7749 17.4801 47.3949 18.4301 46.8749 19.2701C46.3749 20.1101 45.7149 20.8001 44.8949 21.3401C44.0949 21.8801 43.1049 22.2101 41.9249 22.3301C40.9449 22.4101 40.0249 22.2101 39.1649 21.7301C38.3249 21.2301 37.5949 20.5501 36.9749 19.6901C36.3749 18.8101 35.9049 17.7901 35.5649 16.6301C35.2449 15.4701 35.1149 14.2601 35.1749 13.0001C35.2149 12.6201 35.2449 12.2601 35.2649 11.9201C35.2849 11.5601 35.3449 11.2001 35.4449 10.8401C35.6849 9.74012 35.9749 8.73012 36.3149 7.81012C36.6749 6.89012 37.0949 6.11012 37.5749 5.47012C37.8349 5.09012 38.0949 4.88012 38.3549 4.84012C38.6149 4.78012 38.8649 4.80012 39.1049 4.90012C39.2249 4.72012 39.3649 4.57012 39.5249 4.45012C39.7049 4.31012 39.8549 4.19012 39.9749 4.09012ZM41.2049 6.04012C41.0849 6.14012 40.9249 6.33012 40.7249 6.61012C40.5249 6.87012 40.4049 7.10012 40.3649 7.30012C40.2249 7.54012 39.9849 7.74012 39.6449 7.90012C39.3249 8.04012 39.0649 8.01012 38.8649 7.81012C38.6249 8.23012 38.4049 8.74012 38.2049 9.34012C38.0249 9.94012 37.8549 10.5701 37.6949 11.2301C37.6349 11.5301 37.5849 11.8201 37.5449 12.1001C37.5249 12.3801 37.5049 12.6601 37.4849 12.9401C37.4449 13.9401 37.5349 14.9001 37.7549 15.8201C37.9949 16.7201 38.3249 17.5101 38.7449 18.1901C39.1649 18.8501 39.6449 19.3601 40.1849 19.7201C40.7449 20.0801 41.3249 20.2101 41.9249 20.1101C42.6449 19.9901 43.2649 19.7301 43.7849 19.3301C44.3049 18.9101 44.7349 18.3801 45.0749 17.7401C45.4149 17.1001 45.6849 16.3801 45.8849 15.5801C46.0849 14.7601 46.2249 13.8801 46.3049 12.9401C46.3049 12.8801 46.3149 12.8201 46.3349 12.7601C46.3749 12.6801 46.3949 12.6101 46.3949 12.5501C46.4149 12.3301 46.4349 12.1201 46.4549 11.9201C46.4749 11.7001 46.4849 11.4801 46.4849 11.2601C46.4849 10.9401 46.4749 10.6101 46.4549 10.2701C46.4349 9.93012 46.3749 9.61012 46.2749 9.31012C46.0349 8.45012 45.6149 7.69012 45.0149 7.03012C44.4149 6.35012 43.7449 5.92012 43.0049 5.74012C42.7049 5.68012 42.3849 5.67012 42.0449 5.71012C41.7249 5.75012 41.4449 5.86012 41.2049 6.04012ZM52.9649 4.78012C53.0049 4.42012 53.1449 4.15012 53.3849 3.97012C53.6249 3.77012 53.8849 3.69012 54.1649 3.73012C54.4649 3.77012 54.7249 3.92012 54.9449 4.18012C55.1649 4.44012 55.2549 4.74012 55.2149 5.08012C55.1149 5.66012 55.0049 6.35012 54.8849 7.15012C54.7849 7.93012 54.6949 8.84012 54.6149 9.88012C54.8549 9.88012 55.1449 9.88012 55.4849 9.88012C55.8249 9.88012 56.1849 9.89012 56.5649 9.91012C56.9649 9.91012 57.3649 9.93012 57.7649 9.97012C58.1649 9.99012 58.5449 10.0301 58.9049 10.0901C59.2449 10.1301 59.4749 10.2601 59.5949 10.4801C59.7149 10.7001 59.7649 10.9201 59.7449 11.1401C59.7249 11.3001 59.6049 11.5001 59.3849 11.7401C59.1649 11.9801 58.7749 12.1001 58.2149 12.1001C57.5349 12.1001 56.9149 12.1101 56.3549 12.1301C55.8149 12.1501 55.1949 12.1801 54.4949 12.2201L54.1949 20.6801C54.6349 20.8801 54.8249 21.2301 54.7649 21.7301C54.7049 22.4701 54.1449 22.8401 53.0849 22.8401C52.7649 22.8401 52.4849 22.7301 52.2449 22.5101C52.0249 22.3101 51.9149 22.0401 51.9149 21.7001C51.9149 18.8801 51.9849 16.0801 52.1249 13.3001C52.2649 10.5201 52.5449 7.68012 52.9649 4.78012Z" fill="black"/>
<path d="M17.8321 23.3501C17.7721 22.7701 17.9421 22.2701 18.3421 21.8501C18.7421 21.4101 19.2621 21.1901 19.9021 21.1901C20.1421 21.1901 20.3821 21.2401 20.6221 21.3401C20.8821 21.4401 21.1121 21.5801 21.3121 21.7601C21.5121 21.9201 21.6721 22.1101 21.7921 22.3301C21.9321 22.5701 22.0021 22.8201 22.0021 23.0801C22.0021 23.3401 21.9521 23.5901 21.8521 23.8301C21.7521 24.0901 21.6121 24.3201 21.4321 24.5201C21.2721 24.7201 21.0721 24.8801 20.8321 25.0001C20.6121 25.1401 20.3721 25.2101 20.1121 25.2101C19.5321 25.2301 19.0221 25.0701 18.5821 24.7301C18.1421 24.3901 17.8921 23.9301 17.8321 23.3501Z" fill="black"/>
<path d="M3.23625 2.53007C3.93625 2.33007 4.70625 2.20007 5.54625 2.14007C6.38625 2.08007 7.26625 2.10007 8.18625 2.20007C9.80625 2.38007 11.0963 2.91007 12.0563 3.79007C13.0163 4.65007 13.4963 5.80007 13.4963 7.24007C13.4963 7.68007 13.4063 8.17007 13.2263 8.71007C13.0463 9.23007 12.7363 9.74007 12.2963 10.2401C11.8963 10.7001 11.4263 11.0601 10.8863 11.3201C10.3463 11.5801 9.71625 11.7901 8.99625 11.9501C9.85625 11.9701 10.6463 12.1201 11.3663 12.4001C12.0863 12.6801 12.7063 13.0301 13.2263 13.4501C13.8463 13.9701 14.3363 14.6101 14.6963 15.3701C15.0563 16.1101 15.1863 16.9901 15.0863 18.0101C14.9263 19.5501 14.3263 20.7201 13.2863 21.5201C12.2663 22.3201 10.9363 22.8301 9.29625 23.0501C8.57625 23.1501 7.83625 23.1801 7.07625 23.1401C6.31625 23.1001 5.56625 22.9801 4.82625 22.7801C4.08625 22.5801 3.39625 22.2901 2.75625 21.9101C2.11625 21.5301 1.55625 21.0501 1.07625 20.4701C0.79625 20.1301 0.65625 19.8001 0.65625 19.4801C0.67625 19.1601 0.81625 18.9101 1.07625 18.7301C1.35625 18.5101 1.63625 18.4601 1.91625 18.5801C2.21625 18.7001 2.45625 18.8801 2.63625 19.1201C2.93625 19.5201 3.31625 19.8701 3.77625 20.1701C4.23625 20.4501 4.72625 20.6801 5.24625 20.8601C5.76625 21.0201 6.30625 21.1301 6.86625 21.1901C7.44625 21.2501 8.00625 21.2501 8.54625 21.1901C9.92625 21.0301 11.0063 20.6301 11.7863 19.9901C12.5663 19.3301 12.9763 18.4901 13.0163 17.4701C13.0563 16.2301 12.4763 15.2001 11.2762 14.3801C10.6163 13.9201 9.75625 13.5901 8.69625 13.3901C7.65625 13.1901 6.53625 13.1101 5.33625 13.1501C4.87625 13.1701 4.50625 13.0901 4.22625 12.9101C3.96625 12.7101 3.83625 12.4201 3.83625 12.0401C3.83625 11.6401 3.97625 11.3601 4.25625 11.2001C4.55625 11.0401 4.93625 10.9401 5.39625 10.9001C6.09625 10.8601 6.78625 10.7801 7.46625 10.6601C8.14625 10.5201 8.67625 10.3501 9.05625 10.1501C9.75625 9.83007 10.3163 9.45007 10.7363 9.01007C11.1563 8.55007 11.3663 7.95007 11.3663 7.21007C11.3663 6.31007 11.0663 5.62007 10.4663 5.14007C9.86625 4.64007 9.04625 4.31007 8.00625 4.15007C7.20625 4.03007 6.41625 4.01007 5.63625 4.09007C4.85625 4.17007 4.20625 4.28007 3.68625 4.42007C3.40625 4.52007 3.12625 4.52007 2.84625 4.42007C2.56625 4.32007 2.37625 4.12007 2.27625 3.82007C2.17625 3.54007 2.22625 3.29007 2.42625 3.07007C2.62625 2.83007 2.89625 2.65007 3.23625 2.53007Z" fill="black"/>
</svg>
