<svg width="93" height="22" viewBox="0 0 93 22" fill="none" xmlns="http://www.w3.org/2000/svg">
<path d="M74.8281 1.04004C74.8281 0.700038 74.9581 0.460038 75.2181 0.320039C75.4981 0.180038 75.8181 0.150037 76.1781 0.230038C76.6981 0.310038 77.2981 0.380038 77.9781 0.440039C78.6581 0.480038 79.3681 0.510038 80.1081 0.530038C80.8681 0.550039 81.6281 0.570039 82.3881 0.590039C83.1681 0.590039 83.8981 0.590039 84.5781 0.590039C86.4581 0.630038 87.9281 0.670038 88.9881 0.710039C90.0481 0.730039 90.8581 0.760038 91.4181 0.800038C91.7181 0.840038 92.0181 0.920038 92.3181 1.04004C92.6181 1.16004 92.7581 1.37004 92.7381 1.67004C92.7181 1.83004 92.6381 1.99004 92.4981 2.15004C92.3581 2.31004 92.2081 2.44004 92.0481 2.54004C91.7481 2.76004 91.4481 2.86004 91.1481 2.84004C90.8681 2.82004 90.5481 2.78004 90.1881 2.72004C89.9281 2.68004 89.5381 2.64004 89.0181 2.60004C88.4981 2.56004 87.8981 2.53004 87.2181 2.51004C86.6781 2.49004 86.1981 2.49004 85.7781 2.51004C85.3781 2.51004 84.9981 2.50004 84.6381 2.48004C84.7181 3.00004 84.7581 3.49004 84.7581 3.95004C84.7581 4.41004 84.7581 4.90004 84.7581 5.42004C84.7381 6.18004 84.7181 6.84004 84.6981 7.40004C84.6981 7.96004 84.6781 8.38004 84.6381 8.66004C84.6381 8.82004 84.6381 8.99004 84.6381 9.17004C84.6381 9.35004 84.6281 9.58004 84.6081 9.86004C84.6081 10.12 84.6081 10.45 84.6081 10.85C84.6081 11.25 84.6081 11.75 84.6081 12.35C84.6081 12.95 84.6081 13.56 84.6081 14.18C84.6081 14.8 84.6081 15.39 84.6081 15.95C84.6281 16.51 84.6481 17.02 84.6681 17.48C84.6881 17.92 84.7081 18.26 84.7281 18.5C84.7481 18.72 84.7581 18.92 84.7581 19.1C84.7781 19.26 84.7881 19.42 84.7881 19.58C84.7881 19.98 84.6981 20.31 84.5181 20.57C84.3381 20.85 84.0381 21.01 83.6181 21.05C83.1581 21.09 82.8281 20.98 82.6281 20.72C82.4481 20.46 82.3381 20.16 82.2981 19.82C82.2581 19.48 82.2181 18.8 82.1781 17.78C82.1581 16.74 82.1481 15.31 82.1481 13.49C82.1481 13.05 82.1481 12.65 82.1481 12.29C82.1481 11.91 82.1481 11.54 82.1481 11.18C82.1481 10.8 82.1481 10.42 82.1481 10.04C82.1681 9.66004 82.1881 9.23004 82.2081 8.75004C82.2081 8.15004 82.2081 7.48004 82.2081 6.74004C82.2281 6.00004 82.2381 5.39004 82.2381 4.91004C82.2381 4.61004 82.2381 4.35004 82.2381 4.13004C82.2381 3.91004 82.2281 3.71004 82.2081 3.53004C82.2081 3.35004 82.1981 3.18004 82.1781 3.02004C82.1781 2.86004 82.1681 2.68004 82.1481 2.48004C81.1481 2.48004 80.1881 2.48004 79.2681 2.48004C78.3681 2.46004 77.3281 2.38004 76.1481 2.24004C75.2681 2.14004 74.8281 1.74004 74.8281 1.04004Z" fill="black"/>
<path d="M56.0871 1.19001C56.0871 0.910015 56.1871 0.670015 56.3871 0.470016C56.5871 0.250015 56.8571 0.140015 57.1971 0.140015C57.4371 0.140015 57.6271 0.180014 57.7671 0.260015C57.9271 0.340015 58.0671 0.460015 58.1871 0.620015C58.3271 0.760015 58.4771 0.950014 58.6371 1.19001C58.7971 1.41001 58.9971 1.66001 59.2371 1.94001C59.6771 2.44002 60.1871 3.07002 60.7671 3.83002C61.3471 4.57002 61.9571 5.39001 62.5971 6.29002C63.2571 7.19001 63.9071 8.14002 64.5471 9.14002C65.2071 10.12 65.8271 11.09 66.4071 12.05C66.7271 12.59 67.0771 13.16 67.4571 13.76C67.8371 14.34 68.2171 14.91 68.5971 15.47C68.9771 16.01 69.3371 16.51 69.6771 16.97C70.0171 17.43 70.2971 17.8 70.5171 18.08C70.5771 17.82 70.6071 17.42 70.6071 16.88C70.6271 16.34 70.6271 15.74 70.6071 15.08C70.5871 14.4 70.5571 13.71 70.5171 13.01C70.4771 12.29 70.4471 11.61 70.4271 10.97C70.3671 9.65002 70.3071 8.59002 70.2471 7.79002C70.1871 6.97002 70.1471 6.33002 70.1271 5.87002C70.1071 5.47002 70.0871 5.11002 70.0671 4.79002C70.0471 4.47002 70.0171 4.14002 69.9771 3.80002C69.9571 3.60002 69.9471 3.34002 69.9471 3.02001C69.9471 2.68002 69.9771 2.36002 70.0371 2.06001C70.1371 1.68001 70.2771 1.38002 70.4571 1.16002C70.6571 0.940015 70.8971 0.830014 71.1771 0.830014C71.5571 0.830014 71.8571 0.970015 72.0771 1.25002C72.3171 1.51002 72.4371 1.89001 72.4371 2.39002C72.4371 2.89002 72.4071 3.35002 72.3471 3.77002C72.3071 4.19002 72.2871 4.75002 72.2871 5.45002C72.2871 5.73002 72.2971 6.17002 72.3171 6.77002C72.3571 7.37002 72.3971 8.07002 72.4371 8.87002C72.4971 9.67001 72.5471 10.54 72.5871 11.48C72.6271 12.4 72.6571 13.32 72.6771 14.24C72.6971 15.14 72.6971 16.02 72.6771 16.88C72.6571 17.72 72.6071 18.45 72.5271 19.07C72.4471 19.65 72.3771 20.09 72.3171 20.39C72.2571 20.69 72.0571 20.92 71.7171 21.08C71.3771 21.26 71.0371 21.26 70.6971 21.08C70.3771 20.92 70.0771 20.69 69.7971 20.39C68.8171 19.31 67.9171 18.21 67.0971 17.09C66.2771 15.97 65.5471 14.87 64.9071 13.79C64.4471 13.03 63.9371 12.21 63.3771 11.33C62.8171 10.45 62.2271 9.57002 61.6071 8.69002C61.0071 7.79002 60.3871 6.92002 59.7471 6.08002C59.1071 5.22002 58.4771 4.44001 57.8571 3.74001C57.9571 4.82001 57.9771 6.08002 57.9171 7.52002C57.8771 8.94002 57.8371 10.37 57.7971 11.81C57.7771 12.51 57.7571 13.25 57.7371 14.03C57.7171 14.81 57.7071 15.58 57.7071 16.34C57.7071 16.92 57.7271 17.42 57.7671 17.84C57.8071 18.24 57.8171 18.65 57.7971 19.07C57.7571 19.47 57.6271 19.79 57.4071 20.03C57.1871 20.27 56.9071 20.39 56.5671 20.39C55.7271 20.39 55.3071 19.88 55.3071 18.86C55.3071 16.8 55.3771 14.67 55.5171 12.47C55.6771 10.25 55.7571 7.93002 55.7571 5.51002C55.7571 4.93002 55.7471 4.43002 55.7271 4.01001C55.7071 3.57002 55.6771 3.18002 55.6371 2.84002V2.87002C55.6171 2.77002 55.6071 2.66001 55.6071 2.54002C55.6071 2.44002 55.6271 2.33002 55.6671 2.21001C55.7271 2.09001 55.7871 1.98002 55.8471 1.88002C55.9071 1.76002 55.9571 1.66002 55.9971 1.58002C56.0571 1.50002 56.0871 1.45002 56.0871 1.43002V1.19001Z" fill="black"/>
<path d="M37.2009 18.7699C37.2009 18.1299 37.2209 17.3599 37.2609 16.4599C37.3009 15.5599 37.3509 14.5999 37.4109 13.5799C37.4709 12.5399 37.5309 11.4799 37.5909 10.3999C37.6709 9.31994 37.7509 8.27994 37.8309 7.27994C37.9309 6.25994 38.0209 5.31994 38.1009 4.45994C38.2009 3.57994 38.2909 2.84994 38.3709 2.26994C38.1909 2.22994 37.9909 2.19994 37.7709 2.17994C37.5709 2.15994 37.3909 2.07994 37.2309 1.93994C37.0709 1.79994 36.9409 1.65994 36.8409 1.51994C36.7609 1.35994 36.7709 1.15994 36.8709 0.919944C37.0109 0.499945 37.3409 0.309944 37.8609 0.349944C38.2209 0.369944 38.5609 0.399944 38.8809 0.439944C39.2209 0.459944 39.5809 0.489944 39.9609 0.529944L43.2609 0.709945C43.9409 0.729945 44.6609 0.739944 45.4209 0.739944C46.1809 0.739944 46.9109 0.759944 47.6109 0.799944C48.3509 0.839944 49.0309 0.859945 49.6509 0.859945C50.2909 0.839944 50.7809 0.799943 51.1209 0.739944C51.5209 0.679944 51.8409 0.719944 52.0809 0.859945C52.3409 0.979944 52.4709 1.18994 52.4709 1.48994C52.4709 1.74994 52.4009 1.94994 52.2609 2.08995C52.1209 2.22994 51.9109 2.40994 51.6309 2.62994C51.4309 2.78994 51.1709 2.88994 50.8509 2.92995C50.5309 2.94994 50.2209 2.93994 49.9209 2.89994C49.7609 2.87994 49.5409 2.84994 49.2609 2.80994C49.0009 2.76994 48.7609 2.73994 48.5409 2.71994C48.3809 2.69994 48.0709 2.68994 47.6109 2.68994C47.1509 2.66994 46.6709 2.65994 46.1709 2.65994C45.4109 2.65994 44.5309 2.63994 43.5309 2.59994C42.5509 2.55994 41.5709 2.51994 40.5909 2.47994C40.5309 2.95994 40.4709 3.48994 40.4109 4.06994C40.3509 4.64994 40.2909 5.24994 40.2309 5.86994C40.1709 6.46994 40.1109 7.06994 40.0509 7.66994C40.0109 8.26994 39.9809 8.81994 39.9609 9.31994C41.6009 9.27994 43.1009 9.24994 44.4609 9.22994C45.8409 9.18994 47.2309 9.18994 48.6309 9.22994C49.0109 9.22994 49.3209 9.30994 49.5609 9.46994C49.8009 9.62994 49.9209 9.87994 49.9209 10.2199C49.9209 10.8999 49.5209 11.2399 48.7209 11.2399C47.2209 11.2399 45.7009 11.2699 44.1609 11.3299C42.6409 11.3699 41.2109 11.4099 39.8709 11.4499C39.8309 11.8499 39.7909 12.3599 39.7509 12.9799C39.7109 13.5799 39.6709 14.2099 39.6309 14.8699C39.5909 15.5099 39.5609 16.1199 39.5409 16.6999C39.5209 17.2799 39.5109 17.7399 39.5109 18.0799C39.5109 18.4599 39.7009 18.6599 40.0809 18.6799C40.6009 18.7199 41.2409 18.7599 42.0009 18.7999C42.7809 18.8199 43.5609 18.8399 44.3409 18.8599C44.8409 18.8599 45.2809 18.8599 45.6609 18.8599C46.0409 18.8599 46.3809 18.8699 46.6809 18.8899C46.9809 18.8899 47.2509 18.8899 47.4909 18.8899C47.7509 18.8899 48.0109 18.8899 48.2709 18.8899C48.5909 18.8899 48.9209 18.8799 49.2609 18.8599C49.6009 18.8399 49.9409 18.8199 50.2809 18.7999C50.9009 18.7999 51.3609 18.9099 51.6609 19.1299C51.9409 19.3499 52.0809 19.5999 52.0809 19.8799C52.1209 20.1799 51.9809 20.4699 51.6609 20.7499C51.4809 20.9099 51.3009 20.9899 51.1209 20.9899C50.9609 21.0099 50.7209 21.0199 50.4009 21.0199C50.2009 21.0199 50.0309 21.0199 49.8909 21.0199C49.7509 21.0199 49.6109 21.0099 49.4709 20.9899C49.3309 20.9899 49.1709 20.9799 48.9909 20.9599C48.8309 20.9399 48.6309 20.9199 48.3909 20.8999C48.1709 20.8799 47.8409 20.8599 47.4009 20.8399C46.9809 20.8199 46.5009 20.7999 45.9609 20.7799C45.4409 20.7799 44.8809 20.7699 44.2809 20.7499C43.6809 20.7499 43.1009 20.7499 42.5409 20.7499C41.7809 20.7499 41.1309 20.7399 40.5909 20.7199C40.0709 20.7199 39.6709 20.7099 39.3909 20.6899C38.7909 20.6499 38.2809 20.4899 37.8609 20.2099C37.4409 19.9499 37.2209 19.4699 37.2009 18.7699Z" fill="black"/>
<path d="M32.8588 3.97999C32.4988 4.87999 32.0787 5.87999 31.5987 6.97999C31.1187 8.05999 30.6187 9.25999 30.0988 10.58C29.7587 11.48 29.4187 12.35 29.0787 13.19C28.7387 14.01 28.4188 14.84 28.1188 15.68C27.8388 16.5 27.5787 17.24 27.3387 17.9C27.1187 18.54 26.8287 19.26 26.4687 20.06C26.3087 20.34 26.1088 20.59 25.8688 20.81C25.6288 21.05 25.3288 21.17 24.9688 21.17C24.6288 21.17 24.3587 21.02 24.1588 20.72C24.0587 20.56 23.9488 20.32 23.8288 20C23.7288 19.68 23.6288 19.34 23.5288 18.98C23.4288 18.62 23.3388 18.27 23.2588 17.93C23.1788 17.57 23.1087 17.28 23.0487 17.06C22.8887 16.32 22.7088 15.61 22.5088 14.93C22.3288 14.25 22.1187 13.57 21.8787 12.89C21.6587 12.21 21.4288 11.52 21.1888 10.82C20.9488 10.12 20.6988 9.36999 20.4388 8.56999L18.9087 3.85999C18.7487 3.45999 18.5787 3.11999 18.3987 2.83999C18.3387 2.65999 18.2887 2.46999 18.2488 2.26999C18.2087 2.06999 18.2087 1.88999 18.2488 1.72999C18.3488 1.22999 18.6588 0.899986 19.1788 0.739986C19.9188 0.559986 20.4287 0.879986 20.7087 1.69999C20.8687 2.15999 20.9887 2.61999 21.0687 3.07999C21.1487 3.51999 21.3087 4.08999 21.5487 4.78999C21.9887 6.06999 22.4188 7.34999 22.8388 8.62999C23.2788 9.88999 23.6787 11.09 24.0387 12.23C24.2387 12.85 24.4588 13.6 24.6988 14.48C24.9588 15.34 25.1587 16.31 25.2987 17.39C25.7187 15.89 26.1487 14.53 26.5887 13.31C27.0288 12.09 27.4488 10.97 27.8488 9.94999C28.0488 9.42999 28.2388 8.94999 28.4187 8.50999C28.5987 8.04999 28.7787 7.60999 28.9587 7.18999C29.1387 6.74999 29.3187 6.30999 29.4987 5.86999C29.6987 5.40999 29.9088 4.90999 30.1288 4.36999C30.3288 3.90999 30.4888 3.52999 30.6088 3.22999C30.7488 2.90999 30.9087 2.51999 31.0887 2.05999C31.2487 1.67999 31.3988 1.35999 31.5388 1.09999C31.6988 0.819985 31.9088 0.579985 32.1688 0.379985C32.4088 0.199985 32.6787 0.109985 32.9787 0.109985C33.2787 0.109985 33.5088 0.159985 33.6688 0.259985C34.0688 0.479986 34.2487 0.829986 34.2087 1.30999C34.1887 1.56999 34.1388 1.78999 34.0588 1.96999C33.9988 2.14999 33.8688 2.36999 33.6688 2.62998C33.5288 2.78999 33.3788 2.99999 33.2188 3.25999C33.0788 3.51999 32.9588 3.75999 32.8588 3.97999Z" fill="black"/>
<path d="M1.31226 18.7699C1.31226 18.1299 1.33226 17.3599 1.37226 16.4599C1.41226 15.5599 1.46226 14.5999 1.52226 13.5799C1.58226 12.5399 1.64226 11.4799 1.70226 10.3999C1.78226 9.31994 1.86226 8.27994 1.94226 7.27994C2.04226 6.25994 2.13226 5.31994 2.21226 4.45994C2.31226 3.57994 2.40226 2.84994 2.48226 2.26994C2.30226 2.22994 2.10226 2.19994 1.88226 2.17994C1.68226 2.15994 1.50226 2.07994 1.34226 1.93994C1.18226 1.79994 1.05226 1.65994 0.952259 1.51994C0.872259 1.35994 0.882259 1.15994 0.982259 0.919944C1.12226 0.499945 1.45226 0.309944 1.97226 0.349944C2.33226 0.369944 2.67226 0.399944 2.99226 0.439944C3.33226 0.459944 3.69226 0.489944 4.07226 0.529944L7.37226 0.709945C8.05226 0.729945 8.77226 0.739944 9.53226 0.739944C10.2923 0.739944 11.0223 0.759944 11.7223 0.799944C12.4623 0.839944 13.1423 0.859945 13.7623 0.859945C14.4023 0.839944 14.8923 0.799943 15.2323 0.739944C15.6323 0.679944 15.9523 0.719944 16.1923 0.859945C16.4523 0.979944 16.5823 1.18994 16.5823 1.48994C16.5823 1.74994 16.5123 1.94994 16.3723 2.08995C16.2323 2.22994 16.0223 2.40994 15.7423 2.62994C15.5423 2.78994 15.2823 2.88994 14.9623 2.92995C14.6423 2.94994 14.3323 2.93994 14.0323 2.89994C13.8723 2.87994 13.6523 2.84994 13.3723 2.80994C13.1123 2.76994 12.8723 2.73994 12.6523 2.71994C12.4923 2.69994 12.1823 2.68994 11.7223 2.68994C11.2623 2.66994 10.7823 2.65994 10.2823 2.65994C9.52226 2.65994 8.64226 2.63994 7.64226 2.59994C6.66226 2.55994 5.68226 2.51994 4.70226 2.47994C4.64226 2.95994 4.58226 3.48994 4.52226 4.06994C4.46226 4.64994 4.40226 5.24994 4.34226 5.86994C4.28226 6.46994 4.22226 7.06994 4.16226 7.66994C4.12226 8.26994 4.09226 8.81994 4.07226 9.31994C5.71226 9.27994 7.21226 9.24994 8.57226 9.22994C9.95226 9.18994 11.3423 9.18994 12.7423 9.22994C13.1223 9.22994 13.4323 9.30994 13.6723 9.46994C13.9123 9.62994 14.0323 9.87994 14.0323 10.2199C14.0323 10.8999 13.6323 11.2399 12.8323 11.2399C11.3323 11.2399 9.81226 11.2699 8.27226 11.3299C6.75226 11.3699 5.32226 11.4099 3.98226 11.4499C3.94226 11.8499 3.90226 12.3599 3.86226 12.9799C3.82226 13.5799 3.78226 14.2099 3.74226 14.8699C3.70226 15.5099 3.67226 16.1199 3.65226 16.6999C3.63226 17.2799 3.62226 17.7399 3.62226 18.0799C3.62226 18.4599 3.81226 18.6599 4.19226 18.6799C4.71226 18.7199 5.35226 18.7599 6.11226 18.7999C6.89226 18.8199 7.67226 18.8399 8.45226 18.8599C8.95226 18.8599 9.39226 18.8599 9.77226 18.8599C10.1523 18.8599 10.4923 18.8699 10.7923 18.8899C11.0923 18.8899 11.3623 18.8899 11.6023 18.8899C11.8623 18.8899 12.1223 18.8899 12.3823 18.8899C12.7023 18.8899 13.0323 18.8799 13.3723 18.8599C13.7123 18.8399 14.0523 18.8199 14.3923 18.7999C15.0123 18.7999 15.4723 18.9099 15.7723 19.1299C16.0523 19.3499 16.1923 19.5999 16.1923 19.8799C16.2323 20.1799 16.0923 20.4699 15.7723 20.7499C15.5923 20.9099 15.4123 20.9899 15.2323 20.9899C15.0723 21.0099 14.8323 21.0199 14.5123 21.0199C14.3123 21.0199 14.1423 21.0199 14.0023 21.0199C13.8623 21.0199 13.7223 21.0099 13.5823 20.9899C13.4423 20.9899 13.2823 20.9799 13.1023 20.9599C12.9423 20.9399 12.7423 20.9199 12.5023 20.8999C12.2823 20.8799 11.9523 20.8599 11.5123 20.8399C11.0923 20.8199 10.6123 20.7999 10.0723 20.7799C9.55226 20.7799 8.99226 20.7699 8.39226 20.7499C7.79226 20.7499 7.21226 20.7499 6.65226 20.7499C5.89226 20.7499 5.24226 20.7399 4.70226 20.7199C4.18226 20.7199 3.78226 20.7099 3.50226 20.6899C2.90226 20.6499 2.39226 20.4899 1.97226 20.2099C1.55226 19.9499 1.33226 19.4699 1.31226 18.7699Z" fill="black"/>
</svg>
