<svg width="206" height="28" viewBox="0 0 206 28" fill="none" xmlns="http://www.w3.org/2000/svg">
<path d="M202.673 1.80996C202.673 0.989956 203.043 0.579956 203.783 0.579956C204.063 0.579956 204.303 0.679956 204.503 0.879956C204.723 1.05996 204.843 1.29996 204.863 1.59996C204.903 2.63996 204.883 3.73996 204.803 4.89996C204.743 6.05996 204.673 7.08996 204.593 7.98996C204.553 8.44996 204.513 9.10996 204.473 9.96996C204.453 10.81 204.423 11.72 204.383 12.7C204.363 13.68 204.343 14.65 204.323 15.61C204.303 16.55 204.293 17.35 204.293 18.01C204.293 18.37 204.233 18.7 204.113 19C203.993 19.28 203.753 19.44 203.393 19.48C202.993 19.48 202.693 19.36 202.493 19.12C202.293 18.86 202.173 18.5 202.133 18.04C202.093 17.42 202.073 16.63 202.073 15.67C202.073 14.71 202.083 13.73 202.103 12.73C202.123 11.71 202.153 10.75 202.193 9.84996C202.233 8.92996 202.283 8.20996 202.343 7.68996C202.383 7.26996 202.423 6.79996 202.463 6.27996C202.503 5.75996 202.533 5.23996 202.553 4.71996C202.593 4.17996 202.623 3.65996 202.643 3.15996C202.663 2.65996 202.673 2.20996 202.673 1.80996ZM201.233 23.35C201.173 22.77 201.343 22.27 201.743 21.85C202.143 21.41 202.663 21.19 203.303 21.19C203.543 21.19 203.783 21.24 204.023 21.34C204.283 21.44 204.513 21.58 204.713 21.76C204.913 21.92 205.073 22.11 205.193 22.33C205.333 22.57 205.403 22.82 205.403 23.08C205.403 23.34 205.353 23.59 205.253 23.83C205.153 24.09 205.013 24.32 204.833 24.52C204.673 24.72 204.473 24.88 204.233 25C204.013 25.14 203.773 25.21 203.513 25.21C202.933 25.23 202.423 25.07 201.983 24.73C201.543 24.39 201.293 23.93 201.233 23.35Z" fill="black"/>
<path d="M180.374 23.1999C180.374 22.8599 180.494 22.5999 180.734 22.4199C180.634 21.9599 180.514 21.5099 180.374 21.0699C180.254 20.6099 180.164 20.1299 180.104 19.6299C180.064 19.3899 180.024 19.1499 179.984 18.9099C179.964 18.6499 179.934 18.3999 179.894 18.1599C179.874 17.9199 179.854 17.7099 179.834 17.5299C179.814 17.3299 179.804 17.1799 179.804 17.0799C179.844 16.7599 179.944 16.4799 180.104 16.2399C180.284 15.9799 180.604 15.8299 181.064 15.7899C181.684 15.7299 182.504 15.6799 183.524 15.6399C184.544 15.5799 185.614 15.5399 186.734 15.5199C187.874 15.4799 188.994 15.4599 190.094 15.4599C191.214 15.4399 192.174 15.4399 192.974 15.4599C193.794 15.4999 194.204 15.9599 194.204 16.8399C194.204 17.1999 194.204 17.5999 194.204 18.0399C194.204 18.4599 194.194 18.8999 194.174 19.3599C194.174 19.7999 194.174 20.2299 194.174 20.6499C194.174 21.0699 194.174 21.4399 194.174 21.7599C194.174 22.1999 194.154 22.5499 194.114 22.8099C194.094 23.0699 194.014 23.2599 193.874 23.3799C193.754 23.5199 193.564 23.5999 193.304 23.6199C193.044 23.6599 192.684 23.6799 192.224 23.6799C190.524 23.7199 188.874 23.7699 187.274 23.8299C185.674 23.9099 184.274 24.0099 183.074 24.1299C182.834 24.1699 182.574 24.1999 182.294 24.2199C182.034 24.2599 181.794 24.2799 181.574 24.2799C181.174 24.2799 180.874 24.1799 180.674 23.9799C180.474 23.7799 180.374 23.5199 180.374 23.1999ZM186.494 2.25994C186.674 2.17994 186.884 2.12994 187.124 2.10994C187.384 2.08994 187.624 2.10994 187.844 2.16994C188.064 2.22994 188.254 2.33994 188.414 2.49994C188.574 2.65994 188.664 2.86994 188.684 3.12994C188.724 3.72994 188.454 4.07994 187.874 4.17994C187.634 4.21994 187.364 4.23994 187.064 4.23994C186.764 4.21994 186.504 4.18994 186.284 4.14994C186.184 4.12994 186.094 4.11994 186.014 4.11994C185.934 4.11994 185.874 4.11994 185.834 4.11994C185.694 4.11994 185.624 4.18994 185.624 4.32994C185.624 4.90994 185.614 5.48994 185.594 6.06994C185.574 6.64994 185.544 7.22994 185.504 7.80994C185.464 8.38994 185.424 9.04994 185.384 9.78994C185.364 10.5099 185.354 11.1599 185.354 11.7399C185.354 11.8399 185.434 11.9099 185.594 11.9499C185.774 11.9699 186.074 11.9899 186.494 12.0099C186.774 12.0299 187.074 12.0599 187.394 12.0999C187.714 12.1399 187.964 12.1899 188.144 12.2499C188.424 12.3499 188.654 12.5199 188.834 12.7599C189.034 12.9999 189.034 13.2899 188.834 13.6299C188.734 13.7699 188.604 13.8599 188.444 13.8999C188.304 13.9199 188.174 13.9299 188.054 13.9299H187.874C186.854 13.8099 185.764 13.7299 184.604 13.6899C183.444 13.6299 182.264 13.5999 181.064 13.5999C180.224 13.5999 179.414 13.6099 178.634 13.6299C177.854 13.6499 177.144 13.6699 176.504 13.6899C176.324 13.6899 176.144 13.6799 175.964 13.6599C175.784 13.6399 175.624 13.5899 175.484 13.5099C175.344 13.4299 175.234 13.3099 175.154 13.1499C175.074 12.9899 175.044 12.7699 175.064 12.4899C175.084 12.2699 175.184 12.0999 175.364 11.9799C175.544 11.8599 175.764 11.7999 176.024 11.7999C176.104 11.7999 176.194 11.7999 176.294 11.7999C176.394 11.7999 176.534 11.7899 176.714 11.7699C176.894 11.7699 177.114 11.7699 177.374 11.7699C177.634 11.7499 177.994 11.7299 178.454 11.7099L178.784 7.44994L179.024 4.32994C178.884 4.32994 178.754 4.33994 178.634 4.35994C178.514 4.35994 178.374 4.36994 178.214 4.38994C178.054 4.40994 177.884 4.42994 177.704 4.44994C177.544 4.46994 177.374 4.47994 177.194 4.47994C176.574 4.47994 176.154 4.36994 175.934 4.14994C175.774 3.94994 175.714 3.69994 175.754 3.39994C175.794 3.09994 175.914 2.86994 176.114 2.70994C176.294 2.58994 176.614 2.51994 177.074 2.49994C177.274 2.47994 177.514 2.46994 177.794 2.46994C178.094 2.46994 178.414 2.45994 178.754 2.43994C178.974 2.43994 179.224 2.43994 179.504 2.43994C179.784 2.41994 180.084 2.39994 180.404 2.37994C180.904 2.35994 181.444 2.33994 182.024 2.31994C182.604 2.29994 183.154 2.28994 183.674 2.28994C184.194 2.26994 184.654 2.25994 185.054 2.25994C185.454 2.25994 185.714 2.25994 185.834 2.25994H186.494ZM182.144 17.6499C182.204 18.4299 182.284 19.2099 182.384 19.9899C182.484 20.7499 182.604 21.5099 182.744 22.2699C183.284 22.2299 183.894 22.1799 184.574 22.1199C185.274 22.0799 185.994 22.0399 186.734 21.9999C187.494 21.9399 188.264 21.8999 189.044 21.8799C189.824 21.8399 190.594 21.8199 191.354 21.8199C191.734 21.8199 191.954 21.7899 192.014 21.7299C192.094 21.6699 192.134 21.4699 192.134 21.1299C192.134 20.9299 192.134 20.6899 192.134 20.4099C192.134 20.1299 192.134 19.8399 192.134 19.5399C192.154 19.2399 192.164 18.9599 192.164 18.6999C192.164 18.4199 192.164 18.1899 192.164 18.0099C192.164 17.7099 192.124 17.5299 192.044 17.4699C191.964 17.3899 191.764 17.3399 191.444 17.3199C190.004 17.2599 188.514 17.2699 186.974 17.3499C185.454 17.4299 183.844 17.5299 182.144 17.6499ZM197.324 8.25994C197.144 8.23994 196.884 8.23994 196.544 8.25994C196.224 8.25994 195.884 8.26994 195.524 8.28994C195.184 8.30994 194.854 8.32994 194.534 8.34994C194.214 8.36994 193.954 8.37994 193.754 8.37994C193.754 8.49994 193.754 8.67994 193.754 8.91994C193.754 9.15994 193.754 9.42994 193.754 9.72994C193.774 10.0299 193.784 10.3399 193.784 10.6599C193.784 10.9599 193.784 11.2299 193.784 11.4699C193.784 11.6499 193.794 11.8899 193.814 12.1899C193.854 12.4699 193.874 12.7199 193.874 12.9399C193.874 13.3399 193.774 13.6899 193.574 13.9899C193.374 14.2699 193.114 14.4099 192.794 14.4099C192.394 14.4099 192.084 14.3099 191.864 14.1099C191.664 13.9099 191.564 13.6799 191.564 13.4199C191.564 12.8799 191.554 12.1599 191.534 11.2599C191.514 10.3599 191.494 9.39994 191.474 8.37994C191.474 7.35994 191.464 6.34994 191.444 5.34994C191.424 4.34994 191.414 3.46994 191.414 2.70994C191.414 2.36994 191.534 2.11994 191.774 1.95994C192.014 1.77994 192.274 1.68994 192.554 1.68994C192.834 1.68994 193.074 1.77994 193.274 1.95994C193.494 2.11994 193.614 2.37994 193.634 2.73994C193.674 3.27994 193.694 3.81994 193.694 4.35994C193.694 4.87994 193.694 5.58994 193.694 6.48994C194.334 6.42994 195.004 6.35994 195.704 6.27994C196.424 6.19994 197.084 6.20994 197.684 6.30994C197.924 6.34994 198.104 6.47994 198.224 6.69994C198.364 6.91994 198.434 7.13994 198.434 7.35994C198.434 7.59994 198.334 7.82994 198.134 8.04994C197.954 8.24994 197.684 8.31994 197.324 8.25994ZM183.494 6.93994C183.494 6.05994 183.434 5.13994 183.314 4.17994C183.254 4.15994 183.154 4.14994 183.014 4.14994C182.874 4.12994 182.704 4.11994 182.504 4.11994C182.324 4.11994 182.124 4.12994 181.904 4.14994C181.684 4.16994 181.484 4.18994 181.304 4.20994C181.144 5.34994 181.004 6.53994 180.884 7.77994C180.764 9.01994 180.704 10.1499 180.704 11.1699C180.704 11.4699 180.734 11.6499 180.794 11.7099C180.874 11.7699 181.024 11.7999 181.244 11.7999H183.104C183.204 11.7199 183.254 11.6199 183.254 11.4999L183.344 10.3299C183.384 9.80994 183.414 9.24994 183.434 8.64994C183.474 8.02994 183.494 7.45994 183.494 6.93994Z" fill="black"/>
<path d="M149.81 15.9099C149.93 15.2499 150.17 14.6399 150.53 14.0799C150.89 13.5199 151.34 13.0199 151.88 12.5799C152.44 12.1199 153.07 11.7399 153.77 11.4399C154.47 11.1199 155.22 10.8899 156.02 10.7499C156.02 10.5699 156.16 10.4299 156.44 10.3299C156.72 10.2099 157.01 10.1399 157.31 10.1199C157.79 10.0799 158.28 10.1299 158.78 10.2699C159.3 10.4099 159.79 10.5899 160.25 10.8099C161.17 11.2299 161.9 11.8599 162.44 12.6999C162.98 13.5199 163.23 14.4699 163.19 15.5499C163.13 16.8299 162.86 17.8899 162.38 18.7299C161.9 19.5499 161.29 20.2099 160.55 20.7099C159.83 21.1899 159.02 21.5299 158.12 21.7299C157.22 21.9299 156.32 22.0399 155.42 22.0599C154.58 22.0999 153.81 22.0099 153.11 21.7899C152.43 21.5699 151.83 21.2499 151.31 20.8299C150.81 20.3899 150.42 19.8599 150.14 19.2399C149.86 18.6199 149.72 17.9199 149.72 17.1399C149.72 16.7199 149.75 16.3099 149.81 15.9099ZM170.06 20.8299C170.06 19.5099 170.07 18.1999 170.09 16.8999C170.11 15.5999 170.13 14.2299 170.15 12.7899C169.57 12.7299 169 12.7099 168.44 12.7299C167.88 12.7499 167.31 12.7899 166.73 12.8499C166.71 13.0499 166.69 13.2499 166.67 13.4499C166.67 13.6299 166.67 13.7899 166.67 13.9299C166.61 14.8299 166.56 15.7199 166.52 16.5999C166.48 17.4599 166.46 18.3399 166.46 19.2399C166.56 19.4399 166.64 19.6699 166.7 19.9299C166.76 20.1699 166.77 20.4199 166.73 20.6799C166.65 21.0199 166.47 21.2899 166.19 21.4899C165.93 21.6699 165.6 21.7399 165.2 21.6999C164.68 21.6999 164.37 21.5599 164.27 21.2799C164.17 20.9799 164.14 20.6499 164.18 20.2899L164.33 18.6699C164.39 18.0299 164.42 17.2199 164.42 16.2399C164.44 15.2599 164.47 14.2999 164.51 13.3599C164.55 12.2599 164.63 11.0899 164.75 9.84992C164.89 8.60992 164.92 7.20992 164.84 5.64992C164.8 5.12992 164.91 4.80992 165.17 4.68992C165.43 4.54992 165.68 4.47992 165.92 4.47992C166.2 4.47992 166.45 4.57992 166.67 4.77992C166.89 4.95992 167.02 5.27992 167.06 5.73992C167.08 5.99992 167.09 6.31992 167.09 6.69992C167.09 7.07992 167.08 7.49992 167.06 7.95992C167.04 8.39992 167.01 8.85992 166.97 9.33992C166.95 9.81992 166.93 10.2999 166.91 10.7799C167.45 10.7199 167.99 10.6899 168.53 10.6899C168.81 10.6899 169.09 10.6999 169.37 10.7199C169.65 10.7199 169.92 10.7299 170.18 10.7499C170.18 9.84992 170.17 8.89992 170.15 7.89992C170.15 6.89992 170.14 6.02992 170.12 5.28992C170.1 4.88992 170.2 4.57992 170.42 4.35992C170.66 4.13992 170.97 4.02992 171.35 4.02992C172.07 4.02992 172.43 4.41992 172.43 5.19992C172.45 7.05992 172.46 8.69992 172.46 10.1199C172.46 11.5399 172.45 12.8399 172.43 14.0199C172.41 15.1799 172.38 16.2699 172.34 17.2899C172.32 18.3099 172.29 19.3499 172.25 20.4099C172.27 20.6899 172.28 20.9599 172.28 21.2199C172.3 21.4799 172.29 21.7499 172.25 22.0299C172.23 22.2099 172.21 22.3799 172.19 22.5399C172.17 22.7199 172.12 22.8699 172.04 22.9899C171.98 23.1299 171.88 23.2299 171.74 23.2899C171.6 23.3699 171.4 23.3999 171.14 23.3799C170.28 23.3399 169.79 22.9599 169.67 22.2399C169.67 21.9799 169.71 21.7399 169.79 21.5199C169.87 21.2799 169.96 21.0499 170.06 20.8299ZM151.94 16.3899C151.82 16.9699 151.82 17.4899 151.94 17.9499C152.08 18.4099 152.31 18.7999 152.63 19.1199C152.97 19.4399 153.39 19.6799 153.89 19.8399C154.39 19.9999 154.94 20.0699 155.54 20.0499C156.18 20.0299 156.82 19.9499 157.46 19.8099C158.1 19.6499 158.68 19.3999 159.2 19.0599C159.72 18.6999 160.15 18.2299 160.49 17.6499C160.83 17.0699 161.02 16.3399 161.06 15.4599C161.08 15.1399 161.02 14.8199 160.88 14.4999C160.76 14.1799 160.59 13.8899 160.37 13.6299C160.15 13.3699 159.89 13.1499 159.59 12.9699C159.29 12.7899 158.98 12.6699 158.66 12.6099C158.56 12.7699 158.39 12.8699 158.15 12.9099C157.91 12.9499 157.64 12.9699 157.34 12.9699C157.06 12.9699 156.78 12.9599 156.5 12.9399C156.22 12.9199 155.99 12.9299 155.81 12.9699C154.63 13.2499 153.73 13.7099 153.11 14.3499C152.49 14.9899 152.1 15.6699 151.94 16.3899ZM149.6 8.37992C149.26 8.35992 149 8.23992 148.82 8.01992C148.64 7.79992 148.55 7.54992 148.55 7.26992C148.57 6.98992 148.67 6.76992 148.85 6.60992C149.03 6.44992 149.3 6.38992 149.66 6.42992C151.16 6.34992 152.76 6.36992 154.46 6.48992C156.16 6.58992 157.77 6.73992 159.29 6.93992C159.79 6.99992 160.18 7.13992 160.46 7.35992C160.74 7.57992 160.87 7.86992 160.85 8.22992C160.81 8.44992 160.68 8.67992 160.46 8.91992C160.26 9.13992 159.99 9.23992 159.65 9.21992C159.47 9.19992 159.29 9.18992 159.11 9.18992C158.93 9.18992 158.76 9.16992 158.6 9.12992C157.9 8.94992 157.17 8.81992 156.41 8.73992C155.67 8.63992 154.91 8.56992 154.13 8.52992C153.37 8.46992 152.6 8.43992 151.82 8.43992C151.06 8.41992 150.32 8.39992 149.6 8.37992ZM150.77 4.23992C150.43 4.21992 150.16 4.09992 149.96 3.87992C149.76 3.65992 149.66 3.40992 149.66 3.12992C149.66 2.84992 149.75 2.61992 149.93 2.43992C150.11 2.25992 150.4 2.16992 150.8 2.16992C150.92 2.16992 151.04 2.18992 151.16 2.22992C151.28 2.26992 151.41 2.28992 151.55 2.28992C152.31 2.28992 153.13 2.27992 154.01 2.25992C154.91 2.23992 155.74 2.24992 156.5 2.28992C156.62 2.28992 156.77 2.29992 156.95 2.31992C157.13 2.33992 157.29 2.34992 157.43 2.34992C157.55 2.34992 157.69 2.34992 157.85 2.34992C158.03 2.34992 158.19 2.34992 158.33 2.34992C158.49 2.34992 158.61 2.34992 158.69 2.34992C158.79 2.32992 158.84 2.31992 158.84 2.31992C159.28 2.35992 159.59 2.50992 159.77 2.76992C159.95 3.00992 160.02 3.29992 159.98 3.63992C159.88 4.45992 159.41 4.84992 158.57 4.80992C158.41 4.80992 158.21 4.76992 157.97 4.68992C157.73 4.58992 157.49 4.47992 157.25 4.35992C156.97 4.33992 156.63 4.31992 156.23 4.29992C155.85 4.27992 155.44 4.26992 155 4.26992C154.58 4.24992 154.15 4.23992 153.71 4.23992C153.29 4.23992 152.9 4.23992 152.54 4.23992H150.77Z" fill="black"/>
<path d="M134.343 16.9299C134.523 16.7299 134.803 16.5899 135.183 16.5099C135.583 16.4299 136.013 16.3899 136.473 16.3899C136.953 16.3899 137.423 16.4199 137.883 16.4799C138.343 16.5399 138.733 16.6099 139.053 16.6899C140.273 17.0099 141.213 17.5099 141.873 18.1899C142.533 18.8699 142.843 19.8399 142.803 21.0999C142.783 21.6199 142.683 22.1199 142.503 22.5999C142.343 23.0799 142.073 23.5199 141.693 23.9199C141.293 24.3399 140.813 24.6899 140.253 24.9699C139.713 25.2499 139.123 25.4599 138.483 25.5999C137.863 25.7599 137.223 25.8599 136.563 25.8999C135.923 25.9599 135.313 25.9699 134.733 25.9299C134.113 25.8899 133.453 25.7899 132.753 25.6299C132.073 25.4699 131.443 25.2199 130.863 24.8799C130.283 24.5399 129.793 24.0999 129.393 23.5599C129.013 23.0199 128.813 22.3499 128.793 21.5499C128.773 21.0099 128.883 20.4799 129.123 19.9599C129.363 19.4399 129.693 18.9699 130.113 18.5499C130.533 18.1099 131.033 17.7399 131.613 17.4399C132.193 17.1399 132.813 16.9399 133.473 16.8399C133.653 16.7999 133.803 16.7899 133.923 16.8099C134.043 16.8299 134.183 16.8699 134.343 16.9299ZM125.583 1.98994C126.063 2.04994 126.573 2.09994 127.113 2.13994C127.653 2.15994 128.183 2.17994 128.703 2.19994C129.223 2.19994 129.703 2.19994 130.143 2.19994C130.583 2.17994 130.953 2.15994 131.253 2.13994L132.663 2.07994C133.183 2.03994 133.573 2.08994 133.833 2.22994C134.093 2.36994 134.263 2.68994 134.343 3.18994C134.383 3.42994 134.413 3.73994 134.433 4.11994C134.453 4.47994 134.463 4.85994 134.463 5.25994C134.463 5.63994 134.453 5.99994 134.433 6.33994C134.433 6.67994 134.423 6.94994 134.403 7.14994C134.363 7.60994 134.323 7.97994 134.283 8.25994C134.263 8.51994 134.213 8.72994 134.133 8.88994C134.053 9.02994 133.933 9.12994 133.773 9.18994C133.633 9.24994 133.433 9.28994 133.173 9.30994C133.053 9.30994 132.903 9.30994 132.723 9.30994C132.563 9.28994 132.373 9.27994 132.153 9.27994H127.293C127.273 9.49994 127.253 9.76994 127.233 10.0899C127.213 10.3899 127.193 10.6899 127.173 10.9899C127.173 11.2899 127.173 11.5699 127.173 11.8299C127.173 12.0899 127.173 12.2899 127.173 12.4299C127.173 12.7299 127.193 12.9199 127.233 12.9999C127.293 13.0599 127.433 13.1099 127.653 13.1499C127.933 13.1899 128.253 13.2199 128.613 13.2399C128.993 13.2399 129.363 13.2399 129.723 13.2399C130.103 13.2399 130.453 13.2399 130.773 13.2399C131.113 13.2399 131.393 13.2399 131.613 13.2399C131.733 13.2399 131.923 13.2399 132.183 13.2399C132.443 13.2399 132.703 13.2399 132.963 13.2399C133.243 13.2199 133.503 13.2099 133.743 13.2099C133.983 13.2099 134.143 13.2099 134.223 13.2099C134.823 13.2099 135.263 13.2899 135.543 13.4499C135.843 13.6099 135.983 13.8999 135.963 14.3199C135.943 14.7199 135.793 14.9899 135.513 15.1299C135.253 15.2699 134.923 15.3199 134.523 15.2799C134.123 15.2599 133.613 15.2399 132.993 15.2199C132.373 15.1999 131.723 15.1799 131.043 15.1599C130.383 15.1399 129.733 15.1199 129.093 15.0999C128.473 15.0799 127.963 15.0599 127.563 15.0399C126.643 14.9999 125.993 14.8299 125.613 14.5299C125.233 14.2099 125.043 13.6799 125.043 12.9399C125.043 12.6599 125.043 12.3099 125.043 11.8899C125.043 11.4699 125.053 11.0499 125.073 10.6299C125.093 10.2099 125.113 9.80994 125.133 9.42994C125.153 9.04994 125.183 8.76994 125.223 8.58994C125.283 8.16994 125.423 7.87994 125.643 7.71994C125.863 7.53994 126.213 7.43994 126.693 7.41994C127.053 7.39994 127.453 7.38994 127.893 7.38994C128.333 7.36994 128.763 7.35994 129.183 7.35994C129.623 7.35994 130.033 7.36994 130.413 7.38994C130.813 7.38994 131.163 7.38994 131.463 7.38994C131.823 7.38994 132.053 7.34994 132.153 7.26994C132.253 7.16994 132.303 6.99994 132.303 6.75994C132.303 6.61994 132.303 6.43994 132.303 6.21994C132.303 5.99994 132.293 5.76994 132.273 5.52994C132.273 5.28994 132.273 5.05994 132.273 4.83994C132.273 4.59994 132.273 4.39994 132.273 4.23994C132.273 4.15994 132.223 4.08994 132.123 4.02994C132.043 3.96994 131.943 3.94994 131.823 3.96994C131.463 4.00994 130.993 4.03994 130.413 4.05994C129.853 4.05994 129.263 4.05994 128.643 4.05994C128.043 4.03994 127.453 4.01994 126.873 3.99994C126.313 3.97994 125.843 3.94994 125.463 3.90994C124.983 3.84994 124.663 3.73994 124.503 3.57994C124.343 3.39994 124.263 3.14994 124.263 2.82994C124.263 2.52994 124.373 2.29994 124.593 2.13994C124.813 1.97994 125.143 1.92994 125.583 1.98994ZM139.983 22.4199C140.303 21.9599 140.483 21.5399 140.523 21.1599C140.583 20.7799 140.533 20.4299 140.373 20.1099C140.233 19.7899 139.993 19.5199 139.653 19.2999C139.313 19.0599 138.903 18.8599 138.423 18.6999C138.143 18.5999 137.843 18.5399 137.523 18.5199C137.223 18.4799 136.913 18.4599 136.593 18.4599C136.233 18.4599 135.903 18.4799 135.603 18.5199C135.323 18.5599 135.083 18.5499 134.883 18.4899C134.303 18.5499 133.773 18.6999 133.293 18.9399C132.653 19.2599 132.113 19.6299 131.673 20.0499C131.253 20.4699 131.063 21.0199 131.103 21.6999C131.123 22.0399 131.233 22.3399 131.433 22.5999C131.653 22.8799 131.933 23.1199 132.273 23.3199C132.633 23.5399 133.033 23.6999 133.473 23.7999C133.913 23.9199 134.373 23.9799 134.853 23.9799C135.333 23.9799 135.823 23.9599 136.323 23.9199C136.843 23.8799 137.333 23.7999 137.793 23.6799C138.273 23.5599 138.703 23.3999 139.083 23.1999C139.463 22.9999 139.763 22.7399 139.983 22.4199ZM146.253 8.25994C146.073 8.23994 145.783 8.23994 145.383 8.25994C145.003 8.25994 144.603 8.26994 144.183 8.28994C143.763 8.30994 143.353 8.32994 142.953 8.34994C142.573 8.36994 142.283 8.37994 142.083 8.37994C142.083 8.49994 142.083 8.73994 142.083 9.09994C142.083 9.43994 142.083 9.81994 142.083 10.2399C142.103 10.6599 142.113 11.0799 142.113 11.4999C142.113 11.8999 142.113 12.2199 142.113 12.4599C142.113 12.6399 142.123 12.8799 142.143 13.1799C142.183 13.4599 142.203 13.7099 142.203 13.9299C142.203 14.3299 142.103 14.6799 141.903 14.9799C141.703 15.2599 141.443 15.3999 141.123 15.3999C140.723 15.3999 140.413 15.2999 140.193 15.0999C139.993 14.8999 139.893 14.6699 139.893 14.4099C139.893 13.8699 139.883 13.0999 139.863 12.0999C139.843 11.0799 139.823 10.0099 139.803 8.88994C139.803 7.74994 139.793 6.62994 139.773 5.52994C139.753 4.40994 139.743 3.46994 139.743 2.70994C139.743 2.36994 139.863 2.11994 140.103 1.95994C140.343 1.77994 140.603 1.68994 140.883 1.68994C141.163 1.68994 141.403 1.77994 141.603 1.95994C141.823 2.11994 141.943 2.37994 141.963 2.73994C142.003 3.27994 142.023 3.81994 142.023 4.35994C142.023 4.87994 142.023 5.58994 142.023 6.48994C142.343 6.46994 142.703 6.43994 143.103 6.39994C143.523 6.35994 143.943 6.32994 144.363 6.30994C144.783 6.28994 145.183 6.27994 145.563 6.27994C145.963 6.25994 146.313 6.26994 146.613 6.30994C146.853 6.34994 147.033 6.47994 147.153 6.69994C147.293 6.91994 147.363 7.13994 147.363 7.35994C147.363 7.59994 147.263 7.82994 147.063 8.04994C146.883 8.24994 146.613 8.31994 146.253 8.25994Z" fill="black"/>
<path d="M109.893 4.27002C110.333 4.27002 110.663 4.44002 110.883 4.78002C111.083 5.12002 111.133 5.52002 111.033 5.98002C110.933 6.44002 110.813 6.85002 110.673 7.21002C110.433 7.85002 110.043 8.60002 109.503 9.46002C108.983 10.3 108.443 11.23 107.883 12.25C108.683 13.39 109.433 14.49 110.133 15.55C110.853 16.59 111.643 17.74 112.503 19C112.743 19.4 112.823 19.78 112.743 20.14C112.683 20.5 112.513 20.74 112.233 20.86C111.993 20.96 111.733 20.99 111.453 20.95C111.173 20.89 110.913 20.71 110.673 20.41C110.213 19.79 109.803 19.22 109.443 18.7C109.083 18.16 108.743 17.66 108.423 17.2C108.103 16.72 107.803 16.26 107.523 15.82C107.243 15.38 106.953 14.94 106.653 14.5C106.133 15.4 105.663 16.31 105.243 17.23C104.823 18.15 104.453 19.04 104.133 19.9C104.053 20.12 104.013 20.34 104.013 20.56C104.013 20.76 103.983 20.96 103.923 21.16C103.763 21.7 103.473 22.04 103.053 22.18C102.653 22.32 102.283 22.3 101.943 22.12C101.383 21.76 101.243 21.14 101.523 20.26C101.923 18.94 102.503 17.59 103.263 16.21C104.023 14.81 104.793 13.45 105.573 12.13L106.593 10.42C107.093 9.58002 107.523 8.81002 107.883 8.11002C108.263 7.39002 108.533 6.75002 108.693 6.19002C108.293 6.17002 107.843 6.17002 107.343 6.19002C106.843 6.19002 106.333 6.20002 105.813 6.22002C105.233 6.26002 104.643 6.32002 104.043 6.40002C103.443 6.48002 102.823 6.56002 102.183 6.64002C101.663 6.68002 101.283 6.67002 101.043 6.61002C100.803 6.53002 100.633 6.30002 100.533 5.92002C100.473 5.64002 100.553 5.39002 100.773 5.17002C100.993 4.93002 101.393 4.76002 101.973 4.66002C102.473 4.62002 103.063 4.56002 103.743 4.48002C104.423 4.38002 104.993 4.33002 105.453 4.33002C105.693 4.33002 105.913 4.33002 106.113 4.33002C106.313 4.31002 106.503 4.30002 106.683 4.30002C106.883 4.28002 107.083 4.27002 107.283 4.27002C107.503 4.25002 107.763 4.24002 108.063 4.24002C108.303 4.24002 108.593 4.25002 108.933 4.27002C109.293 4.27002 109.613 4.27002 109.893 4.27002ZM121.923 12.49C121.603 12.53 121.333 12.56 121.113 12.58C120.893 12.6 120.643 12.61 120.363 12.61C119.923 12.61 119.543 12.61 119.223 12.61C118.903 12.59 118.513 12.55 118.053 12.49C118.033 12.89 118.013 13.25 117.993 13.57C117.993 13.87 117.993 14.19 117.993 14.53C117.993 14.85 117.993 15.21 117.993 15.61C117.993 15.99 117.993 16.46 117.993 17.02C117.993 18.22 117.993 19.28 117.993 20.2C117.993 21.1 117.983 21.92 117.963 22.66C117.943 23.16 117.843 23.57 117.663 23.89C117.503 24.21 117.223 24.37 116.823 24.37C116.543 24.37 116.323 24.31 116.163 24.19C116.023 24.09 115.913 23.96 115.833 23.8C115.753 23.64 115.703 23.45 115.683 23.23C115.663 23.03 115.653 22.84 115.653 22.66V17.89C115.653 16.93 115.643 15.99 115.623 15.07C115.623 14.13 115.623 13.21 115.623 12.31V4.90002C115.623 4.44002 115.733 4.10002 115.953 3.88002C116.193 3.64002 116.473 3.52002 116.793 3.52002C117.073 3.52002 117.343 3.64002 117.603 3.88002C117.863 4.12002 117.993 4.47002 117.993 4.93002C117.993 5.23002 117.983 5.46002 117.963 5.62002C117.963 5.76002 117.963 5.88002 117.963 5.98002V10.54C118.263 10.56 118.503 10.57 118.683 10.57C118.883 10.57 119.203 10.57 119.643 10.57C120.043 10.57 120.403 10.56 120.723 10.54C121.063 10.52 121.463 10.49 121.923 10.45C122.303 10.45 122.583 10.56 122.763 10.78C122.963 10.98 123.063 11.2 123.063 11.44C123.063 11.64 122.973 11.86 122.793 12.1C122.633 12.34 122.343 12.47 121.923 12.49Z" fill="black"/>
<path d="M78.4802 16.69C78.9002 16.69 79.2802 16.69 79.6202 16.69C79.9602 16.69 80.2902 16.69 80.6102 16.69C80.9502 16.69 81.2902 16.69 81.6302 16.69C81.9902 16.67 82.3802 16.64 82.8002 16.6C83.3402 16.56 83.7402 16.62 84.0002 16.78C84.2602 16.92 84.4402 17.25 84.5402 17.77C84.6202 18.29 84.6602 18.79 84.6602 19.27C84.6602 19.75 84.6402 20.19 84.6002 20.59C84.5602 21.05 84.5202 21.43 84.4802 21.73C84.4402 22.01 84.3802 22.23 84.3002 22.39C84.2202 22.57 84.1002 22.69 83.9402 22.75C83.8002 22.83 83.6002 22.88 83.3402 22.9H76.5602C76.5202 23.1 76.4902 23.31 76.4702 23.53C76.4502 23.77 76.4402 24.01 76.4402 24.25C76.4402 24.57 76.4602 24.76 76.5002 24.82C76.5602 24.9 76.7002 24.95 76.9202 24.97C78.0002 25.05 79.1202 25.08 80.2802 25.06C81.4602 25.06 82.6502 25.03 83.8502 24.97C84.1102 24.95 84.4302 24.94 84.8102 24.94C85.2102 24.94 85.5002 24.94 85.6802 24.94C86.3002 24.94 86.7602 25.03 87.0602 25.21C87.3602 25.39 87.5002 25.69 87.4802 26.11C87.4602 26.53 87.3002 26.81 87.0002 26.95C86.7002 27.11 86.3502 27.17 85.9502 27.13C85.5502 27.11 84.9302 27.09 84.0902 27.07C83.2502 27.07 82.3602 27.06 81.4202 27.04C80.5002 27.04 79.6102 27.03 78.7502 27.01C77.9102 27.01 77.2802 27 76.8602 26.98C75.9002 26.94 75.2202 26.76 74.8202 26.44C74.4402 26.12 74.2502 25.57 74.2502 24.79C74.2502 24.21 74.2602 23.71 74.2802 23.29C74.3202 22.89 74.3702 22.49 74.4302 22.09C74.5302 21.67 74.6802 21.36 74.8802 21.16C75.1002 20.96 75.4702 20.85 75.9902 20.83C76.3702 20.81 76.8202 20.8 77.3402 20.8C77.8802 20.78 78.4202 20.77 78.9602 20.77C79.5002 20.77 80.0202 20.78 80.5202 20.8C81.0202 20.8 81.4202 20.8 81.7202 20.8C82.0802 20.8 82.3102 20.76 82.4102 20.68C82.5302 20.58 82.5802 20.4 82.5602 20.14C82.5602 20 82.5602 19.78 82.5602 19.48C82.5802 19.16 82.5802 18.92 82.5602 18.76C82.5602 18.56 82.4002 18.47 82.0802 18.49C81.7202 18.53 81.1802 18.56 80.4602 18.58C79.7602 18.58 79.0202 18.58 78.2402 18.58C77.4602 18.56 76.7102 18.54 75.9902 18.52C75.2702 18.48 74.7202 18.44 74.3402 18.4C73.8202 18.36 73.4802 18.26 73.3202 18.1C73.1602 17.94 73.0802 17.69 73.0802 17.35C73.0802 17.05 73.1902 16.82 73.4102 16.66C73.6502 16.48 74.0002 16.42 74.4602 16.48C74.9402 16.56 75.5602 16.62 76.3202 16.66C77.0802 16.68 77.8002 16.69 78.4802 16.69ZM75.3302 1.53996C76.2702 1.51996 77.1902 1.48996 78.0902 1.44996C78.9902 1.38996 80.0302 1.31996 81.2102 1.23996C81.5502 1.19996 81.9002 1.16996 82.2602 1.14996C82.6202 1.12996 82.8902 1.10996 83.0702 1.08996C83.5102 1.06996 83.8502 1.10996 84.0902 1.20996C84.3302 1.30996 84.5002 1.57996 84.6002 2.01996C84.6402 2.23996 84.6702 2.52996 84.6902 2.88996C84.7302 3.22996 84.7502 3.59996 84.7502 3.99996C84.7702 4.37996 84.7802 4.76996 84.7802 5.16996C84.7802 5.54996 84.7702 5.88996 84.7502 6.18996C84.7302 6.62996 84.6202 6.94996 84.4202 7.14996C84.2402 7.34996 83.9202 7.46996 83.4602 7.50996C83.3402 7.52996 83.2002 7.53996 83.0402 7.53996C82.8802 7.53996 82.6902 7.53996 82.4702 7.53996C81.9302 7.53996 81.4202 7.54996 80.9402 7.56996C80.4802 7.56996 80.0202 7.57996 79.5602 7.59996C79.1002 7.59996 78.6402 7.60996 78.1802 7.62996C77.7202 7.62996 77.2202 7.62996 76.6802 7.62996C76.6002 7.84996 76.5402 8.12996 76.5002 8.46996C76.4602 8.80996 76.4302 9.09996 76.4102 9.33996C76.3902 9.61996 76.4102 9.80996 76.4702 9.90996C76.5302 9.98996 76.7002 10.04 76.9802 10.06C77.2002 10.08 77.4602 10.1 77.7602 10.12C78.0602 10.12 78.3402 10.12 78.6002 10.12C79.0802 10.12 79.4702 10.12 79.7702 10.12C80.0702 10.12 80.3402 10.13 80.5802 10.15C80.8202 10.15 81.0602 10.15 81.3002 10.15C81.5402 10.15 81.8302 10.15 82.1702 10.15C82.7702 10.15 83.2802 10.16 83.7002 10.18C84.1202 10.18 84.5302 10.21 84.9302 10.27C85.9902 10.37 86.5102 10.74 86.4902 11.38C86.4502 11.78 86.3002 12.04 86.0402 12.16C85.8002 12.28 85.5002 12.34 85.1402 12.34C84.8402 12.34 84.5602 12.32 84.3002 12.28C84.0602 12.22 83.8802 12.18 83.7602 12.16C83.5002 12.14 83.1902 12.12 82.8302 12.1C82.4702 12.08 82.0802 12.07 81.6602 12.07C81.2402 12.07 80.8002 12.07 80.3402 12.07C79.9002 12.07 79.4702 12.07 79.0502 12.07C78.5302 12.07 78.0002 12.07 77.4602 12.07C76.9202 12.05 76.4502 12.03 76.0502 12.01C75.4102 11.97 74.9502 11.82 74.6702 11.56C74.3902 11.3 74.2602 10.82 74.2802 10.12C74.3002 9.55996 74.3402 8.96996 74.4002 8.34996C74.4802 7.70996 74.5802 7.13996 74.7002 6.63996C74.7802 6.23996 74.9302 5.96996 75.1502 5.82996C75.3702 5.66996 75.7102 5.57996 76.1702 5.55996C77.1302 5.53996 78.0902 5.52996 79.0502 5.52996C80.0302 5.50996 81.0702 5.47996 82.1702 5.43996C82.5502 5.43996 82.7402 5.24996 82.7402 4.86996C82.7402 4.58996 82.7302 4.33996 82.7102 4.11996C82.6902 3.87996 82.6502 3.66996 82.5902 3.48996C82.5702 3.28996 82.4502 3.18996 82.2302 3.18996C81.8102 3.22996 81.3502 3.26996 80.8502 3.30996C80.3702 3.34996 79.9102 3.38996 79.4702 3.42996C78.8302 3.46996 78.1902 3.50996 77.5502 3.54996C76.9302 3.58996 76.2602 3.58996 75.5402 3.54996C75.0802 3.54996 74.7402 3.45996 74.5202 3.27996C74.3202 3.09996 74.1902 2.85996 74.1302 2.55996C74.1102 2.27996 74.2002 2.03996 74.4002 1.83996C74.6202 1.63996 74.9302 1.53996 75.3302 1.53996ZM80.8202 13.15C81.2602 13.15 81.8302 13.17 82.5302 13.21C83.2502 13.23 83.9802 13.26 84.7202 13.3C85.4802 13.32 86.2002 13.35 86.8802 13.39C87.5602 13.43 88.0902 13.46 88.4702 13.48C88.7702 13.52 89.0202 13.63 89.2202 13.81C89.4402 13.99 89.5502 14.23 89.5502 14.53C89.5502 15.11 89.1602 15.38 88.3802 15.34C88.2002 15.34 87.8802 15.33 87.4202 15.31C86.9802 15.29 86.4702 15.27 85.8902 15.25C85.3302 15.21 84.7302 15.17 84.0902 15.13C83.4502 15.09 82.8402 15.06 82.2602 15.04C81.6202 15.02 80.9402 15.01 80.2202 15.01C79.5002 14.99 78.7902 14.98 78.0902 14.98C77.4102 14.98 76.7702 14.99 76.1702 15.01C75.5902 15.01 75.1102 15.03 74.7302 15.07C74.5102 15.09 74.2702 15.13 74.0102 15.19C73.7702 15.25 73.5202 15.28 73.2602 15.28C72.9802 15.28 72.6702 15.2 72.3302 15.04C72.0102 14.86 71.8602 14.58 71.8802 14.2C71.8802 13.86 72.0002 13.62 72.2402 13.48C72.5002 13.34 72.8402 13.25 73.2602 13.21C73.6202 13.19 74.1502 13.18 74.8502 13.18C75.5502 13.16 76.2802 13.15 77.0402 13.15C77.8002 13.15 78.5302 13.15 79.2302 13.15C79.9302 13.15 80.4602 13.15 80.8202 13.15Z" fill="black"/>
<path d="M54.9763 20.44C55.8363 20.4 56.6963 20.38 57.5563 20.38C58.4163 20.36 59.2963 20.37 60.1963 20.41C61.1163 20.45 61.8663 20.45 62.4463 20.41C62.8463 20.39 63.1863 20.47 63.4663 20.65C63.7463 20.83 63.9063 21.09 63.9463 21.43C63.9863 21.71 63.9163 22 63.7363 22.3C63.5563 22.6 63.2563 22.75 62.8363 22.75C62.3763 22.75 61.9463 22.72 61.5463 22.66C61.1463 22.62 60.7063 22.58 60.2263 22.54C59.6263 22.52 58.9763 22.51 58.2763 22.51C57.5763 22.51 56.8663 22.52 56.1463 22.54C55.4263 22.56 54.7063 22.58 53.9863 22.6C53.2863 22.64 52.6263 22.68 52.0063 22.72C51.6663 22.76 51.3563 22.8 51.0763 22.84C50.7963 22.9 50.5663 22.93 50.3863 22.93C49.9263 22.93 49.5563 22.85 49.2763 22.69C48.9963 22.55 48.8063 22.3 48.7063 21.94C48.6663 21.62 48.7263 21.34 48.8863 21.1C49.0663 20.86 49.2963 20.73 49.5763 20.71C50.4763 20.65 51.3563 20.6 52.2163 20.56C53.0963 20.52 54.0163 20.48 54.9763 20.44ZM49.9663 13.18C50.0663 12.62 50.2763 12.09 50.5963 11.59C50.9163 11.07 51.3163 10.61 51.7963 10.21C52.2763 9.78996 52.8263 9.43995 53.4463 9.15996C54.0663 8.87996 54.7263 8.67996 55.4263 8.55996C55.4263 8.39996 55.5463 8.27996 55.7863 8.19996C56.0463 8.09996 56.3163 8.03996 56.5963 8.01996C56.9963 7.97996 57.4263 8.01996 57.8863 8.13996C58.3663 8.25996 58.8063 8.40996 59.2063 8.58996C60.0463 8.96996 60.6963 9.53996 61.1563 10.3C61.6163 11.06 61.8263 11.92 61.7863 12.88C61.7463 14.02 61.5263 14.96 61.1263 15.7C60.7463 16.44 60.2463 17.03 59.6263 17.47C59.0263 17.89 58.3363 18.2 57.5563 18.4C56.7963 18.58 56.0163 18.68 55.2163 18.7C54.4763 18.72 53.7763 18.64 53.1163 18.46C52.4763 18.26 51.9163 17.97 51.4363 17.59C50.9563 17.21 50.5763 16.74 50.2963 16.18C50.0163 15.62 49.8763 14.99 49.8763 14.29C49.8763 13.91 49.9063 13.54 49.9663 13.18ZM52.1563 13.6C52.0563 14.08 52.0763 14.52 52.2163 14.92C52.3563 15.3 52.5763 15.63 52.8763 15.91C53.1763 16.17 53.5363 16.37 53.9563 16.51C54.3963 16.63 54.8563 16.68 55.3363 16.66C55.8363 16.64 56.3263 16.57 56.8063 16.45C57.2863 16.33 57.7163 16.13 58.0963 15.85C58.4963 15.57 58.8163 15.19 59.0563 14.71C59.3163 14.23 59.4663 13.62 59.5063 12.88C59.5463 12.18 59.3563 11.62 58.9363 11.2C58.5363 10.76 58.0763 10.47 57.5563 10.33C57.4763 10.47 57.3363 10.56 57.1363 10.6C56.9563 10.64 56.7463 10.67 56.5063 10.69C56.2863 10.69 56.0563 10.69 55.8163 10.69C55.5963 10.67 55.4163 10.68 55.2763 10.72C54.3163 10.92 53.5863 11.3 53.0863 11.86C52.5863 12.4 52.2763 12.98 52.1563 13.6ZM51.2263 7.35995C50.9263 7.37996 50.6663 7.28996 50.4463 7.08996C50.2463 6.88996 50.1263 6.64996 50.0863 6.36996C50.0663 6.08996 50.1463 5.82995 50.3263 5.58995C50.5263 5.34996 50.7763 5.20995 51.0763 5.16995C51.7363 5.10996 52.4463 5.05996 53.2063 5.01995C53.9663 4.95996 54.7363 4.91996 55.5163 4.89995C56.2963 4.85996 57.0663 4.83996 57.8263 4.83996C58.5863 4.83996 59.3163 4.85996 60.0163 4.89995C60.9363 4.99996 61.3463 5.39996 61.2463 6.09996C61.2463 6.33996 61.1563 6.54996 60.9763 6.72996C60.8163 6.90996 60.5863 7.00996 60.2863 7.02996C60.1263 7.04996 59.9663 7.07995 59.8063 7.11996C59.6663 7.13995 59.5163 7.12996 59.3563 7.08996C58.7363 7.00996 58.0763 6.96995 57.3763 6.96995C56.6963 6.94995 56.0063 6.95996 55.3063 6.99996C54.6063 7.03996 53.9063 7.09996 53.2063 7.17996C52.5063 7.23996 51.8463 7.29996 51.2263 7.35995ZM51.1663 3.36996C50.7863 3.36996 50.4863 3.27995 50.2663 3.09995C50.0463 2.91995 49.9363 2.66995 49.9363 2.34996C49.9363 2.02996 50.0263 1.77996 50.2063 1.59996C50.4063 1.41996 50.6563 1.32996 50.9563 1.32996C51.2163 1.32996 51.5163 1.33996 51.8563 1.35996C52.1963 1.35996 52.5463 1.36996 52.9063 1.38996C53.2663 1.38996 53.6163 1.39996 53.9563 1.41995C54.2963 1.43995 54.6063 1.45995 54.8863 1.47996C55.4663 1.51996 56.0563 1.55996 56.6563 1.59996C57.2563 1.61996 57.8263 1.65996 58.3663 1.71995C58.7063 1.77995 58.9363 1.91996 59.0563 2.13995C59.1763 2.35996 59.2163 2.60996 59.1763 2.88996C59.1163 3.58995 58.7063 3.91995 57.9463 3.87996C57.7863 3.87996 57.4263 3.83995 56.8663 3.75995C56.3063 3.65995 55.6463 3.56996 54.8863 3.48995C54.3663 3.44996 53.8063 3.41996 53.2063 3.39996C52.6263 3.37995 51.9463 3.36996 51.1663 3.36996ZM66.7663 14.47C66.8063 13.45 66.8363 12.51 66.8563 11.65C66.8763 10.79 66.8963 9.96996 66.9163 9.18996C66.9363 8.40996 66.9463 7.64996 66.9463 6.90996C66.9463 6.16996 66.9463 5.39996 66.9463 4.59995C66.9463 4.17996 67.0263 3.80996 67.1863 3.48995C67.3463 3.14996 67.6563 2.97996 68.1163 2.97996C68.6163 2.97996 68.9363 3.10996 69.0763 3.36996C69.2363 3.62996 69.2963 4.03995 69.2563 4.59995C69.1763 5.85996 69.1263 7.19996 69.1063 8.61996C69.1063 10.04 69.0863 11.38 69.0463 12.64C69.0263 13.34 68.9963 14.02 68.9563 14.68C68.9363 15.32 68.9163 15.97 68.8963 16.63C68.8763 17.27 68.8563 17.94 68.8363 18.64C68.8163 19.32 68.8063 20.05 68.8063 20.83C68.8463 21.01 68.8663 21.21 68.8663 21.43C68.8863 21.65 68.8963 21.9 68.8963 22.18C68.8963 22.58 68.7963 22.92 68.5963 23.2C68.4163 23.5 68.1263 23.65 67.7263 23.65C66.9663 23.65 66.5863 23.27 66.5863 22.51C66.5863 21.63 66.6163 20.56 66.6763 19.3C66.7563 18.04 66.7863 16.43 66.7663 14.47Z" fill="black"/>
<path d="M29.4073 23.1999C29.4073 22.8599 29.5273 22.5999 29.7673 22.4199C29.6673 21.9599 29.5473 21.5099 29.4073 21.0699C29.2873 20.6099 29.1973 20.1299 29.1373 19.6299C29.0973 19.3899 29.0573 19.1499 29.0173 18.9099C28.9973 18.6499 28.9673 18.3999 28.9273 18.1599C28.9073 17.9199 28.8873 17.7099 28.8673 17.5299C28.8473 17.3299 28.8373 17.1799 28.8373 17.0799C28.8773 16.7599 28.9773 16.4799 29.1373 16.2399C29.3173 15.9799 29.6373 15.8299 30.0973 15.7899C30.7173 15.7299 31.5373 15.6799 32.5573 15.6399C33.5773 15.5799 34.6473 15.5399 35.7673 15.5199C36.9073 15.4799 38.0273 15.4599 39.1273 15.4599C40.2473 15.4399 41.2073 15.4399 42.0073 15.4599C42.8273 15.4999 43.2373 15.9599 43.2373 16.8399C43.2373 17.1999 43.2373 17.5999 43.2373 18.0399C43.2373 18.4599 43.2273 18.8999 43.2073 19.3599C43.2073 19.7999 43.2073 20.2299 43.2073 20.6499C43.2073 21.0699 43.2073 21.4399 43.2073 21.7599C43.2073 22.1999 43.1873 22.5499 43.1473 22.8099C43.1273 23.0699 43.0473 23.2599 42.9073 23.3799C42.7873 23.5199 42.5973 23.5999 42.3373 23.6199C42.0773 23.6599 41.7173 23.6799 41.2573 23.6799C39.5573 23.7199 37.9073 23.7699 36.3073 23.8299C34.7073 23.9099 33.3073 24.0099 32.1073 24.1299C31.8673 24.1699 31.6073 24.1999 31.3273 24.2199C31.0673 24.2599 30.8273 24.2799 30.6073 24.2799C30.2073 24.2799 29.9073 24.1799 29.7073 23.9799C29.5073 23.7799 29.4073 23.5199 29.4073 23.1999ZM35.5273 2.25994C35.7073 2.17994 35.9173 2.12994 36.1573 2.10994C36.4173 2.08994 36.6573 2.10994 36.8773 2.16994C37.0973 2.22994 37.2873 2.33994 37.4473 2.49994C37.6073 2.65994 37.6973 2.86994 37.7173 3.12994C37.7573 3.72994 37.4873 4.07994 36.9073 4.17994C36.6673 4.21994 36.3973 4.23994 36.0973 4.23994C35.7973 4.21994 35.5373 4.18994 35.3173 4.14994C35.2173 4.12994 35.1273 4.11994 35.0473 4.11994C34.9673 4.11994 34.9073 4.11994 34.8673 4.11994C34.7273 4.11994 34.6573 4.18994 34.6573 4.32994C34.6573 4.90994 34.6473 5.48994 34.6273 6.06994C34.6073 6.64994 34.5773 7.22994 34.5373 7.80994C34.4973 8.38994 34.4573 9.04994 34.4173 9.78994C34.3973 10.5099 34.3873 11.1599 34.3873 11.7399C34.3873 11.8399 34.4673 11.9099 34.6273 11.9499C34.8073 11.9699 35.1073 11.9899 35.5273 12.0099C35.8073 12.0299 36.1073 12.0599 36.4273 12.0999C36.7473 12.1399 36.9973 12.1899 37.1773 12.2499C37.4573 12.3499 37.6873 12.5199 37.8673 12.7599C38.0673 12.9999 38.0673 13.2899 37.8673 13.6299C37.7673 13.7699 37.6373 13.8599 37.4773 13.8999C37.3373 13.9199 37.2073 13.9299 37.0873 13.9299H36.9073C35.8873 13.8099 34.7973 13.7299 33.6373 13.6899C32.4773 13.6299 31.2973 13.5999 30.0973 13.5999C29.2573 13.5999 28.4473 13.6099 27.6673 13.6299C26.8873 13.6499 26.1773 13.6699 25.5373 13.6899C25.3573 13.6899 25.1773 13.6799 24.9973 13.6599C24.8173 13.6399 24.6573 13.5899 24.5173 13.5099C24.3773 13.4299 24.2673 13.3099 24.1873 13.1499C24.1073 12.9899 24.0773 12.7699 24.0973 12.4899C24.1173 12.2699 24.2173 12.0999 24.3973 11.9799C24.5773 11.8599 24.7973 11.7999 25.0573 11.7999C25.1373 11.7999 25.2273 11.7999 25.3273 11.7999C25.4273 11.7999 25.5673 11.7899 25.7473 11.7699C25.9273 11.7699 26.1473 11.7699 26.4073 11.7699C26.6673 11.7499 27.0273 11.7299 27.4873 11.7099L27.8173 7.44994L28.0573 4.32994C27.9173 4.32994 27.7873 4.33994 27.6673 4.35994C27.5473 4.35994 27.4073 4.36994 27.2473 4.38994C27.0873 4.40994 26.9173 4.42994 26.7373 4.44994C26.5773 4.46994 26.4073 4.47994 26.2273 4.47994C25.6073 4.47994 25.1873 4.36994 24.9673 4.14994C24.8073 3.94994 24.7473 3.69994 24.7873 3.39994C24.8273 3.09994 24.9473 2.86994 25.1473 2.70994C25.3273 2.58994 25.6473 2.51994 26.1073 2.49994C26.3073 2.47994 26.5473 2.46994 26.8273 2.46994C27.1273 2.46994 27.4473 2.45994 27.7873 2.43994C28.0073 2.43994 28.2573 2.43994 28.5373 2.43994C28.8173 2.41994 29.1173 2.39994 29.4373 2.37994C29.9373 2.35994 30.4773 2.33994 31.0573 2.31994C31.6373 2.29994 32.1873 2.28994 32.7073 2.28994C33.2273 2.26994 33.6873 2.25994 34.0873 2.25994C34.4873 2.25994 34.7473 2.25994 34.8673 2.25994H35.5273ZM31.1773 17.6499C31.2373 18.4299 31.3173 19.2099 31.4173 19.9899C31.5173 20.7499 31.6373 21.5099 31.7773 22.2699C32.3173 22.2299 32.9273 22.1799 33.6073 22.1199C34.3073 22.0799 35.0273 22.0399 35.7673 21.9999C36.5273 21.9399 37.2973 21.8999 38.0773 21.8799C38.8573 21.8399 39.6273 21.8199 40.3873 21.8199C40.7673 21.8199 40.9873 21.7899 41.0473 21.7299C41.1273 21.6699 41.1673 21.4699 41.1673 21.1299C41.1673 20.9299 41.1673 20.6899 41.1673 20.4099C41.1673 20.1299 41.1673 19.8399 41.1673 19.5399C41.1873 19.2399 41.1973 18.9599 41.1973 18.6999C41.1973 18.4199 41.1973 18.1899 41.1973 18.0099C41.1973 17.7099 41.1573 17.5299 41.0773 17.4699C40.9973 17.3899 40.7973 17.3399 40.4773 17.3199C39.0373 17.2599 37.5473 17.2699 36.0073 17.3499C34.4873 17.4299 32.8773 17.5299 31.1773 17.6499ZM46.3573 8.25994C46.1773 8.23994 45.9173 8.23994 45.5773 8.25994C45.2573 8.25994 44.9173 8.26994 44.5573 8.28994C44.2173 8.30994 43.8873 8.32994 43.5673 8.34994C43.2473 8.36994 42.9873 8.37994 42.7873 8.37994C42.7873 8.49994 42.7873 8.67994 42.7873 8.91994C42.7873 9.15994 42.7873 9.42994 42.7873 9.72994C42.8073 10.0299 42.8173 10.3399 42.8173 10.6599C42.8173 10.9599 42.8173 11.2299 42.8173 11.4699C42.8173 11.6499 42.8273 11.8899 42.8473 12.1899C42.8873 12.4699 42.9073 12.7199 42.9073 12.9399C42.9073 13.3399 42.8073 13.6899 42.6073 13.9899C42.4073 14.2699 42.1473 14.4099 41.8273 14.4099C41.4273 14.4099 41.1173 14.3099 40.8973 14.1099C40.6973 13.9099 40.5973 13.6799 40.5973 13.4199C40.5973 12.8799 40.5873 12.1599 40.5673 11.2599C40.5473 10.3599 40.5273 9.39994 40.5073 8.37994C40.5073 7.35994 40.4973 6.34994 40.4773 5.34994C40.4573 4.34994 40.4473 3.46994 40.4473 2.70994C40.4473 2.36994 40.5673 2.11994 40.8073 1.95994C41.0473 1.77994 41.3073 1.68994 41.5873 1.68994C41.8673 1.68994 42.1073 1.77994 42.3073 1.95994C42.5273 2.11994 42.6473 2.37994 42.6673 2.73994C42.7073 3.27994 42.7273 3.81994 42.7273 4.35994C42.7273 4.87994 42.7273 5.58994 42.7273 6.48994C43.3673 6.42994 44.0373 6.35994 44.7373 6.27994C45.4573 6.19994 46.1173 6.20994 46.7173 6.30994C46.9573 6.34994 47.1373 6.47994 47.2573 6.69994C47.3973 6.91994 47.4673 7.13994 47.4673 7.35994C47.4673 7.59994 47.3673 7.82994 47.1673 8.04994C46.9873 8.24994 46.7173 8.31994 46.3573 8.25994ZM32.5273 6.93994C32.5273 6.05994 32.4673 5.13994 32.3473 4.17994C32.2873 4.15994 32.1873 4.14994 32.0473 4.14994C31.9073 4.12994 31.7373 4.11994 31.5373 4.11994C31.3573 4.11994 31.1573 4.12994 30.9373 4.14994C30.7173 4.16994 30.5173 4.18994 30.3373 4.20994C30.1773 5.34994 30.0373 6.53994 29.9173 7.77994C29.7973 9.01994 29.7373 10.1499 29.7373 11.1699C29.7373 11.4699 29.7673 11.6499 29.8273 11.7099C29.9073 11.7699 30.0573 11.7999 30.2773 11.7999H32.1373C32.2373 11.7199 32.2873 11.6199 32.2873 11.4999L32.3773 10.3299C32.4173 9.80994 32.4473 9.24994 32.4673 8.64994C32.5073 8.02994 32.5273 7.45994 32.5273 6.93994Z" fill="black"/>
<path d="M6.75441 23.3499C6.69441 22.7699 6.86442 22.2699 7.26442 21.8499C7.66442 21.4099 8.18442 21.1899 8.82442 21.1899C9.06442 21.1899 9.30442 21.2399 9.54442 21.3399C9.80442 21.4399 10.0344 21.5799 10.2344 21.7599C10.4344 21.9199 10.5944 22.1099 10.7144 22.3299C10.8544 22.5699 10.9244 22.8199 10.9244 23.0799C10.9244 23.3399 10.8744 23.5899 10.7744 23.8299C10.6744 24.0899 10.5344 24.3199 10.3544 24.5199C10.1944 24.7199 9.99441 24.8799 9.75441 24.9999C9.53441 25.1399 9.29442 25.2099 9.03442 25.2099C8.45442 25.2299 7.94442 25.0699 7.50441 24.7299C7.06442 24.3899 6.81441 23.9299 6.75441 23.3499Z" fill="black"/>
<path d="M1.81055 2.38C2.21055 2.38 2.48055 2.51 2.62055 2.77001C2.78055 3.03001 2.86055 3.41001 2.86055 3.91001C2.86055 4.79001 2.84055 5.62001 2.80055 6.4C2.78055 7.18 2.75055 7.94001 2.71055 8.68001C2.67055 9.40001 2.63055 10.12 2.59055 10.84C2.57055 11.56 2.56055 12.29 2.56055 13.03C2.56055 13.31 2.56055 13.61 2.56055 13.93C2.56055 14.23 2.57055 14.55 2.59055 14.89C2.59055 15.35 2.61055 15.87 2.65055 16.45C2.69055 17.01 2.73055 17.57 2.77055 18.13C2.83055 18.69 2.88055 19.23 2.92055 19.75C2.96055 20.25 2.98055 20.67 2.98055 21.01C2.98055 21.67 2.88055 22.13 2.68055 22.39C2.48055 22.65 2.21055 22.78 1.87055 22.78C1.47055 22.78 1.15055 22.65 0.910547 22.39C0.690547 22.13 0.580547 21.68 0.580547 21.04C0.580547 19.56 0.530548 18.13 0.430548 16.75C0.350548 15.35 0.310547 13.85 0.310547 12.25C0.310547 11.37 0.320548 10.57 0.340548 9.85001C0.380548 9.11001 0.420548 8.41001 0.460548 7.75001C0.500548 7.09001 0.530549 6.46001 0.550549 5.86C0.590549 5.26001 0.610548 4.65001 0.610548 4.03C0.590548 3.45001 0.670548 3.03001 0.850548 2.77001C1.03055 2.51 1.35055 2.38 1.81055 2.38Z" fill="black"/>
</svg>
