<svg width="59" height="22" viewBox="0 0 59 22" fill="none" xmlns="http://www.w3.org/2000/svg">
<path d="M51.6223 16.85C52.4623 16.13 53.0823 15.26 53.4823 14.24C53.8823 13.2 54.0823 12.1 54.0823 10.94C54.0823 10.08 53.9423 9.22003 53.6623 8.36003C53.4023 7.50003 53.0223 6.71003 52.5223 5.99003C52.0423 5.25003 51.4523 4.61003 50.7523 4.07003C50.0523 3.53003 49.2723 3.14003 48.4123 2.90003C48.1323 2.96003 47.8223 3.01003 47.4823 3.05003C47.1623 3.09003 46.8323 3.09003 46.4923 3.05003C45.4123 2.95003 44.4123 3.15003 43.4923 3.65003C42.5923 4.13003 41.8223 4.79003 41.1823 5.63003C40.7823 6.23003 40.4023 6.99003 40.0423 7.91003C39.7023 8.83003 39.5323 9.86003 39.5323 11C39.5323 13 39.9923 14.59 40.9123 15.77C41.8323 16.93 43.1423 17.76 44.8423 18.26C45.3823 18.42 45.9523 18.52 46.5523 18.56C47.1523 18.58 47.7523 18.53 48.3523 18.41C48.9523 18.29 49.5323 18.11 50.0923 17.87C50.6523 17.61 51.1623 17.27 51.6223 16.85ZM39.5023 4.16003C40.0623 3.44003 40.7123 2.82003 41.4523 2.30003C42.2123 1.78003 42.9723 1.39003 43.7323 1.13003C43.9523 0.930029 44.2623 0.760029 44.6623 0.620029C45.0623 0.460029 45.5023 0.370029 45.9823 0.350029C46.5823 0.330029 47.1223 0.350029 47.6023 0.410029C48.0823 0.450029 48.6223 0.55003 49.2223 0.71003C50.2823 0.99003 51.2523 1.46003 52.1323 2.12003C53.0323 2.76003 53.8023 3.54003 54.4423 4.46003C55.0823 5.36003 55.5823 6.36003 55.9423 7.46003C56.3023 8.56003 56.4823 9.70003 56.4823 10.88C56.4823 11.84 56.3523 12.78 56.0923 13.7C55.8523 14.62 55.4623 15.47 54.9223 16.25C55.2023 16.53 55.4923 16.82 55.7923 17.12C56.0923 17.42 56.3823 17.68 56.6623 17.9C57.0023 18.12 57.3623 18.36 57.7423 18.62C58.1223 18.86 58.3723 19.14 58.4923 19.46C58.5723 19.7 58.6023 19.94 58.5823 20.18C58.5823 20.42 58.5023 20.64 58.3423 20.84C58.0823 21.18 57.7623 21.34 57.3823 21.32C57.0023 21.3 56.6323 21.18 56.2723 20.96C55.7323 20.58 55.2323 20.16 54.7723 19.7C54.3323 19.22 53.8523 18.75 53.3323 18.29C52.5723 19.13 51.5823 19.76 50.3623 20.18C49.1623 20.6 47.8923 20.81 46.5523 20.81C45.3923 20.81 44.2423 20.59 43.1023 20.15C41.9823 19.71 40.9723 19.08 40.0723 18.26C39.1723 17.44 38.4423 16.46 37.8823 15.32C37.3423 14.16 37.0723 12.87 37.0723 11.45C37.0723 10.23 37.2623 8.98003 37.6423 7.70003C38.0423 6.42003 38.6623 5.24003 39.5023 4.16003Z" fill="black"/>
<path d="M28.4642 13.46C28.0442 13.46 27.5442 13.45 26.9642 13.43C26.3842 13.41 25.7742 13.39 25.1342 13.37C24.5142 13.33 23.9042 13.29 23.3042 13.25C22.7042 13.21 22.1742 13.18 21.7142 13.16C21.3742 14.02 21.0142 14.88 20.6342 15.74C20.2742 16.58 19.9142 17.43 19.5542 18.29C19.4142 18.61 19.3242 18.92 19.2842 19.22C19.2642 19.5 19.2142 19.8001 19.1342 20.1201C19.0542 20.5201 18.8842 20.8501 18.6242 21.1101C18.3642 21.3701 17.9942 21.4601 17.5142 21.3801C16.9942 21.3001 16.6842 21.04 16.5842 20.6C16.5042 20.18 16.5842 19.6801 16.8242 19.1C16.9442 18.84 17.0742 18.58 17.2142 18.32C17.3542 18.06 17.4742 17.8 17.5742 17.54C18.1742 16.14 18.7842 14.7 19.4042 13.22C20.0242 11.74 20.6242 10.3 21.2042 8.90005C21.7842 7.48005 22.3342 6.14005 22.8542 4.88005C23.3942 3.60005 23.8742 2.46005 24.2942 1.46005C24.4942 1.00005 24.6842 0.650048 24.8642 0.410048C25.0442 0.170049 25.3642 0.0500488 25.8242 0.0500488C26.3042 0.0500488 26.6442 0.180049 26.8442 0.440049C27.0442 0.680048 27.1942 1.02005 27.2942 1.46005C27.7142 2.96005 28.1442 4.46005 28.5842 5.96005C29.0242 7.46005 29.5042 9.09005 30.0242 10.85L32.4242 18.92C32.5642 19.3 32.5942 19.65 32.5142 19.97C32.4342 20.29 32.2142 20.5301 31.8542 20.6901C31.4342 20.8301 31.0842 20.7801 30.8042 20.5401C30.5242 20.3001 30.3342 20.0201 30.2342 19.7001L28.4642 13.46ZM25.6742 3.11005C25.1742 4.49005 24.6642 5.84005 24.1442 7.16005C23.6242 8.48005 23.0842 9.83005 22.5242 11.21C22.9442 11.23 23.3842 11.25 23.8442 11.2701C24.3242 11.29 24.8042 11.31 25.2842 11.33C25.7642 11.35 26.2242 11.37 26.6642 11.39C27.1242 11.39 27.5342 11.39 27.8942 11.39C27.4342 9.69005 27.0142 8.16005 26.6342 6.80005C26.2742 5.44005 25.9542 4.21005 25.6742 3.11005Z" fill="black"/>
<path d="M0.958386 12.9501C0.918386 12.1101 0.868386 11.3201 0.808386 10.5801C0.748386 9.82006 0.678386 9.08006 0.598386 8.36006C0.538386 7.62006 0.468386 6.88006 0.388386 6.14006C0.328386 5.40006 0.268386 4.61006 0.208386 3.77006C0.108386 2.47006 0.628386 1.68006 1.76839 1.40006C3.62839 0.920057 5.59839 0.580057 7.67839 0.380057C9.75839 0.180057 11.7384 0.120057 13.6184 0.200057C14.1384 0.220057 14.5384 0.320057 14.8184 0.500057C15.0984 0.680057 15.2184 0.950057 15.1784 1.31006C15.1184 2.03006 14.6784 2.37006 13.8584 2.33006C13.6384 2.31006 13.3784 2.27006 13.0784 2.21006C12.7784 2.15006 12.5084 2.12006 12.2684 2.12006C10.7484 2.14006 9.20839 2.25006 7.64839 2.45006C6.10839 2.63006 4.72839 2.84006 3.50839 3.08006C3.08839 3.16006 2.80839 3.33006 2.66839 3.59006C2.52839 3.83006 2.47839 4.18006 2.51839 4.64006C2.53839 4.92006 2.55839 5.23006 2.57839 5.57006C2.61839 5.89006 2.64839 6.22006 2.66839 6.56006C2.70839 6.90006 2.72839 7.23006 2.72839 7.55006C2.74839 7.87006 2.75839 8.16006 2.75839 8.42006C2.91839 8.34006 3.10839 8.30006 3.32839 8.30006C3.54839 8.28006 3.76839 8.27006 3.98839 8.27006C5.12839 8.27006 6.33839 8.25006 7.61839 8.21006C8.89839 8.17006 10.1484 8.12006 11.3684 8.06006C12.1284 8.02006 12.5584 8.31006 12.6584 8.93006C12.6784 9.23006 12.5884 9.49006 12.3884 9.71006C12.2084 9.91006 11.9184 10.0301 11.5184 10.0701C10.6184 10.1501 9.66839 10.2201 8.66839 10.2801C7.66839 10.3401 6.71839 10.3601 5.81839 10.3401C5.51839 10.3401 5.20839 10.3401 4.88839 10.3401C4.58839 10.3401 4.30839 10.3401 4.04839 10.3401C3.78839 10.3401 3.55839 10.3301 3.35839 10.3101C3.15839 10.2901 3.01839 10.2601 2.93839 10.2201C2.97839 10.5001 3.01839 10.8401 3.05839 11.2401C3.09839 11.6201 3.13839 12.1501 3.17839 12.8301C3.21839 13.9101 3.26839 15.0401 3.32839 16.2201C3.38839 17.3801 3.49839 18.4501 3.65839 19.4301C3.71839 19.8901 3.67839 20.2701 3.53839 20.5701C3.41839 20.8701 3.17839 21.0501 2.81839 21.1101C1.99839 21.3101 1.51839 20.8801 1.37839 19.8201C1.23839 18.9001 1.14839 17.8301 1.10839 16.6101C1.08839 15.3701 1.03839 14.1501 0.958386 12.9501Z" fill="black"/>
</svg>
