<svg width="85" height="22" viewBox="0 0 85 22" fill="none" xmlns="http://www.w3.org/2000/svg">
<path d="M77.9788 18.77C78.5788 18.77 79.1488 18.64 79.6888 18.38C80.2488 18.1 80.7288 17.73 81.1288 17.27C81.5288 16.81 81.8488 16.28 82.0888 15.68C82.3288 15.08 82.4488 14.45 82.4488 13.79C82.4488 13.31 82.3788 12.82 82.2388 12.32C82.1188 11.82 81.9188 11.34 81.6388 10.88C81.3188 10.42 80.8888 10.03 80.3488 9.71001C79.8288 9.37001 79.2688 9.20001 78.6688 9.20001C78.1688 9.20001 77.7388 9.30001 77.3788 9.50001C77.0188 9.68001 76.8188 9.88001 76.7788 10.1C76.7388 10.22 76.6587 10.35 76.5387 10.49C76.4387 10.61 76.3388 10.69 76.2388 10.73C76.0788 10.79 75.9387 10.95 75.8187 11.21C75.7187 11.47 75.6188 11.78 75.5188 12.14C75.4388 12.5 75.3788 12.89 75.3388 13.31C75.2988 13.73 75.2788 14.12 75.2788 14.48C75.2788 15.76 75.5187 16.8 75.9987 17.6C76.4787 18.38 77.1388 18.77 77.9788 18.77ZM84.3388 15.74C84.1788 16.32 83.9388 16.88 83.6188 17.42C83.3188 17.94 82.9288 18.42 82.4488 18.86C81.9888 19.3 81.4488 19.68 80.8288 20C80.2288 20.32 79.5388 20.55 78.7588 20.69C77.6188 20.91 76.5888 20.77 75.6688 20.27C74.7488 19.79 74.0688 19.01 73.6288 17.93C73.3488 17.29 73.1688 16.67 73.0888 16.07C73.0088 15.45 72.9688 14.91 72.9688 14.45C72.9688 13.19 73.0987 12.12 73.3587 11.24C73.6387 10.36 74.1487 9.59001 74.8887 8.93001C75.2087 8.31001 75.6888 7.84001 76.3288 7.52001C76.9888 7.18001 77.7188 7.01001 78.5188 7.01001C79.2588 7.01001 79.9988 7.14001 80.7388 7.40001C81.4788 7.66001 82.0988 8.03001 82.5988 8.51001C83.0788 8.95001 83.4788 9.45001 83.7988 10.01C84.1188 10.57 84.3488 11.25 84.4888 12.05C84.5888 12.63 84.6287 13.24 84.6087 13.88C84.6087 14.5 84.5188 15.12 84.3388 15.74Z" fill="black"/>
<path d="M56.6777 1.03992C56.6777 0.699916 56.8077 0.459916 57.0677 0.319917C57.3477 0.179916 57.6677 0.149915 58.0277 0.229916C58.5477 0.309916 59.1477 0.379916 59.8277 0.439917C60.5077 0.479916 61.2177 0.509916 61.9577 0.529916C62.7177 0.549917 63.4777 0.569917 64.2377 0.589917C65.0177 0.589917 65.7477 0.589917 66.4277 0.589917C68.3077 0.629916 69.7777 0.669916 70.8377 0.709917C71.8977 0.729917 72.7077 0.759916 73.2677 0.799916C73.5677 0.839916 73.8677 0.919916 74.1677 1.03992C74.4677 1.15992 74.6077 1.36992 74.5877 1.66992C74.5677 1.82992 74.4877 1.98992 74.3477 2.14992C74.2077 2.30992 74.0577 2.43992 73.8977 2.53992C73.5977 2.75992 73.2977 2.85992 72.9977 2.83992C72.7177 2.81992 72.3977 2.77992 72.0377 2.71992C71.7777 2.67992 71.3877 2.63992 70.8677 2.59992C70.3477 2.55992 69.7477 2.52992 69.0677 2.50992C68.5277 2.48992 68.0477 2.48992 67.6277 2.50992C67.2277 2.50992 66.8477 2.49992 66.4877 2.47992C66.5677 2.99992 66.6077 3.48992 66.6077 3.94992C66.6077 4.40992 66.6077 4.89992 66.6077 5.41992C66.5877 6.17992 66.5677 6.83992 66.5477 7.39992C66.5477 7.95992 66.5277 8.37992 66.4877 8.65992C66.4877 8.81992 66.4877 8.98992 66.4877 9.16992C66.4877 9.34992 66.4777 9.57992 66.4577 9.85992C66.4577 10.1199 66.4577 10.4499 66.4577 10.8499C66.4577 11.2499 66.4577 11.7499 66.4577 12.3499C66.4577 12.9499 66.4577 13.5599 66.4577 14.1799C66.4577 14.7999 66.4577 15.3899 66.4577 15.9499C66.4777 16.5099 66.4977 17.0199 66.5177 17.4799C66.5377 17.9199 66.5577 18.2599 66.5777 18.4999C66.5977 18.7199 66.6077 18.9199 66.6077 19.0999C66.6277 19.2599 66.6377 19.4199 66.6377 19.5799C66.6377 19.9799 66.5477 20.3099 66.3677 20.5699C66.1877 20.8499 65.8877 21.0099 65.4677 21.0499C65.0077 21.0899 64.6777 20.9799 64.4777 20.7199C64.2977 20.4599 64.1877 20.1599 64.1477 19.8199C64.1077 19.4799 64.0677 18.7999 64.0277 17.7799C64.0077 16.7399 63.9977 15.3099 63.9977 13.4899C63.9977 13.0499 63.9977 12.6499 63.9977 12.2899C63.9977 11.9099 63.9977 11.5399 63.9977 11.1799C63.9977 10.7999 63.9977 10.4199 63.9977 10.0399C64.0177 9.65992 64.0377 9.22992 64.0577 8.74992C64.0577 8.14992 64.0577 7.47992 64.0577 6.73992C64.0777 5.99992 64.0877 5.38992 64.0877 4.90992C64.0877 4.60992 64.0877 4.34992 64.0877 4.12992C64.0877 3.90992 64.0777 3.70992 64.0577 3.52992C64.0577 3.34992 64.0477 3.17992 64.0277 3.01992C64.0277 2.85992 64.0177 2.67992 63.9977 2.47992C62.9977 2.47992 62.0377 2.47992 61.1177 2.47992C60.2177 2.45992 59.1777 2.37992 57.9977 2.23992C57.1177 2.13992 56.6777 1.73992 56.6777 1.03992Z" fill="black"/>
<path d="M42.9573 17.75C43.1773 16.61 43.3973 15.45 43.6173 14.27C43.8573 13.07 44.1273 11.89 44.4273 10.73C44.5273 10.33 44.6173 9.96 44.6973 9.62C44.7973 9.28 44.8373 8.98 44.8173 8.72C44.7973 8.48 44.8973 8.22 45.1173 7.94C45.3573 7.66 45.6073 7.47 45.8673 7.37C46.0873 7.27 46.3173 7.24 46.5573 7.28C46.7973 7.32 46.9973 7.43 47.1573 7.61C47.2773 7.77 47.3373 7.95 47.3373 8.15C47.3373 8.33 47.3073 8.53 47.2473 8.75C47.1673 8.99 47.0373 9.29 46.8573 9.65C46.6973 10.01 46.5873 10.34 46.5273 10.64C46.4673 10.94 46.3973 11.22 46.3173 11.48C46.2573 11.74 46.1973 11.99 46.1373 12.23C46.0773 12.47 46.0073 12.72 45.9273 12.98C45.8673 13.24 45.8073 13.53 45.7473 13.85C45.6873 14.15 45.6273 14.46 45.5673 14.78C45.5073 15.1 45.4373 15.41 45.3573 15.71C45.2173 16.21 45.1073 16.74 45.0273 17.3C44.9473 17.84 44.8373 18.39 44.6973 18.95C44.6573 19.07 44.5973 19.23 44.5173 19.43C44.4373 19.63 44.3373 19.81 44.2173 19.97C43.9573 20.33 43.7673 20.54 43.6473 20.6C43.5473 20.68 43.3573 20.73 43.0773 20.75C42.7573 20.73 42.5173 20.63 42.3573 20.45C42.2173 20.29 42.0973 20.1 41.9973 19.88C41.5973 19.12 41.2473 18.41 40.9473 17.75C40.6473 17.07 40.3673 16.32 40.1073 15.5C39.8673 14.86 39.6173 14.21 39.3573 13.55C39.1173 12.87 38.8773 12.18 38.6373 11.48C38.4173 12.44 38.1973 13.38 37.9773 14.3C37.7573 15.2 37.4873 16.1 37.1673 17C37.0873 17.26 37.0073 17.51 36.9273 17.75C36.8473 17.97 36.7873 18.24 36.7473 18.56C36.7073 18.78 36.6173 19.03 36.4773 19.31C36.3373 19.59 36.1173 19.83 35.8173 20.03C35.5973 20.17 35.3573 20.24 35.0973 20.24C34.8573 20.26 34.6473 20.19 34.4673 20.03C34.3673 19.97 34.2673 19.86 34.1673 19.7C34.0673 19.52 33.9973 19.35 33.9573 19.19C33.7373 18.27 33.4973 17.35 33.2373 16.43C32.9773 15.51 32.6773 14.54 32.3373 13.52C32.1773 12.88 32.0073 12.28 31.8273 11.72C31.6473 11.14 31.4773 10.52 31.3173 9.86C31.2173 9.58 31.1273 9.29 31.0473 8.99C30.9873 8.69 30.8873 8.4 30.7473 8.12C30.5673 7.78 30.4973 7.46 30.5373 7.16C30.5973 6.84 30.7373 6.6 30.9573 6.44C31.1973 6.24 31.4773 6.17 31.7973 6.23C32.1373 6.29 32.4073 6.45 32.6073 6.71C32.8873 7.03 33.0573 7.45 33.1173 7.97C33.1373 8.17 33.1373 8.35 33.1173 8.51C33.1173 8.67 33.1473 8.83 33.2073 8.99C33.4873 9.79 33.7273 10.57 33.9273 11.33C34.1273 12.07 34.3473 12.86 34.5873 13.7C34.7073 14.12 34.8273 14.62 34.9473 15.2C35.0673 15.76 35.2073 16.32 35.3673 16.88C35.4673 16.48 35.5773 16.01 35.6973 15.47C35.8373 14.93 35.9573 14.43 36.0573 13.97C36.1973 13.45 36.3073 12.98 36.3873 12.56C36.4873 12.14 36.5773 11.74 36.6573 11.36C36.7373 10.96 36.8073 10.57 36.8673 10.19C36.9473 9.81 37.0373 9.41 37.1373 8.99C37.1773 8.83 37.2673 8.65 37.4073 8.45C37.5473 8.25 37.7073 8.12 37.8873 8.06C38.1673 7.96 38.4673 7.97 38.7873 8.09C39.1273 8.19 39.3773 8.38 39.5373 8.66C39.6973 8.96 39.8473 9.28 39.9873 9.62C40.1473 9.94 40.3173 10.34 40.4973 10.82C40.7173 11.4 40.9173 11.96 41.0973 12.5C41.2973 13.04 41.4973 13.6 41.6973 14.18C41.9173 14.82 42.1373 15.49 42.3573 16.19C42.5973 16.89 42.7973 17.41 42.9573 17.75Z" fill="black"/>
<path d="M21.9045 18.77C22.5045 18.77 23.0745 18.64 23.6145 18.38C24.1745 18.1 24.6545 17.73 25.0545 17.27C25.4545 16.81 25.7745 16.28 26.0145 15.68C26.2545 15.08 26.3745 14.45 26.3745 13.79C26.3745 13.31 26.3045 12.82 26.1645 12.32C26.0445 11.82 25.8445 11.34 25.5645 10.88C25.2445 10.42 24.8145 10.03 24.2745 9.71001C23.7545 9.37001 23.1945 9.20001 22.5945 9.20001C22.0945 9.20001 21.6645 9.30001 21.3045 9.50001C20.9445 9.68001 20.7445 9.88001 20.7045 10.1C20.6645 10.22 20.5845 10.35 20.4645 10.49C20.3645 10.61 20.2645 10.69 20.1645 10.73C20.0045 10.79 19.8645 10.95 19.7445 11.21C19.6445 11.47 19.5445 11.78 19.4445 12.14C19.3645 12.5 19.3045 12.89 19.2645 13.31C19.2245 13.73 19.2045 14.12 19.2045 14.48C19.2045 15.76 19.4445 16.8 19.9245 17.6C20.4045 18.38 21.0645 18.77 21.9045 18.77ZM28.2645 15.74C28.1045 16.32 27.8645 16.88 27.5445 17.42C27.2445 17.94 26.8545 18.42 26.3745 18.86C25.9145 19.3 25.3745 19.68 24.7545 20C24.1545 20.32 23.4645 20.55 22.6845 20.69C21.5445 20.91 20.5145 20.77 19.5945 20.27C18.6745 19.79 17.9945 19.01 17.5545 17.93C17.2745 17.29 17.0945 16.67 17.0145 16.07C16.9345 15.45 16.8945 14.91 16.8945 14.45C16.8945 13.19 17.0245 12.12 17.2845 11.24C17.5645 10.36 18.0745 9.59001 18.8145 8.93001C19.1345 8.31001 19.6145 7.84001 20.2545 7.52001C20.9145 7.18001 21.6445 7.01001 22.4445 7.01001C23.1845 7.01001 23.9245 7.14001 24.6645 7.40001C25.4045 7.66001 26.0245 8.03001 26.5245 8.51001C27.0045 8.95001 27.4045 9.45001 27.7245 10.01C28.0445 10.57 28.2745 11.25 28.4145 12.05C28.5145 12.63 28.5545 13.24 28.5345 13.88C28.5345 14.5 28.4445 15.12 28.2645 15.74Z" fill="black"/>
<path d="M11.1651 1.48996C11.2051 1.02996 11.3051 0.679956 11.4651 0.439957C11.6251 0.199956 11.8951 0.0799561 12.2751 0.0799561C12.6751 0.0799561 12.9651 0.199956 13.1451 0.439957C13.3451 0.679956 13.4451 1.07996 13.4451 1.63996C13.4451 1.91996 13.4351 2.34996 13.4151 2.92996C13.3951 3.50996 13.3751 4.10996 13.3551 4.72996C13.3151 6.60996 13.2051 8.52996 13.0251 10.49C12.8451 12.43 12.7551 14.4 12.7551 16.4C12.7551 16.98 12.7751 17.5 12.8151 17.96C12.8551 18.42 12.8751 18.88 12.8751 19.34C12.8751 19.74 12.8051 20.11 12.6651 20.45C12.5451 20.79 12.2851 20.99 11.8851 21.05C11.4251 21.11 11.1051 21.04 10.9251 20.84C10.7451 20.64 10.6251 20.29 10.5651 19.79C10.5251 19.39 10.4951 18.95 10.4751 18.47C10.4751 17.97 10.4751 17.46 10.4751 16.94C10.4751 15.9 10.5051 14.81 10.5651 13.67C10.6451 12.53 10.7251 11.38 10.8051 10.22C10.5851 10.38 10.1851 10.46 9.60512 10.46C9.14512 10.46 8.60512 10.46 7.98512 10.46C7.36512 10.46 6.72512 10.47 6.06512 10.49C5.40512 10.51 4.75512 10.54 4.11512 10.58C3.49512 10.62 2.95512 10.68 2.49512 10.76C2.49512 11.3 2.48512 11.9 2.46512 12.56C2.46512 13.2 2.45512 13.86 2.43512 14.54C2.43512 15.22 2.44512 15.89 2.46512 16.55C2.48512 17.21 2.52512 17.81 2.58512 18.35C2.64512 18.83 2.63512 19.26 2.55512 19.64C2.49512 20 2.20512 20.23 1.68512 20.33C1.18512 20.43 0.825117 20.35 0.605117 20.09C0.405117 19.83 0.285117 19.41 0.245117 18.83C0.145117 17.59 0.105117 16.28 0.125117 14.9C0.145117 13.52 0.185117 12.13 0.245117 10.73C0.305117 9.30996 0.365117 7.89996 0.425117 6.49996C0.505117 5.07996 0.545117 3.71996 0.545117 2.41996C0.545117 1.43996 0.945118 0.949955 1.74512 0.949955C2.20512 0.929956 2.49512 1.05996 2.61512 1.33996C2.75512 1.61996 2.82512 1.99996 2.82512 2.47996C2.82512 2.71996 2.81512 3.08996 2.79512 3.58996C2.77512 4.06996 2.75512 4.59996 2.73512 5.17996C2.71512 5.75996 2.68512 6.35996 2.64512 6.97996C2.62512 7.57996 2.60512 8.12996 2.58512 8.62996C3.06512 8.56996 3.62512 8.51996 4.26512 8.47996C4.92512 8.43996 5.58512 8.41996 6.24512 8.41996C6.90512 8.39996 7.54512 8.38996 8.16512 8.38996C8.78512 8.36996 9.31512 8.35996 9.75512 8.35996C9.99512 8.35996 10.2151 8.37996 10.4151 8.41996C10.6151 8.43996 10.7851 8.49996 10.9251 8.59996C11.0451 7.09996 11.1051 5.68996 11.1051 4.36996C11.1051 4.14996 11.1051 3.89996 11.1051 3.61996C11.1251 3.33996 11.1351 3.05996 11.1351 2.77996C11.1351 2.49996 11.1351 2.24996 11.1351 2.02996C11.1551 1.78996 11.1651 1.60996 11.1651 1.48996Z" fill="black"/>
</svg>
