<svg width="175" height="29" viewBox="0 0 175 29" fill="none" xmlns="http://www.w3.org/2000/svg">
<path d="M171.836 1.80996C171.836 0.989956 172.206 0.579956 172.946 0.579956C173.226 0.579956 173.466 0.679956 173.666 0.879956C173.886 1.05996 174.006 1.29996 174.026 1.59996C174.066 2.63996 174.046 3.73996 173.966 4.89996C173.906 6.05996 173.836 7.08996 173.756 7.98996C173.716 8.44996 173.676 9.10996 173.636 9.96996C173.616 10.81 173.586 11.72 173.546 12.7C173.526 13.68 173.506 14.65 173.486 15.61C173.466 16.55 173.456 17.35 173.456 18.01C173.456 18.37 173.396 18.7 173.276 19C173.156 19.28 172.916 19.44 172.556 19.48C172.156 19.48 171.856 19.36 171.656 19.12C171.456 18.86 171.336 18.5 171.296 18.04C171.256 17.42 171.236 16.63 171.236 15.67C171.236 14.71 171.246 13.73 171.266 12.73C171.286 11.71 171.316 10.75 171.356 9.84996C171.396 8.92996 171.446 8.20996 171.506 7.68996C171.546 7.26996 171.586 6.79996 171.626 6.27996C171.666 5.75996 171.696 5.23996 171.716 4.71996C171.756 4.17996 171.786 3.65996 171.806 3.15996C171.826 2.65996 171.836 2.20996 171.836 1.80996ZM170.396 23.35C170.336 22.77 170.506 22.27 170.906 21.85C171.306 21.41 171.826 21.19 172.466 21.19C172.706 21.19 172.946 21.24 173.186 21.34C173.446 21.44 173.676 21.58 173.876 21.76C174.076 21.92 174.236 22.11 174.356 22.33C174.496 22.57 174.566 22.82 174.566 23.08C174.566 23.34 174.516 23.59 174.416 23.83C174.316 24.09 174.176 24.32 173.996 24.52C173.836 24.72 173.636 24.88 173.396 25C173.176 25.14 172.936 25.21 172.676 25.21C172.096 25.23 171.586 25.07 171.146 24.73C170.706 24.39 170.456 23.93 170.396 23.35Z" fill="black"/>
<path d="M149.536 23.1999C149.536 22.8599 149.656 22.5999 149.896 22.4199C149.796 21.9599 149.676 21.5099 149.536 21.0699C149.416 20.6099 149.326 20.1299 149.266 19.6299C149.226 19.3899 149.186 19.1499 149.146 18.9099C149.126 18.6499 149.096 18.3999 149.056 18.1599C149.036 17.9199 149.016 17.7099 148.996 17.5299C148.976 17.3299 148.966 17.1799 148.966 17.0799C149.006 16.7599 149.106 16.4799 149.266 16.2399C149.446 15.9799 149.766 15.8299 150.226 15.7899C150.846 15.7299 151.666 15.6799 152.686 15.6399C153.706 15.5799 154.776 15.5399 155.896 15.5199C157.036 15.4799 158.156 15.4599 159.256 15.4599C160.376 15.4399 161.336 15.4399 162.136 15.4599C162.956 15.4999 163.366 15.9599 163.366 16.8399C163.366 17.1999 163.366 17.5999 163.366 18.0399C163.366 18.4599 163.356 18.8999 163.336 19.3599C163.336 19.7999 163.336 20.2299 163.336 20.6499C163.336 21.0699 163.336 21.4399 163.336 21.7599C163.336 22.1999 163.316 22.5499 163.276 22.8099C163.256 23.0699 163.176 23.2599 163.036 23.3799C162.916 23.5199 162.726 23.5999 162.466 23.6199C162.206 23.6599 161.846 23.6799 161.386 23.6799C159.686 23.7199 158.036 23.7699 156.436 23.8299C154.836 23.9099 153.436 24.0099 152.236 24.1299C151.996 24.1699 151.736 24.1999 151.456 24.2199C151.196 24.2599 150.956 24.2799 150.736 24.2799C150.336 24.2799 150.036 24.1799 149.836 23.9799C149.636 23.7799 149.536 23.5199 149.536 23.1999ZM155.656 2.25994C155.836 2.17994 156.046 2.12994 156.286 2.10994C156.546 2.08994 156.786 2.10994 157.006 2.16994C157.226 2.22994 157.416 2.33994 157.576 2.49994C157.736 2.65994 157.826 2.86994 157.846 3.12994C157.886 3.72994 157.616 4.07994 157.036 4.17994C156.796 4.21994 156.526 4.23994 156.226 4.23994C155.926 4.21994 155.666 4.18994 155.446 4.14994C155.346 4.12994 155.256 4.11994 155.176 4.11994C155.096 4.11994 155.036 4.11994 154.996 4.11994C154.856 4.11994 154.786 4.18994 154.786 4.32994C154.786 4.90994 154.776 5.48994 154.756 6.06994C154.736 6.64994 154.706 7.22994 154.666 7.80994C154.626 8.38994 154.586 9.04994 154.546 9.78994C154.526 10.5099 154.516 11.1599 154.516 11.7399C154.516 11.8399 154.596 11.9099 154.756 11.9499C154.936 11.9699 155.236 11.9899 155.656 12.0099C155.936 12.0299 156.236 12.0599 156.556 12.0999C156.876 12.1399 157.126 12.1899 157.306 12.2499C157.586 12.3499 157.816 12.5199 157.996 12.7599C158.196 12.9999 158.196 13.2899 157.996 13.6299C157.896 13.7699 157.766 13.8599 157.606 13.8999C157.466 13.9199 157.336 13.9299 157.216 13.9299H157.036C156.016 13.8099 154.926 13.7299 153.766 13.6899C152.606 13.6299 151.426 13.5999 150.226 13.5999C149.386 13.5999 148.576 13.6099 147.796 13.6299C147.016 13.6499 146.306 13.6699 145.666 13.6899C145.486 13.6899 145.306 13.6799 145.126 13.6599C144.946 13.6399 144.786 13.5899 144.646 13.5099C144.506 13.4299 144.396 13.3099 144.316 13.1499C144.236 12.9899 144.206 12.7699 144.226 12.4899C144.246 12.2699 144.346 12.0999 144.526 11.9799C144.706 11.8599 144.926 11.7999 145.186 11.7999C145.266 11.7999 145.356 11.7999 145.456 11.7999C145.556 11.7999 145.696 11.7899 145.876 11.7699C146.056 11.7699 146.276 11.7699 146.536 11.7699C146.796 11.7499 147.156 11.7299 147.616 11.7099L147.946 7.44994L148.186 4.32994C148.046 4.32994 147.916 4.33994 147.796 4.35994C147.676 4.35994 147.536 4.36994 147.376 4.38994C147.216 4.40994 147.046 4.42994 146.866 4.44994C146.706 4.46994 146.536 4.47994 146.356 4.47994C145.736 4.47994 145.316 4.36994 145.096 4.14994C144.936 3.94994 144.876 3.69994 144.916 3.39994C144.956 3.09994 145.076 2.86994 145.276 2.70994C145.456 2.58994 145.776 2.51994 146.236 2.49994C146.436 2.47994 146.676 2.46994 146.956 2.46994C147.256 2.46994 147.576 2.45994 147.916 2.43994C148.136 2.43994 148.386 2.43994 148.666 2.43994C148.946 2.41994 149.246 2.39994 149.566 2.37994C150.066 2.35994 150.606 2.33994 151.186 2.31994C151.766 2.29994 152.316 2.28994 152.836 2.28994C153.356 2.26994 153.816 2.25994 154.216 2.25994C154.616 2.25994 154.876 2.25994 154.996 2.25994H155.656ZM151.306 17.6499C151.366 18.4299 151.446 19.2099 151.546 19.9899C151.646 20.7499 151.766 21.5099 151.906 22.2699C152.446 22.2299 153.056 22.1799 153.736 22.1199C154.436 22.0799 155.156 22.0399 155.896 21.9999C156.656 21.9399 157.426 21.8999 158.206 21.8799C158.986 21.8399 159.756 21.8199 160.516 21.8199C160.896 21.8199 161.116 21.7899 161.176 21.7299C161.256 21.6699 161.296 21.4699 161.296 21.1299C161.296 20.9299 161.296 20.6899 161.296 20.4099C161.296 20.1299 161.296 19.8399 161.296 19.5399C161.316 19.2399 161.326 18.9599 161.326 18.6999C161.326 18.4199 161.326 18.1899 161.326 18.0099C161.326 17.7099 161.286 17.5299 161.206 17.4699C161.126 17.3899 160.926 17.3399 160.606 17.3199C159.166 17.2599 157.676 17.2699 156.136 17.3499C154.616 17.4299 153.006 17.5299 151.306 17.6499ZM166.486 8.25994C166.306 8.23994 166.046 8.23994 165.706 8.25994C165.386 8.25994 165.046 8.26994 164.686 8.28994C164.346 8.30994 164.016 8.32994 163.696 8.34994C163.376 8.36994 163.116 8.37994 162.916 8.37994C162.916 8.49994 162.916 8.67994 162.916 8.91994C162.916 9.15994 162.916 9.42994 162.916 9.72994C162.936 10.0299 162.946 10.3399 162.946 10.6599C162.946 10.9599 162.946 11.2299 162.946 11.4699C162.946 11.6499 162.956 11.8899 162.976 12.1899C163.016 12.4699 163.036 12.7199 163.036 12.9399C163.036 13.3399 162.936 13.6899 162.736 13.9899C162.536 14.2699 162.276 14.4099 161.956 14.4099C161.556 14.4099 161.246 14.3099 161.026 14.1099C160.826 13.9099 160.726 13.6799 160.726 13.4199C160.726 12.8799 160.716 12.1599 160.696 11.2599C160.676 10.3599 160.656 9.39994 160.636 8.37994C160.636 7.35994 160.626 6.34994 160.606 5.34994C160.586 4.34994 160.576 3.46994 160.576 2.70994C160.576 2.36994 160.696 2.11994 160.936 1.95994C161.176 1.77994 161.436 1.68994 161.716 1.68994C161.996 1.68994 162.236 1.77994 162.436 1.95994C162.656 2.11994 162.776 2.37994 162.796 2.73994C162.836 3.27994 162.856 3.81994 162.856 4.35994C162.856 4.87994 162.856 5.58994 162.856 6.48994C163.496 6.42994 164.166 6.35994 164.866 6.27994C165.586 6.19994 166.246 6.20994 166.846 6.30994C167.086 6.34994 167.266 6.47994 167.386 6.69994C167.526 6.91994 167.596 7.13994 167.596 7.35994C167.596 7.59994 167.496 7.82994 167.296 8.04994C167.116 8.24994 166.846 8.31994 166.486 8.25994ZM152.656 6.93994C152.656 6.05994 152.596 5.13994 152.476 4.17994C152.416 4.15994 152.316 4.14994 152.176 4.14994C152.036 4.12994 151.866 4.11994 151.666 4.11994C151.486 4.11994 151.286 4.12994 151.066 4.14994C150.846 4.16994 150.646 4.18994 150.466 4.20994C150.306 5.34994 150.166 6.53994 150.046 7.77994C149.926 9.01994 149.866 10.1499 149.866 11.1699C149.866 11.4699 149.896 11.6499 149.956 11.7099C150.036 11.7699 150.186 11.7999 150.406 11.7999H152.266C152.366 11.7199 152.416 11.6199 152.416 11.4999L152.506 10.3299C152.546 9.80994 152.576 9.24994 152.596 8.64994C152.636 8.02994 152.656 7.45994 152.656 6.93994Z" fill="black"/>
<path d="M123.186 4.09C123.646 3.77 124.166 3.55999 124.746 3.45999C125.326 3.34 125.896 3.34 126.456 3.45999C127.096 3.57999 127.696 3.80999 128.256 4.15C128.816 4.46999 129.316 4.85999 129.756 5.31999C130.216 5.77999 130.606 6.28999 130.926 6.85C131.246 7.41 131.496 7.98999 131.676 8.58999C131.896 9.41 131.956 10.32 131.856 11.32C131.856 11.46 131.846 11.62 131.826 11.8C131.826 11.98 131.816 12.17 131.796 12.37C131.796 12.47 131.776 12.58 131.736 12.7C131.716 12.82 131.706 12.94 131.706 13.06C131.646 14.24 131.486 15.36 131.226 16.42C130.986 17.48 130.606 18.43 130.086 19.27C129.586 20.11 128.926 20.8 128.106 21.34C127.306 21.88 126.316 22.21 125.136 22.33C124.156 22.41 123.236 22.21 122.376 21.73C121.536 21.23 120.806 20.55 120.186 19.69C119.586 18.81 119.116 17.79 118.776 16.63C118.456 15.47 118.326 14.26 118.386 13C118.426 12.62 118.456 12.26 118.476 11.92C118.496 11.56 118.556 11.2 118.656 10.84C118.896 9.74 119.186 8.73 119.526 7.81C119.886 6.88999 120.306 6.10999 120.786 5.47C121.046 5.08999 121.306 4.87999 121.566 4.83999C121.826 4.77999 122.076 4.79999 122.316 4.89999C122.436 4.71999 122.576 4.56999 122.736 4.44999C122.916 4.31 123.066 4.19 123.186 4.09ZM124.416 6.04C124.296 6.14 124.136 6.33 123.936 6.61C123.736 6.87 123.616 7.1 123.576 7.29999C123.436 7.53999 123.196 7.74 122.856 7.9C122.536 8.04 122.276 8.00999 122.076 7.81C121.836 8.23 121.616 8.73999 121.416 9.33999C121.236 9.93999 121.066 10.57 120.906 11.23C120.846 11.53 120.796 11.82 120.756 12.1C120.736 12.38 120.716 12.66 120.696 12.94C120.656 13.94 120.746 14.9 120.966 15.82C121.206 16.72 121.536 17.51 121.956 18.19C122.376 18.85 122.856 19.36 123.396 19.72C123.956 20.08 124.536 20.21 125.136 20.11C125.856 19.99 126.476 19.73 126.996 19.33C127.516 18.91 127.946 18.38 128.286 17.74C128.626 17.1 128.896 16.38 129.096 15.58C129.296 14.76 129.436 13.88 129.516 12.94C129.516 12.88 129.526 12.82 129.546 12.76C129.586 12.68 129.606 12.61 129.606 12.55C129.626 12.33 129.646 12.12 129.666 11.92C129.686 11.7 129.696 11.48 129.696 11.26C129.696 10.94 129.686 10.61 129.666 10.27C129.646 9.92999 129.586 9.60999 129.486 9.31C129.246 8.44999 128.826 7.69 128.226 7.03C127.626 6.34999 126.956 5.91999 126.216 5.73999C125.916 5.67999 125.596 5.67 125.256 5.70999C124.936 5.75 124.656 5.86 124.416 6.04ZM136.176 4.78C136.216 4.42 136.356 4.15 136.596 3.97C136.836 3.77 137.096 3.69 137.376 3.73C137.676 3.76999 137.936 3.91999 138.156 4.17999C138.376 4.43999 138.466 4.74 138.426 5.08C138.326 5.66 138.216 6.34999 138.096 7.14999C137.996 7.92999 137.906 8.83999 137.826 9.87999C138.066 9.87999 138.356 9.87999 138.696 9.87999C139.036 9.87999 139.396 9.88999 139.776 9.90999C140.176 9.90999 140.576 9.92999 140.976 9.97C141.376 9.99 141.756 10.03 142.116 10.09C142.456 10.13 142.686 10.26 142.806 10.48C142.926 10.7 142.976 10.92 142.956 11.14C142.936 11.3 142.816 11.5 142.596 11.74C142.376 11.98 141.986 12.1 141.426 12.1C140.746 12.1 140.126 12.11 139.566 12.13C139.026 12.15 138.406 12.18 137.706 12.22L137.406 20.68C137.846 20.88 138.036 21.23 137.976 21.73C137.916 22.47 137.356 22.84 136.296 22.84C135.976 22.84 135.696 22.73 135.456 22.51C135.236 22.31 135.126 22.04 135.126 21.7C135.126 18.88 135.196 16.08 135.336 13.3C135.476 10.52 135.756 7.68 136.176 4.78Z" fill="black"/>
<path d="M98.0244 4.95998C99.1044 4.79998 100.304 4.67998 101.624 4.59998C102.964 4.49998 104.204 4.43998 105.344 4.41998C105.924 4.39998 106.384 4.42998 106.724 4.50998C107.084 4.56998 107.284 4.81998 107.324 5.25998C107.344 5.49998 107.284 5.79998 107.144 6.15998C107.024 6.49998 106.794 6.86998 106.454 7.26998L103.694 10.54C103.874 10.64 104.124 10.84 104.444 11.14C104.764 11.44 105.314 11.97 106.094 12.73C106.634 13.27 107.054 13.67 107.354 13.93C107.654 14.17 107.874 14.35 108.014 14.47C108.154 14.59 108.234 14.69 108.254 14.77C108.274 14.85 108.284 14.99 108.284 15.19C108.284 15.47 108.184 15.72 107.984 15.94C107.784 16.14 107.514 16.24 107.174 16.24C107.034 16.24 106.864 16.2 106.664 16.12C106.464 16.02 106.184 15.84 105.824 15.58C105.484 15.32 105.054 14.96 104.534 14.5C104.034 14.02 103.394 13.4 102.614 12.64V12.67C102.474 12.55 102.354 12.45 102.254 12.37C102.174 12.29 102.134 12.24 102.134 12.22C101.914 12.44 101.654 12.72 101.354 13.06C101.054 13.4 100.744 13.75 100.424 14.11C100.124 14.45 99.8344 14.78 99.5544 15.1C99.2944 15.42 99.0844 15.67 98.9244 15.85C98.6444 16.17 98.3444 16.37 98.0244 16.45C97.7044 16.51 97.4144 16.43 97.1544 16.21C96.6544 15.79 96.7544 15.2 97.4544 14.44C97.9544 13.88 98.5344 13.23 99.1944 12.49C99.8544 11.75 100.524 11.01 101.204 10.27C101.884 9.50998 102.524 8.77998 103.124 8.07998C103.744 7.37998 104.264 6.77998 104.684 6.27998C104.324 6.29998 103.924 6.32998 103.484 6.36998C103.044 6.40998 102.584 6.45998 102.104 6.51998C101.644 6.55998 101.174 6.60998 100.694 6.66998C100.234 6.70998 99.8044 6.74998 99.4044 6.78998C99.2444 6.88998 99.0644 6.97998 98.8644 7.05998C98.6644 7.13998 98.4444 7.18998 98.2044 7.20998C97.8044 7.24998 97.4744 7.16998 97.2144 6.96998C96.9744 6.74998 96.8344 6.46998 96.7944 6.12998C96.7544 5.80998 96.8444 5.54998 97.0644 5.34998C97.3044 5.14998 97.6244 5.01998 98.0244 4.95998ZM101.354 19.18C101.334 18.88 101.414 18.65 101.594 18.49C101.774 18.31 102.014 18.2 102.314 18.16C102.674 18.1 103.144 18.05 103.724 18.01C104.324 17.97 105.174 17.91 106.274 17.83C107.114 17.77 107.964 17.72 108.824 17.68C109.684 17.64 110.404 17.63 110.984 17.65C111.224 17.65 111.424 17.72 111.584 17.86C111.744 18 111.844 18.18 111.884 18.4C111.924 18.6 111.904 18.84 111.824 19.12C111.744 19.38 111.594 19.64 111.374 19.9L109.664 22C109.804 22.06 109.924 22.14 110.024 22.24C110.124 22.34 110.214 22.43 110.294 22.51C110.474 22.71 110.734 22.97 111.074 23.29C111.414 23.61 111.774 23.95 112.154 24.31C112.554 24.67 112.944 25.02 113.324 25.36C113.704 25.7 114.024 25.99 114.284 26.23C114.624 26.53 114.724 26.93 114.584 27.43C114.544 27.65 114.414 27.82 114.194 27.94C113.974 28.08 113.744 28.12 113.504 28.06C113.124 27.96 112.774 27.75 112.454 27.43C112.194 27.23 111.914 27 111.614 26.74C111.314 26.48 111.014 26.21 110.714 25.93C110.434 25.67 110.164 25.41 109.904 25.15C109.644 24.91 109.424 24.7 109.244 24.52C109.084 24.42 108.914 24.31 108.734 24.19C108.574 24.07 108.444 23.93 108.344 23.77C108.344 23.75 108.334 23.74 108.314 23.74C107.794 24.4 107.294 25.04 106.814 25.66C106.354 26.28 105.964 26.8 105.644 27.22C105.504 27.4 105.354 27.58 105.194 27.76C105.034 27.96 104.864 28.12 104.684 28.24C104.524 28.38 104.344 28.47 104.144 28.51C103.964 28.57 103.764 28.55 103.544 28.45C103.304 28.33 103.144 28.18 103.064 28C102.984 27.82 102.954 27.63 102.974 27.43C103.014 27.23 103.084 27.03 103.184 26.83C103.284 26.63 103.404 26.45 103.544 26.29C103.884 25.89 104.284 25.4 104.744 24.82C105.204 24.26 105.674 23.67 106.154 23.05C106.654 22.43 107.134 21.83 107.594 21.25C108.054 20.65 108.454 20.12 108.794 19.66C108.154 19.72 107.564 19.78 107.024 19.84C106.504 19.88 105.894 19.92 105.194 19.96C104.574 20 103.984 20.04 103.424 20.08C102.864 20.12 102.514 20.14 102.374 20.14C101.754 20.12 101.414 19.8 101.354 19.18ZM110.534 4.20998C110.514 3.90998 110.604 3.62998 110.804 3.36998C111.004 3.10998 111.284 2.97998 111.644 2.97998C112.384 2.97998 112.754 3.41998 112.754 4.29998C112.754 4.53998 112.754 4.82998 112.754 5.16998C112.774 5.48998 112.794 5.84998 112.814 6.24998C112.834 6.62998 112.844 7.02998 112.844 7.44998C112.864 7.84998 112.874 8.22998 112.874 8.58998H114.344C114.664 8.58998 114.994 8.60998 115.334 8.64998C115.674 8.66998 115.974 8.72998 116.234 8.82998C116.514 8.92998 116.734 9.07998 116.894 9.27998C117.074 9.47998 117.164 9.74998 117.164 10.09C117.164 10.35 117.044 10.59 116.804 10.81C116.564 11.03 116.304 11.14 116.024 11.14C115.784 11.14 115.544 11.11 115.304 11.05C115.084 10.99 114.864 10.92 114.644 10.84C114.384 10.82 114.094 10.81 113.774 10.81C113.474 10.81 113.154 10.81 112.814 10.81C112.814 11.05 112.814 11.36 112.814 11.74C112.814 12.1 112.804 12.49 112.784 12.91C112.764 13.31 112.744 13.7 112.724 14.08C112.704 14.44 112.674 14.74 112.634 14.98C112.574 15.4 112.454 15.74 112.274 16C112.114 16.24 111.844 16.36 111.464 16.36C110.664 16.36 110.314 15.91 110.414 15.01C110.474 14.29 110.524 13.45 110.564 12.49C110.604 11.53 110.634 10.56 110.654 9.57998C110.674 8.57998 110.674 7.60998 110.654 6.66998C110.634 5.72998 110.594 4.90998 110.534 4.20998ZM100.154 1.11998C100.394 1.11998 100.774 1.10998 101.294 1.08998C101.834 1.06998 102.394 1.04998 102.974 1.02998C103.574 0.989983 104.124 0.949983 104.624 0.909984C105.144 0.869983 105.514 0.839983 105.734 0.819983C106.094 0.779984 106.414 0.839983 106.694 0.999983C106.994 1.15998 107.134 1.42998 107.114 1.80998C107.094 2.18998 106.964 2.45998 106.724 2.61998C106.504 2.75998 106.194 2.84998 105.794 2.88998C105.514 2.92998 105.054 2.95998 104.414 2.97998C103.774 2.99998 103.104 3.01998 102.404 3.03998C101.724 3.05998 101.074 3.07998 100.454 3.09998C99.8544 3.09998 99.4344 3.10998 99.1944 3.12998C98.8744 3.16998 98.5544 3.21998 98.2344 3.27998C97.9344 3.33998 97.6744 3.28998 97.4544 3.12998C97.2944 3.02998 97.1744 2.88998 97.0944 2.70998C97.0344 2.50998 96.9844 2.31998 96.9444 2.13998C96.9044 1.61998 97.2544 1.31998 97.9944 1.23998C98.3344 1.19998 98.6744 1.15998 99.0144 1.11998C99.3744 1.07998 99.7544 1.07998 100.154 1.11998Z" fill="black"/>
<path d="M74.7424 16.69C75.1624 16.69 75.5424 16.69 75.8824 16.69C76.2224 16.69 76.5524 16.69 76.8724 16.69C77.2124 16.69 77.5524 16.69 77.8924 16.69C78.2524 16.67 78.6424 16.64 79.0624 16.6C79.6024 16.56 80.0024 16.62 80.2624 16.78C80.5224 16.92 80.7024 17.25 80.8024 17.77C80.8824 18.29 80.9224 18.79 80.9224 19.27C80.9224 19.75 80.9024 20.19 80.8624 20.59C80.8224 21.05 80.7824 21.43 80.7424 21.73C80.7024 22.01 80.6424 22.23 80.5624 22.39C80.4824 22.57 80.3624 22.69 80.2024 22.75C80.0624 22.83 79.8624 22.88 79.6024 22.9H72.8224C72.7824 23.1 72.7524 23.31 72.7324 23.53C72.7124 23.77 72.7024 24.01 72.7024 24.25C72.7024 24.57 72.7224 24.76 72.7624 24.82C72.8224 24.9 72.9624 24.95 73.1824 24.97C74.2624 25.05 75.3824 25.08 76.5424 25.06C77.7224 25.06 78.9124 25.03 80.1124 24.97C80.3724 24.95 80.6924 24.94 81.0724 24.94C81.4724 24.94 81.7624 24.94 81.9424 24.94C82.5624 24.94 83.0224 25.03 83.3224 25.21C83.6224 25.39 83.7624 25.69 83.7424 26.11C83.7224 26.53 83.5624 26.81 83.2624 26.95C82.9624 27.11 82.6124 27.17 82.2124 27.13C81.8124 27.11 81.1924 27.09 80.3524 27.07C79.5124 27.07 78.6224 27.06 77.6824 27.04C76.7624 27.04 75.8724 27.03 75.0124 27.01C74.1724 27.01 73.5424 27 73.1224 26.98C72.1624 26.94 71.4824 26.76 71.0824 26.44C70.7024 26.12 70.5124 25.57 70.5124 24.79C70.5124 24.21 70.5224 23.71 70.5424 23.29C70.5824 22.89 70.6324 22.49 70.6924 22.09C70.7924 21.67 70.9424 21.36 71.1424 21.16C71.3624 20.96 71.7324 20.85 72.2524 20.83C72.6324 20.81 73.0824 20.8 73.6024 20.8C74.1424 20.78 74.6824 20.77 75.2224 20.77C75.7624 20.77 76.2824 20.78 76.7824 20.8C77.2824 20.8 77.6824 20.8 77.9824 20.8C78.3424 20.8 78.5724 20.76 78.6724 20.68C78.7924 20.58 78.8424 20.4 78.8224 20.14C78.8224 20 78.8224 19.78 78.8224 19.48C78.8424 19.16 78.8424 18.92 78.8224 18.76C78.8224 18.56 78.6624 18.47 78.3424 18.49C77.9824 18.53 77.4424 18.56 76.7224 18.58C76.0224 18.58 75.2824 18.58 74.5024 18.58C73.7224 18.56 72.9724 18.54 72.2524 18.52C71.5324 18.48 70.9824 18.44 70.6024 18.4C70.0824 18.36 69.7424 18.26 69.5824 18.1C69.4224 17.94 69.3424 17.69 69.3424 17.35C69.3424 17.05 69.4524 16.82 69.6724 16.66C69.9124 16.48 70.2624 16.42 70.7224 16.48C71.2024 16.56 71.8224 16.62 72.5824 16.66C73.3424 16.68 74.0624 16.69 74.7424 16.69ZM71.5924 1.53996C72.5324 1.51996 73.4524 1.48996 74.3524 1.44996C75.2524 1.38996 76.2924 1.31996 77.4724 1.23996C77.8124 1.19996 78.1624 1.16996 78.5224 1.14996C78.8824 1.12996 79.1524 1.10996 79.3324 1.08996C79.7724 1.06996 80.1124 1.10996 80.3524 1.20996C80.5924 1.30996 80.7624 1.57996 80.8624 2.01996C80.9024 2.23996 80.9324 2.52996 80.9524 2.88996C80.9924 3.22996 81.0124 3.59996 81.0124 3.99996C81.0324 4.37996 81.0424 4.76996 81.0424 5.16996C81.0424 5.54996 81.0324 5.88996 81.0124 6.18996C80.9924 6.62996 80.8824 6.94996 80.6824 7.14996C80.5024 7.34996 80.1824 7.46996 79.7224 7.50996C79.6024 7.52996 79.4624 7.53996 79.3024 7.53996C79.1424 7.53996 78.9524 7.53996 78.7324 7.53996C78.1924 7.53996 77.6824 7.54996 77.2024 7.56996C76.7424 7.56996 76.2824 7.57996 75.8224 7.59996C75.3624 7.59996 74.9024 7.60996 74.4424 7.62996C73.9824 7.62996 73.4824 7.62996 72.9424 7.62996C72.8624 7.84996 72.8024 8.12996 72.7624 8.46996C72.7224 8.80996 72.6924 9.09996 72.6724 9.33996C72.6524 9.61996 72.6724 9.80996 72.7324 9.90996C72.7924 9.98996 72.9624 10.04 73.2424 10.06C73.4624 10.08 73.7224 10.1 74.0224 10.12C74.3224 10.12 74.6024 10.12 74.8624 10.12C75.3424 10.12 75.7324 10.12 76.0324 10.12C76.3324 10.12 76.6024 10.13 76.8424 10.15C77.0824 10.15 77.3224 10.15 77.5624 10.15C77.8024 10.15 78.0924 10.15 78.4324 10.15C79.0324 10.15 79.5424 10.16 79.9624 10.18C80.3824 10.18 80.7924 10.21 81.1924 10.27C82.2524 10.37 82.7724 10.74 82.7524 11.38C82.7124 11.78 82.5624 12.04 82.3024 12.16C82.0624 12.28 81.7624 12.34 81.4024 12.34C81.1024 12.34 80.8224 12.32 80.5624 12.28C80.3224 12.22 80.1424 12.18 80.0224 12.16C79.7624 12.14 79.4524 12.12 79.0924 12.1C78.7324 12.08 78.3424 12.07 77.9224 12.07C77.5024 12.07 77.0624 12.07 76.6024 12.07C76.1624 12.07 75.7324 12.07 75.3124 12.07C74.7924 12.07 74.2624 12.07 73.7224 12.07C73.1824 12.05 72.7124 12.03 72.3124 12.01C71.6724 11.97 71.2124 11.82 70.9324 11.56C70.6524 11.3 70.5224 10.82 70.5424 10.12C70.5624 9.55996 70.6024 8.96996 70.6624 8.34996C70.7424 7.70996 70.8424 7.13996 70.9624 6.63996C71.0424 6.23996 71.1924 5.96996 71.4124 5.82996C71.6324 5.66996 71.9724 5.57996 72.4324 5.55996C73.3924 5.53996 74.3524 5.52996 75.3124 5.52996C76.2924 5.50996 77.3324 5.47996 78.4324 5.43996C78.8124 5.43996 79.0024 5.24996 79.0024 4.86996C79.0024 4.58996 78.9924 4.33996 78.9724 4.11996C78.9524 3.87996 78.9124 3.66996 78.8524 3.48996C78.8324 3.28996 78.7124 3.18996 78.4924 3.18996C78.0724 3.22996 77.6124 3.26996 77.1124 3.30996C76.6324 3.34996 76.1724 3.38996 75.7324 3.42996C75.0924 3.46996 74.4524 3.50996 73.8124 3.54996C73.1924 3.58996 72.5224 3.58996 71.8024 3.54996C71.3424 3.54996 71.0024 3.45996 70.7824 3.27996C70.5824 3.09996 70.4524 2.85996 70.3924 2.55996C70.3724 2.27996 70.4624 2.03996 70.6624 1.83996C70.8824 1.63996 71.1924 1.53996 71.5924 1.53996ZM77.0824 13.15C77.5224 13.15 78.0924 13.17 78.7924 13.21C79.5124 13.23 80.2424 13.26 80.9824 13.3C81.7424 13.32 82.4624 13.35 83.1424 13.39C83.8224 13.43 84.3524 13.46 84.7324 13.48C85.0324 13.52 85.2824 13.63 85.4824 13.81C85.7024 13.99 85.8124 14.23 85.8124 14.53C85.8124 15.11 85.4224 15.38 84.6424 15.34C84.4624 15.34 84.1424 15.33 83.6824 15.31C83.2424 15.29 82.7324 15.27 82.1524 15.25C81.5924 15.21 80.9924 15.17 80.3524 15.13C79.7124 15.09 79.1024 15.06 78.5224 15.04C77.8824 15.02 77.2024 15.01 76.4824 15.01C75.7624 14.99 75.0524 14.98 74.3524 14.98C73.6724 14.98 73.0324 14.99 72.4324 15.01C71.8524 15.01 71.3724 15.03 70.9924 15.07C70.7724 15.09 70.5324 15.13 70.2724 15.19C70.0324 15.25 69.7824 15.28 69.5224 15.28C69.2424 15.28 68.9324 15.2 68.5924 15.04C68.2724 14.86 68.1224 14.58 68.1424 14.2C68.1424 13.86 68.2624 13.62 68.5024 13.48C68.7624 13.34 69.1024 13.25 69.5224 13.21C69.8824 13.19 70.4124 13.18 71.1124 13.18C71.8124 13.16 72.5424 13.15 73.3024 13.15C74.0624 13.15 74.7924 13.15 75.4924 13.15C76.1924 13.15 76.7224 13.15 77.0824 13.15Z" fill="black"/>
<path d="M45.5593 11.23C45.7793 9.78996 46.1593 8.57996 46.6993 7.59996C47.2593 6.61996 47.9193 5.82996 48.6793 5.22996C49.4393 4.62996 50.2693 4.20996 51.1693 3.96996C52.0893 3.72996 53.0193 3.63996 53.9593 3.69996C54.3593 3.71996 54.7693 3.77996 55.1893 3.87996C55.6293 3.95996 56.0393 4.08996 56.4193 4.26996C56.7993 4.42996 57.1193 4.63996 57.3793 4.89996C57.6393 5.13996 57.8093 5.41996 57.8893 5.73995C58.5893 6.31996 59.1593 7.18996 59.5993 8.34996C60.0393 9.48996 60.2193 10.84 60.1393 12.4C59.9593 15.12 59.2793 17.26 58.0993 18.82C56.9193 20.36 55.1193 21.25 52.6993 21.49C51.7193 21.59 50.7793 21.52 49.8793 21.28C48.9993 21.04 48.2193 20.62 47.5393 20.02C46.8593 19.4 46.3193 18.59 45.9193 17.59C45.5193 16.59 45.3193 15.38 45.3193 13.96C45.3193 13.44 45.3393 13 45.3793 12.64C45.4193 12.28 45.4793 11.81 45.5593 11.23ZM47.7793 11.62C47.7393 11.9 47.7093 12.14 47.6893 12.34C47.6693 12.54 47.6493 12.73 47.6293 12.91C47.6093 13.09 47.5993 13.27 47.5993 13.45C47.5993 13.63 47.5993 13.83 47.5993 14.05C47.5993 15.01 47.7293 15.84 47.9893 16.54C48.2693 17.22 48.6393 17.78 49.0993 18.22C49.5593 18.64 50.0793 18.94 50.6593 19.12C51.2593 19.28 51.8893 19.32 52.5493 19.24C54.0293 19.08 55.2293 18.51 56.1493 17.53C57.0893 16.53 57.6393 14.95 57.7993 12.79C57.8993 11.11 57.7393 9.78996 57.3193 8.82996C56.9193 7.86996 56.2393 7.15996 55.2793 6.69996C55.1193 6.59996 54.9093 6.49996 54.6493 6.39996C54.3893 6.27996 54.1693 6.16996 53.9893 6.06996C53.2893 5.98996 52.5993 6.02996 51.9193 6.18996C51.2593 6.34996 50.6493 6.64996 50.0893 7.08996C49.5293 7.52996 49.0493 8.12996 48.6493 8.88996C48.2493 9.62996 47.9593 10.54 47.7793 11.62ZM64.3393 23.62C64.0393 23.66 63.7593 23.57 63.4993 23.35C63.2393 23.13 63.0993 22.74 63.0793 22.18C63.0593 21.2 63.0493 20.28 63.0493 19.42C63.0493 18.56 63.0493 17.62 63.0493 16.6C63.0493 15.46 63.0393 14.4 63.0193 13.42C63.0193 12.42 63.0093 11.44 62.9893 10.48C62.9893 9.49996 62.9793 8.50996 62.9593 7.50996C62.9393 6.50996 62.9193 5.42996 62.8993 4.26996C62.8993 3.92996 62.9793 3.61996 63.1393 3.33996C63.2993 3.03996 63.5493 2.85996 63.8893 2.79996C64.2893 2.73996 64.5993 2.83996 64.8193 3.09996C65.0593 3.35996 65.1893 3.66996 65.2093 4.02996C65.2493 4.92996 65.2793 5.78996 65.2993 6.60996C65.3193 7.42996 65.3393 8.24996 65.3593 9.06996C65.3793 9.88996 65.3893 10.73 65.3893 11.59C65.3893 12.43 65.3893 13.31 65.3893 14.23C65.3893 15.37 65.3793 16.48 65.3593 17.56C65.3593 18.64 65.3593 19.75 65.3593 20.89C65.3993 21.11 65.4393 21.37 65.4793 21.67C65.5393 21.97 65.5593 22.22 65.5393 22.42C65.5193 22.76 65.3893 23.03 65.1493 23.23C64.9293 23.43 64.6593 23.56 64.3393 23.62Z" fill="black"/>
<path d="M27.0746 20.59C27.1946 20.09 27.6646 19.64 28.4846 19.24C29.3246 18.84 30.1946 18.52 31.0946 18.28C31.9946 18.04 32.8646 17.9 33.7046 17.86V14.77C33.1246 14.81 32.5346 14.84 31.9346 14.86C31.3546 14.88 30.7746 14.9 30.1946 14.92C29.6346 14.94 29.1046 14.95 28.6046 14.95C28.1046 14.95 27.6646 14.95 27.2846 14.95C26.8046 14.95 26.3846 14.86 26.0246 14.68C25.6846 14.48 25.5146 14.17 25.5146 13.75C25.5146 13.45 25.6146 13.23 25.8146 13.09C26.0346 12.95 26.3146 12.88 26.6546 12.88C26.8146 12.88 27.0346 12.9 27.3146 12.94C27.6146 12.96 27.8846 12.97 28.1246 12.97C28.4846 12.97 28.8646 12.97 29.2646 12.97C29.6646 12.97 30.1046 12.97 30.5846 12.97C31.0846 12.95 31.6446 12.93 32.2646 12.91C32.8846 12.89 33.5946 12.86 34.3946 12.82C35.9546 12.76 37.1647 12.7 38.0247 12.64C38.9047 12.56 39.5546 12.48 39.9746 12.4C40.2346 12.36 40.4846 12.33 40.7246 12.31C40.9846 12.27 41.2646 12.25 41.5646 12.25C41.9046 12.25 42.1846 12.35 42.4046 12.55C42.6446 12.75 42.7646 12.99 42.7646 13.27C42.7646 14.05 42.2546 14.45 41.2346 14.47C41.0947 14.47 40.9146 14.47 40.6946 14.47C40.4746 14.45 40.2846 14.42 40.1246 14.38C39.4446 14.46 38.7546 14.52 38.0546 14.56C37.3746 14.6 36.6546 14.64 35.8946 14.68C35.9346 15.2 35.9446 15.74 35.9246 16.3C35.9046 16.84 35.8846 17.38 35.8646 17.92C36.5446 18 37.2246 18.14 37.9046 18.34C38.6046 18.54 39.2347 18.82 39.7947 19.18C40.3547 19.54 40.8146 19.98 41.1746 20.5C41.5546 21 41.7746 21.61 41.8346 22.33C41.8946 23.17 41.6547 23.88 41.1147 24.46C40.5747 25.06 39.8746 25.54 39.0146 25.9C38.1746 26.26 37.2446 26.51 36.2246 26.65C35.2246 26.81 34.2846 26.87 33.4046 26.83C32.2646 26.79 31.2646 26.52 30.4046 26.02C29.5646 25.54 28.9746 24.82 28.6346 23.86C28.5746 23.7 28.5346 23.49 28.5146 23.23C28.4946 22.99 28.4946 22.73 28.5146 22.45C28.5546 22.19 28.6046 21.94 28.6646 21.7C28.7446 21.44 28.8646 21.23 29.0246 21.07C28.8646 21.19 28.6546 21.32 28.3946 21.46C28.1546 21.58 27.8946 21.63 27.6146 21.61C27.3946 21.59 27.2346 21.47 27.1346 21.25C27.0546 21.03 27.0346 20.81 27.0746 20.59ZM37.0947 4.39001C36.0747 4.33001 34.9747 4.28001 33.7947 4.24001C32.6147 4.20001 31.4246 4.16001 30.2246 4.12001C30.2046 4.82001 30.1746 5.54001 30.1346 6.28001C30.1146 7.02001 30.1046 7.60001 30.1046 8.02001C30.1046 8.24001 30.1446 8.40001 30.2246 8.50001C30.3246 8.58001 30.5046 8.61001 30.7646 8.59001C31.9646 8.49001 33.1746 8.41001 34.3946 8.35001C35.6346 8.27001 36.6847 8.23001 37.5447 8.23001C38.0847 8.23001 38.5247 8.24001 38.8647 8.26001C39.2247 8.26001 39.5946 8.28001 39.9746 8.32001C40.3146 8.34001 40.5747 8.42001 40.7547 8.56001C40.9546 8.70001 41.0546 8.94001 41.0546 9.28001C41.0546 9.88001 40.6646 10.18 39.8846 10.18C39.5246 10.18 39.1946 10.18 38.8946 10.18C38.5946 10.18 38.3047 10.18 38.0247 10.18C37.7447 10.16 37.4546 10.15 37.1546 10.15C36.8546 10.15 36.5146 10.15 36.1346 10.15C35.2346 10.15 34.2246 10.21 33.1046 10.33C32.0046 10.43 30.9146 10.52 29.8346 10.6C29.0946 10.64 28.5846 10.53 28.3046 10.27C28.0446 9.99001 27.9146 9.53001 27.9146 8.89001C27.9146 8.59001 27.9146 8.25001 27.9146 7.87001C27.9346 7.49001 27.9546 7.08001 27.9746 6.64001C27.9946 6.20001 28.0146 5.76001 28.0346 5.32001C28.0746 4.88001 28.1046 4.45001 28.1246 4.03001L27.6746 4.00001C27.3346 3.96001 27.0346 3.88001 26.7746 3.76001C26.5346 3.62001 26.4246 3.37001 26.4446 3.01001C26.4846 2.63001 26.6046 2.38001 26.8046 2.26001C27.0246 2.12001 27.3646 2.07001 27.8246 2.11001C28.1446 2.13001 28.5746 2.15001 29.1146 2.17001C29.6746 2.19001 30.2846 2.22001 30.9446 2.26001C31.6246 2.28001 32.3246 2.31001 33.0446 2.35001C33.7846 2.37001 34.4846 2.40001 35.1446 2.44001C35.8246 2.46001 36.4346 2.48001 36.9746 2.50001C37.5346 2.52001 37.9747 2.54001 38.2947 2.56001C38.9347 2.60001 39.3646 2.74001 39.5846 2.98001C39.8246 3.22001 39.9347 3.46001 39.9146 3.70001C39.8947 4.00001 39.8046 4.21001 39.6446 4.33001C39.4846 4.45001 39.2446 4.55001 38.9246 4.63001C38.7446 4.67001 38.4747 4.66001 38.1147 4.60001C37.7747 4.52001 37.4347 4.45001 37.0947 4.39001ZM30.9146 23.44C31.1946 24.04 31.6246 24.45 32.2046 24.67C32.8046 24.89 33.4446 24.98 34.1246 24.94C34.8846 24.92 35.5947 24.84 36.2547 24.7C36.9146 24.56 37.4846 24.38 37.9646 24.16C38.4446 23.94 38.8246 23.68 39.1046 23.38C39.3846 23.1 39.5247 22.79 39.5247 22.45C39.5047 21.95 39.3147 21.54 38.9547 21.22C38.6147 20.88 38.1946 20.61 37.6946 20.41C37.1946 20.21 36.6547 20.07 36.0746 19.99C35.5146 19.89 35.0046 19.84 34.5446 19.84C34.1046 19.84 33.5846 19.89 32.9846 19.99C32.3846 20.07 31.8946 20.22 31.5146 20.44C30.6346 21.26 30.4346 22.26 30.9146 23.44Z" fill="black"/>
<path d="M6.2452 23.1999C6.2452 22.8599 6.3652 22.5999 6.6052 22.4199C6.5052 21.9599 6.3852 21.5099 6.2452 21.0699C6.1252 20.6099 6.0352 20.1299 5.9752 19.6299C5.9352 19.3899 5.8952 19.1499 5.8552 18.9099C5.8352 18.6499 5.8052 18.3999 5.7652 18.1599C5.7452 17.9199 5.7252 17.7099 5.7052 17.5299C5.6852 17.3299 5.6752 17.1799 5.6752 17.0799C5.7152 16.7599 5.8152 16.4799 5.9752 16.2399C6.1552 15.9799 6.4752 15.8299 6.9352 15.7899C7.5552 15.7299 8.3752 15.6799 9.3952 15.6399C10.4152 15.5799 11.4852 15.5399 12.6052 15.5199C13.7452 15.4799 14.8652 15.4599 15.9652 15.4599C17.0852 15.4399 18.0452 15.4399 18.8452 15.4599C19.6652 15.4999 20.0752 15.9599 20.0752 16.8399C20.0752 17.1999 20.0752 17.5999 20.0752 18.0399C20.0752 18.4599 20.0652 18.8999 20.0452 19.3599C20.0452 19.7999 20.0452 20.2299 20.0452 20.6499C20.0452 21.0699 20.0452 21.4399 20.0452 21.7599C20.0452 22.1999 20.0252 22.5499 19.9852 22.8099C19.9652 23.0699 19.8852 23.2599 19.7452 23.3799C19.6252 23.5199 19.4352 23.5999 19.1752 23.6199C18.9152 23.6599 18.5552 23.6799 18.0952 23.6799C16.3952 23.7199 14.7452 23.7699 13.1452 23.8299C11.5452 23.9099 10.1452 24.0099 8.9452 24.1299C8.7052 24.1699 8.4452 24.1999 8.1652 24.2199C7.9052 24.2599 7.6652 24.2799 7.4452 24.2799C7.0452 24.2799 6.7452 24.1799 6.5452 23.9799C6.3452 23.7799 6.2452 23.5199 6.2452 23.1999ZM12.3652 2.25994C12.5452 2.17994 12.7552 2.12994 12.9952 2.10994C13.2552 2.08994 13.4952 2.10994 13.7152 2.16994C13.9352 2.22994 14.1252 2.33994 14.2852 2.49994C14.4452 2.65994 14.5352 2.86994 14.5552 3.12994C14.5952 3.72994 14.3252 4.07994 13.7452 4.17994C13.5052 4.21994 13.2352 4.23994 12.9352 4.23994C12.6352 4.21994 12.3752 4.18994 12.1552 4.14994C12.0552 4.12994 11.9652 4.11994 11.8852 4.11994C11.8052 4.11994 11.7452 4.11994 11.7052 4.11994C11.5652 4.11994 11.4952 4.18994 11.4952 4.32994C11.4952 4.90994 11.4852 5.48994 11.4652 6.06994C11.4452 6.64994 11.4152 7.22994 11.3752 7.80994C11.3352 8.38994 11.2952 9.04994 11.2552 9.78994C11.2352 10.5099 11.2252 11.1599 11.2252 11.7399C11.2252 11.8399 11.3052 11.9099 11.4652 11.9499C11.6452 11.9699 11.9452 11.9899 12.3652 12.0099C12.6452 12.0299 12.9452 12.0599 13.2652 12.0999C13.5852 12.1399 13.8352 12.1899 14.0152 12.2499C14.2952 12.3499 14.5252 12.5199 14.7052 12.7599C14.9052 12.9999 14.9052 13.2899 14.7052 13.6299C14.6052 13.7699 14.4752 13.8599 14.3152 13.8999C14.1752 13.9199 14.0452 13.9299 13.9252 13.9299H13.7452C12.7252 13.8099 11.6352 13.7299 10.4752 13.6899C9.3152 13.6299 8.1352 13.5999 6.9352 13.5999C6.0952 13.5999 5.2852 13.6099 4.5052 13.6299C3.7252 13.6499 3.0152 13.6699 2.3752 13.6899C2.1952 13.6899 2.0152 13.6799 1.8352 13.6599C1.6552 13.6399 1.4952 13.5899 1.3552 13.5099C1.2152 13.4299 1.1052 13.3099 1.0252 13.1499C0.945199 12.9899 0.915199 12.7699 0.935199 12.4899C0.955199 12.2699 1.0552 12.0999 1.2352 11.9799C1.4152 11.8599 1.6352 11.7999 1.8952 11.7999C1.9752 11.7999 2.0652 11.7999 2.1652 11.7999C2.2652 11.7999 2.4052 11.7899 2.5852 11.7699C2.7652 11.7699 2.9852 11.7699 3.2452 11.7699C3.5052 11.7499 3.8652 11.7299 4.3252 11.7099L4.6552 7.44994L4.8952 4.32994C4.7552 4.32994 4.6252 4.33994 4.5052 4.35994C4.3852 4.35994 4.2452 4.36994 4.0852 4.38994C3.9252 4.40994 3.7552 4.42994 3.5752 4.44994C3.4152 4.46994 3.2452 4.47994 3.0652 4.47994C2.4452 4.47994 2.0252 4.36994 1.8052 4.14994C1.6452 3.94994 1.5852 3.69994 1.6252 3.39994C1.6652 3.09994 1.7852 2.86994 1.9852 2.70994C2.1652 2.58994 2.4852 2.51994 2.9452 2.49994C3.1452 2.47994 3.3852 2.46994 3.6652 2.46994C3.9652 2.46994 4.2852 2.45994 4.6252 2.43994C4.8452 2.43994 5.0952 2.43994 5.3752 2.43994C5.6552 2.41994 5.9552 2.39994 6.2752 2.37994C6.7752 2.35994 7.3152 2.33994 7.8952 2.31994C8.4752 2.29994 9.0252 2.28994 9.5452 2.28994C10.0652 2.26994 10.5252 2.25994 10.9252 2.25994C11.3252 2.25994 11.5852 2.25994 11.7052 2.25994H12.3652ZM8.0152 17.6499C8.0752 18.4299 8.1552 19.2099 8.2552 19.9899C8.3552 20.7499 8.4752 21.5099 8.6152 22.2699C9.1552 22.2299 9.7652 22.1799 10.4452 22.1199C11.1452 22.0799 11.8652 22.0399 12.6052 21.9999C13.3652 21.9399 14.1352 21.8999 14.9152 21.8799C15.6952 21.8399 16.4652 21.8199 17.2252 21.8199C17.6052 21.8199 17.8252 21.7899 17.8852 21.7299C17.9652 21.6699 18.0052 21.4699 18.0052 21.1299C18.0052 20.9299 18.0052 20.6899 18.0052 20.4099C18.0052 20.1299 18.0052 19.8399 18.0052 19.5399C18.0252 19.2399 18.0352 18.9599 18.0352 18.6999C18.0352 18.4199 18.0352 18.1899 18.0352 18.0099C18.0352 17.7099 17.9952 17.5299 17.9152 17.4699C17.8352 17.3899 17.6352 17.3399 17.3152 17.3199C15.8752 17.2599 14.3852 17.2699 12.8452 17.3499C11.3252 17.4299 9.7152 17.5299 8.0152 17.6499ZM23.1952 8.25994C23.0152 8.23994 22.7552 8.23994 22.4152 8.25994C22.0952 8.25994 21.7552 8.26994 21.3952 8.28994C21.0552 8.30994 20.7252 8.32994 20.4052 8.34994C20.0852 8.36994 19.8252 8.37994 19.6252 8.37994C19.6252 8.49994 19.6252 8.67994 19.6252 8.91994C19.6252 9.15994 19.6252 9.42994 19.6252 9.72994C19.6452 10.0299 19.6552 10.3399 19.6552 10.6599C19.6552 10.9599 19.6552 11.2299 19.6552 11.4699C19.6552 11.6499 19.6652 11.8899 19.6852 12.1899C19.7252 12.4699 19.7452 12.7199 19.7452 12.9399C19.7452 13.3399 19.6452 13.6899 19.4452 13.9899C19.2452 14.2699 18.9852 14.4099 18.6652 14.4099C18.2652 14.4099 17.9552 14.3099 17.7352 14.1099C17.5352 13.9099 17.4352 13.6799 17.4352 13.4199C17.4352 12.8799 17.4252 12.1599 17.4052 11.2599C17.3852 10.3599 17.3652 9.39994 17.3452 8.37994C17.3452 7.35994 17.3352 6.34994 17.3152 5.34994C17.2952 4.34994 17.2852 3.46994 17.2852 2.70994C17.2852 2.36994 17.4052 2.11994 17.6452 1.95994C17.8852 1.77994 18.1452 1.68994 18.4252 1.68994C18.7052 1.68994 18.9452 1.77994 19.1452 1.95994C19.3652 2.11994 19.4852 2.37994 19.5052 2.73994C19.5452 3.27994 19.5652 3.81994 19.5652 4.35994C19.5652 4.87994 19.5652 5.58994 19.5652 6.48994C20.2052 6.42994 20.8752 6.35994 21.5752 6.27994C22.2952 6.19994 22.9552 6.20994 23.5552 6.30994C23.7952 6.34994 23.9752 6.47994 24.0952 6.69994C24.2352 6.91994 24.3052 7.13994 24.3052 7.35994C24.3052 7.59994 24.2052 7.82994 24.0052 8.04994C23.8252 8.24994 23.5552 8.31994 23.1952 8.25994ZM9.3652 6.93994C9.3652 6.05994 9.3052 5.13994 9.1852 4.17994C9.1252 4.15994 9.0252 4.14994 8.8852 4.14994C8.7452 4.12994 8.5752 4.11994 8.3752 4.11994C8.1952 4.11994 7.9952 4.12994 7.7752 4.14994C7.5552 4.16994 7.3552 4.18994 7.1752 4.20994C7.0152 5.34994 6.8752 6.53994 6.7552 7.77994C6.6352 9.01994 6.5752 10.1499 6.5752 11.1699C6.5752 11.4699 6.6052 11.6499 6.6652 11.7099C6.7452 11.7699 6.8952 11.7999 7.1152 11.7999H8.9752C9.0752 11.7199 9.1252 11.6199 9.1252 11.4999L9.2152 10.3299C9.2552 9.80994 9.2852 9.24994 9.3052 8.64994C9.3452 8.02994 9.3652 7.45994 9.3652 6.93994Z" fill="black"/>
</svg>
